<?xml version="1.0" encoding="UTF-8"?>
<svg xmlns="http://www.w3.org/2000/svg" xmlns:xlink="http://www.w3.org/1999/xlink" width="649pt" height="317pt" viewBox="0 0 649 317" version="1.1">
<g id="surface1">
<path style=" stroke:none;fill-rule:nonzero;fill:rgb(0%,25.881958%,52.940369%);fill-opacity:1;" d="M 491.6875 155.347656 C 491.6875 155.347656 494.339844 158.65625 504.046875 168.046875 C 505.988281 163.066406 518.167969 130.773438 519.828125 124.707031 C 521.492188 118.621094 524.8125 99.042969 518.734375 77.792969 C 512.636719 56.53125 491.6875 28.675781 491.6875 28.675781 L 491.46875 28.675781 C 491.46875 28.675781 470.542969 56.53125 464.46875 77.792969 C 458.355469 99.042969 461.679688 118.621094 463.347656 124.707031 C 465 130.773438 477.1875 163.066406 479.136719 168.046875 C 488.832031 158.65625 491.46875 155.347656 491.46875 155.347656 Z M 491.6875 301.285156 C 493.808594 297.402344 502.1875 292.011719 506.75 282.753906 C 491.117188 255.847656 495.289062 224.253906 495.289062 224.253906 L 510.417969 223.144531 L 513.171875 219.011719 L 509.046875 214.09375 L 496.113281 213.8125 C 496.398438 200.402344 501.902344 177.636719 501.902344 177.636719 L 491.6875 167.5 L 491.46875 167.5 L 481.277344 177.636719 C 481.277344 177.636719 486.785156 200.402344 487.046875 213.8125 L 474.121094 214.09375 L 470.003906 219.011719 L 472.753906 223.144531 L 487.871094 224.253906 C 487.871094 224.253906 492.058594 255.847656 476.417969 282.753906 C 480.96875 292.011719 489.375 297.402344 491.46875 301.285156 Z M 410.3125 279.351562 C 413.335938 286.46875 428.351562 304.820312 449.371094 294.679688 C 483.480469 278.253906 479.359375 231.640625 479.359375 231.640625 C 479.359375 231.640625 477.703125 231.929688 473.03125 231.929688 C 467.796875 254.382812 455.695312 267.285156 440.566406 266.992188 C 425.445312 266.730469 416.910156 253.574219 417.183594 237.125 C 402.339844 253.84375 407.277344 272.210938 410.3125 279.351562 M 417.144531 153.863281 C 460.574219 154.851562 473.960938 206.203125 473.960938 206.203125 C 473.960938 206.203125 475.914062 206.074219 477.984375 206.074219 C 475.234375 185.929688 465.820312 146.40625 444.601562 126.5 C 423.386719 106.617188 400.953125 109.730469 381.417969 118.714844 C 360.515625 128.300781 353.757812 157.585938 365.730469 176.734375 C 377.710938 195.875 387.398438 200.054688 401.890625 203.527344 C 400.171875 201.398438 391.449219 189.910156 393.1875 176.734375 C 393.457031 165.859375 403.660156 153.554688 417.144531 153.863281 M 491.6875 16.195312 C 491.6875 16.195312 504.445312 31.128906 519.265625 57.132812 C 533.410156 81.921875 530.386719 112.523438 530.386719 116.132812 C 530.386719 119.730469 529.363281 120.761719 530.128906 121.535156 C 530.914062 122.304688 530.914062 121.285156 534.269531 118.191406 C 555.210938 97.835938 587.214844 103.210938 598.167969 107.734375 C 610.332031 112.746094 630.269531 126.082031 630.90625 151.597656 C 632.15625 201.308594 586.234375 212.941406 576.40625 212.476562 C 564.863281 211.917969 571.519531 201.867188 573.144531 199.683594 C 577.878906 193.320312 582.457031 184.839844 580.949219 175.160156 C 579.824219 167.972656 570.953125 159.941406 557.292969 163.851562 C 521.851562 174.003906 518.238281 209.65625 518.238281 209.65625 L 523.929688 219.433594 C 523.929688 219.433594 520.832031 223.039062 518.238281 227.15625 C 521.332031 246.746094 531.175781 260.132812 545.640625 257.824219 C 560.121094 255.488281 556.246094 233.332031 555.730469 229.492188 C 555.210938 225.609375 557.960938 215.558594 572.441406 222.761719 C 619.746094 247.046875 642.074219 212.589844 638.191406 188.519531 C 633.46875 159.226562 638.277344 138.007812 639.054688 128.542969 C 639.972656 117.308594 637.316406 101.191406 624.746094 92.695312 C 603.820312 78.511719 589.332031 86.25 572.789062 92.421875 C 556.246094 98.609375 556.246094 82.386719 558.316406 77.226562 C 560.382812 72.082031 564.523438 58.171875 565.023438 47.085938 C 565.542969 36.003906 559.085938 23.902344 548.492188 15.921875 C 537.890625 7.9375 520.832031 8.710938 515.140625 10.253906 C 509.449219 11.804688 491.6875 12.597656 491.6875 12.597656 L 491.46875 12.597656 C 491.46875 12.597656 473.730469 11.804688 468.03125 10.253906 C 462.347656 8.710938 445.285156 7.9375 434.691406 15.921875 C 424.089844 23.902344 417.621094 36.003906 418.140625 47.085938 C 418.65625 58.171875 422.800781 72.082031 424.855469 77.226562 C 426.941406 82.386719 426.941406 98.609375 410.382812 92.421875 C 393.832031 86.25 379.363281 78.511719 358.425781 92.695312 C 345.855469 101.191406 343.199219 117.308594 344.121094 128.542969 C 344.902344 138.007812 349.703125 159.226562 344.984375 188.519531 C 341.109375 212.589844 363.433594 247.046875 410.746094 222.761719 C 425.226562 215.558594 427.972656 225.609375 427.453125 229.492188 C 426.941406 233.332031 423.046875 255.488281 437.527344 257.824219 C 452.007812 260.132812 461.832031 246.746094 464.929688 227.15625 C 462.347656 223.039062 459.25 219.433594 459.25 219.433594 L 464.929688 209.65625 C 464.929688 209.65625 461.316406 174.003906 425.882812 163.851562 C 412.226562 159.941406 403.347656 167.972656 402.222656 175.160156 C 400.710938 184.839844 405.300781 193.320312 410.039062 199.683594 C 411.667969 201.867188 418.316406 211.917969 406.757812 212.476562 C 396.941406 212.941406 351.023438 201.308594 352.269531 151.597656 C 352.902344 126.082031 372.847656 112.746094 385.003906 107.734375 C 395.964844 103.210938 427.972656 97.835938 448.902344 118.191406 C 452.261719 121.285156 452.261719 122.304688 453.039062 121.535156 C 453.8125 120.761719 452.78125 119.730469 452.78125 116.132812 C 452.78125 112.523438 449.773438 81.921875 463.898438 57.132812 C 478.707031 31.128906 491.46875 16.195312 491.46875 16.195312 Z M 491.46875 316.4375 C 486.167969 307.320312 474.714844 297.304688 470.441406 290.132812 C 458.917969 301 446.246094 307.839844 428.574219 303.878906 C 410.910156 299.925781 384.398438 271.738281 407.816406 234.320312 C 376.902344 241.820312 363.199219 237.648438 353.484375 230.367188 C 343.75 223.109375 333.246094 209.65625 335.898438 188.171875 C 338.777344 164.746094 339.371094 159.351562 335.234375 128.015625 C 331.492188 99.640625 360.242188 60.59375 411.90625 83.601562 C 415.554688 85.359375 417.597656 84.894531 416.722656 81.378906 C 415.835938 77.859375 407.039062 57.125 409.367188 43.265625 C 411.796875 28.742188 418.203125 11.125 445.8125 2.335938 C 460.332031 -2.296875 475.078125 4.574219 491.46875 4.332031 L 491.6875 4.332031 C 508.101562 4.574219 522.851562 -2.296875 537.371094 2.335938 C 564.96875 11.125 571.382812 28.742188 573.808594 43.265625 C 576.117188 57.125 567.339844 77.859375 566.453125 81.378906 C 565.574219 84.894531 567.613281 85.359375 571.277344 83.601562 C 622.933594 60.59375 651.683594 99.640625 647.929688 128.015625 C 643.808594 159.351562 644.394531 164.746094 647.269531 188.171875 C 649.921875 209.65625 639.425781 223.109375 629.6875 230.367188 C 619.96875 237.648438 606.265625 241.820312 575.355469 234.320312 C 598.769531 271.738281 572.265625 299.925781 554.597656 303.878906 C 536.9375 307.839844 524.257812 301 512.726562 290.132812 C 508.464844 297.304688 497.011719 307.320312 491.6875 316.4375 Z M 565.980469 237.125 C 566.265625 253.574219 557.738281 266.730469 542.613281 266.992188 C 527.480469 267.285156 515.363281 254.382812 510.144531 231.929688 C 505.472656 231.929688 503.824219 231.640625 503.824219 231.640625 C 503.824219 231.640625 499.699219 278.253906 533.804688 294.679688 C 554.8125 304.820312 569.84375 286.46875 572.863281 279.351562 C 575.894531 272.210938 580.84375 253.84375 565.980469 237.125 M 589.992188 176.734375 C 591.730469 189.910156 582.996094 201.398438 581.304688 203.527344 C 595.777344 200.054688 605.457031 195.875 617.425781 176.734375 C 629.414062 157.585938 622.65625 128.300781 601.75 118.714844 C 582.230469 109.730469 559.792969 106.617188 538.578125 126.5 C 517.359375 146.40625 507.9375 185.929688 505.1875 206.074219 C 507.257812 206.074219 509.21875 206.203125 509.21875 206.203125 C 509.21875 206.203125 522.609375 154.851562 566.023438 153.863281 C 579.527344 153.554688 589.714844 165.859375 589.992188 176.734375 "/>
<path style=" stroke:none;fill-rule:nonzero;fill:rgb(0%,25.881958%,52.940369%);fill-opacity:1;" d="M 222.515625 183.34375 C 218.808594 188.632812 213.679688 191.277344 207.121094 191.277344 C 198.636719 191.277344 192.53125 187.710938 188.804688 180.585938 L 188.804688 139.875 C 192.476562 132.921875 198.527344 129.449219 206.953125 129.449219 C 213.734375 129.449219 218.957031 132.128906 222.597656 137.5 C 226.246094 142.875 228.070312 150.140625 228.070312 159.296875 C 228.070312 170.042969 226.21875 178.054688 222.515625 183.34375 M 239.050781 125.078125 C 232.695312 116.738281 223.914062 112.570312 212.71875 112.570312 C 202.316406 112.570312 194.085938 116.242188 188.035156 123.59375 L 187.652344 119.179688 C 187.460938 116.046875 185.609375 114.253906 183.074219 114.253906 C 183.019531 114.253906 173.183594 114.265625 173.183594 114.265625 C 170.230469 114.265625 168.1875 116.378906 168.1875 119.261719 L 168.128906 234.570312 C 168.128906 238.355469 170.734375 241.316406 174.371094 241.316406 L 182.625 241.296875 C 186.25 241.296875 188.785156 238.332031 188.785156 234.800781 L 188.804688 234.414062 L 188.804688 197.804688 C 194.847656 204.421875 202.90625 207.730469 212.972656 207.730469 C 223.828125 207.730469 232.484375 203.503906 238.925781 195.050781 C 245.371094 186.597656 248.59375 175.277344 248.59375 161.082031 L 248.59375 159.808594 C 248.59375 144.992188 245.414062 133.417969 239.050781 125.078125 M 128.046875 207.511719 C 137.019531 207.511719 142.816406 205.066406 148.921875 201.921875 C 149.914062 201.414062 150.792969 200.628906 150.792969 200.628906 C 153.894531 198.378906 153.808594 193.976562 152.128906 192.085938 C 152.128906 192.085938 150.933594 190.796875 150.171875 190.066406 C 149.648438 189.558594 148.257812 188.351562 147.710938 187.828125 C 146.976562 187.128906 145.582031 186.234375 142.789062 186.6875 C 140.5 187.058594 138.148438 188.675781 136.515625 189.308594 C 133.996094 190.289062 130.984375 191.050781 127.863281 191.050781 C 121.074219 191.050781 115.886719 188.609375 112.296875 183.71875 C 108.707031 178.828125 106.910156 171.40625 106.910156 161.457031 L 106.910156 158.144531 C 106.96875 148.308594 108.800781 140.972656 112.421875 136.140625 C 116.042969 131.304688 121.1875 128.886719 127.863281 128.886719 C 130.683594 128.886719 133.175781 129.394531 135.457031 130.375 C 136.929688 131.011719 140.417969 132.746094 142.519531 132.746094 C 144.847656 132.746094 146.542969 131.152344 146.777344 130.90625 C 147.277344 130.386719 148.121094 129.492188 148.59375 128.980469 C 149.289062 128.222656 151 126.347656 151 126.347656 C 152.519531 124.457031 153.253906 121.058594 149.902344 118.53125 C 149.902344 118.53125 149.058594 117.71875 147.597656 116.902344 C 142.058594 113.8125 135.742188 112.347656 128.027344 112.347656 C 115.136719 112.347656 104.960938 116.546875 97.5 124.941406 C 90.035156 133.339844 86.300781 144.527344 86.300781 158.488281 L 86.300781 160.609375 C 86.300781 175.25 90.058594 186.730469 97.582031 195.042969 C 105.105469 203.355469 115.277344 207.511719 128.117188 207.511719 Z M 41.085938 176.714844 C 41.4375 175.527344 58.238281 119.769531 58.691406 118.402344 C 59.292969 116.566406 60.179688 112.839844 65.113281 112.839844 L 75.394531 112.839844 C 80.070312 112.839844 81.027344 116.46875 79.964844 119.492188 L 50.820312 202.375 C 50.105469 204.347656 47.726562 206.421875 45.195312 206.421875 L 35.285156 206.421875 C 32.746094 206.421875 30.371094 204.347656 29.652344 202.375 L 0.507812 119.492188 C -0.550781 116.46875 0.410156 112.839844 5.078125 112.839844 L 15.359375 112.839844 C 20.292969 112.839844 21.179688 116.566406 21.785156 118.402344 C 22.234375 119.769531 39.039062 175.539062 39.386719 176.714844 C 39.734375 177.890625 40.734375 177.902344 41.085938 176.714844 "/>
</g>
</svg>
