<?xml version="1.0" encoding="UTF-8"?>
<svg xmlns="http://www.w3.org/2000/svg" xmlns:xlink="http://www.w3.org/1999/xlink" width="2006.93pt" height="765.35pt" viewBox="0 0 2006.93 765.35" version="1.1">
<g id="surface1">
<path style=" stroke:none;fill-rule:nonzero;fill:rgb(11.399841%,11.399841%,10.598755%);fill-opacity:1;" d="M 996.894531 281.511719 L 989.273438 281.511719 L 1006.5 334.375 L 1012.601562 334.375 L 1029.871094 281.511719 L 1022.207031 281.511719 L 1009.515625 324.171875 Z M 1064.1875 304.242188 L 1044.554688 304.242188 L 1044.554688 287.210938 L 1067.050781 287.210938 L 1067.050781 281.511719 L 1037.582031 281.511719 L 1037.582031 334.375 L 1067.433594 334.375 L 1067.433594 328.675781 L 1044.554688 328.675781 L 1044.554688 309.941406 L 1064.1875 309.941406 Z M 1104.574219 334.375 L 1112.078125 334.375 L 1112.078125 333.941406 L 1101.328125 311.464844 C 1104.097656 310.230469 1106.242188 308.398438 1107.75 305.964844 C 1109.265625 303.535156 1110.023438 300.683594 1110.023438 297.414062 C 1110.023438 292.214844 1108.625 288.261719 1105.828125 285.5625 C 1103.035156 282.863281 1098.917969 281.511719 1093.476562 281.511719 L 1077.921875 281.511719 L 1077.921875 334.375 L 1084.941406 334.375 L 1084.941406 312.988281 L 1094.699219 312.988281 Z M 1084.941406 287.210938 L 1093.324219 287.210938 C 1099.78125 287.210938 1103.011719 290.609375 1103.011719 297.394531 C 1103.011719 300.402344 1102.136719 302.804688 1100.398438 304.597656 C 1098.652344 306.390625 1096.324219 307.289062 1093.402344 307.289062 L 1084.941406 307.289062 Z M 1135.917969 334.375 C 1140.976562 334.375 1144.867188 333.015625 1147.601562 330.304688 C 1150.332031 327.597656 1151.699219 323.871094 1151.699219 319.128906 C 1151.699219 315.953125 1150.953125 313.242188 1149.46875 310.992188 C 1147.984375 308.746094 1145.96875 307.253906 1143.429688 306.527344 C 1145.640625 305.488281 1147.394531 304.023438 1148.6875 302.136719 C 1149.980469 300.246094 1150.632812 298.070312 1150.632812 295.597656 C 1150.632812 290.90625 1149.355469 287.382812 1146.800781 285.035156 C 1144.246094 282.683594 1140.4375 281.511719 1135.382812 281.511719 L 1119.5625 281.511719 L 1119.5625 334.375 Z M 1136.222656 309.648438 C 1141.863281 309.648438 1144.683594 312.832031 1144.683594 319.195312 C 1144.683594 322.199219 1143.910156 324.53125 1142.359375 326.191406 C 1140.808594 327.84375 1138.710938 328.675781 1136.066406 328.675781 L 1126.539062 328.675781 L 1126.539062 309.648438 Z M 1126.539062 287.210938 L 1135.382812 287.210938 C 1138.152344 287.210938 1140.207031 287.878906 1141.558594 289.195312 C 1142.90625 290.519531 1143.578125 292.632812 1143.578125 295.542969 C 1143.578125 298.117188 1142.835938 300.179688 1141.347656 301.734375 C 1139.863281 303.285156 1137.914062 304.0625 1135.496094 304.0625 L 1126.539062 304.0625 Z M 1189.683594 334.375 L 1196.847656 334.375 L 1178.929688 281.511719 L 1172.945312 281.511719 L 1155.066406 334.375 L 1162.234375 334.375 L 1166.542969 320.542969 L 1185.296875 320.542969 Z M 1175.917969 290.808594 L 1183.503906 314.839844 L 1168.367188 314.839844 Z M 1237.914062 281.511719 L 1230.980469 281.511719 L 1230.980469 322.429688 L 1208.675781 281.511719 L 1201.660156 281.511719 L 1201.660156 334.375 L 1208.675781 334.375 L 1208.675781 293.640625 L 1230.898438 334.375 L 1237.914062 334.375 Z M 1261.066406 334.375 C 1267.976562 334.375 1273.25 332.46875 1276.886719 328.65625 C 1280.519531 324.84375 1282.335938 319.441406 1282.335938 312.449219 L 1282.335938 303.589844 C 1282.335938 296.59375 1280.550781 291.164062 1276.964844 287.304688 C 1273.378906 283.441406 1268.347656 281.511719 1261.867188 281.511719 L 1248.636719 281.511719 L 1248.636719 334.375 Z M 1261.867188 287.210938 C 1266.414062 287.210938 1269.8125 288.515625 1272.066406 291.121094 C 1274.3125 293.722656 1275.441406 297.808594 1275.441406 303.382812 L 1275.441406 312.757812 C 1275.386719 318.015625 1274.230469 321.984375 1271.96875 324.660156 C 1269.707031 327.335938 1266.121094 328.675781 1261.21875 328.675781 L 1255.617188 328.675781 L 1255.617188 287.210938 Z M 1340.984375 317.566406 C 1340.605469 322.019531 1339.613281 325.105469 1338.015625 326.824219 C 1336.414062 328.542969 1333.796875 329.398438 1330.164062 329.398438 C 1326.523438 329.398438 1323.761719 327.972656 1321.871094 325.117188 C 1319.976562 322.261719 1319.027344 318.15625 1319.027344 312.808594 L 1319.027344 303.113281 C 1319.027344 297.667969 1320.042969 293.539062 1322.078125 290.71875 C 1324.113281 287.898438 1327.023438 286.484375 1330.808594 286.484375 C 1334.089844 286.484375 1336.527344 287.410156 1338.128906 289.246094 C 1339.730469 291.085938 1340.683594 294.164062 1340.984375 298.46875 L 1348.035156 298.46875 C 1347.78125 292.78125 1346.191406 288.410156 1343.257812 285.363281 C 1340.320312 282.316406 1336.167969 280.785156 1330.808594 280.785156 C 1324.992188 280.785156 1320.394531 282.785156 1317.03125 286.777344 C 1313.660156 290.773438 1311.976562 296.203125 1311.976562 303.082031 L 1311.976562 312.664062 C 1311.976562 319.5625 1313.617188 325.027344 1316.894531 329.054688 C 1320.167969 333.085938 1324.59375 335.101562 1330.164062 335.101562 C 1335.699219 335.101562 1339.988281 333.59375 1343.027344 330.582031 C 1346.0625 327.566406 1347.734375 323.230469 1348.035156 317.566406 Z M 1392.464844 281.511719 L 1385.445312 281.511719 L 1385.445312 304.242188 L 1363.109375 304.242188 L 1363.109375 281.511719 L 1356.132812 281.511719 L 1356.132812 334.375 L 1363.109375 334.375 L 1363.109375 309.941406 L 1385.445312 309.941406 L 1385.445312 334.375 L 1392.464844 334.375 Z M 1432.765625 334.375 L 1440.277344 334.375 L 1440.277344 333.941406 L 1429.527344 311.464844 C 1432.296875 310.230469 1434.433594 308.398438 1435.949219 305.964844 C 1437.464844 303.535156 1438.21875 300.683594 1438.21875 297.414062 C 1438.21875 292.214844 1436.820312 288.261719 1434.023438 285.5625 C 1431.226562 282.863281 1427.109375 281.511719 1421.675781 281.511719 L 1406.117188 281.511719 L 1406.117188 334.375 L 1413.132812 334.375 L 1413.132812 312.988281 L 1422.894531 312.988281 Z M 1413.132812 287.210938 L 1421.523438 287.210938 C 1427.972656 287.210938 1431.203125 290.609375 1431.203125 297.394531 C 1431.203125 300.402344 1430.332031 302.804688 1428.59375 304.597656 C 1426.851562 306.390625 1424.519531 307.289062 1421.597656 307.289062 L 1413.132812 307.289062 Z M 1456.410156 281.511719 L 1449.4375 281.511719 L 1449.4375 334.375 L 1456.410156 334.375 Z M 1490.769531 327.152344 C 1489.222656 328.652344 1486.90625 329.398438 1483.832031 329.398438 C 1480.527344 329.398438 1477.914062 328.496094 1475.996094 326.679688 C 1474.078125 324.863281 1473.117188 322.324219 1473.117188 319.054688 L 1466.105469 319.054688 C 1466.105469 322.199219 1466.886719 324.988281 1468.449219 327.421875 C 1470.011719 329.851562 1472.160156 331.742188 1474.890625 333.085938 C 1477.621094 334.429688 1480.605469 335.101562 1483.832031 335.101562 C 1488.863281 335.101562 1492.839844 333.8125 1495.765625 331.234375 C 1498.6875 328.65625 1500.144531 325.226562 1500.144531 320.941406 C 1500.144531 316.875 1498.972656 313.585938 1496.621094 311.066406 C 1494.269531 308.550781 1490.363281 306.429688 1484.898438 304.707031 C 1481.390625 303.519531 1478.800781 302.175781 1477.125 300.671875 C 1475.445312 299.167969 1474.609375 297.300781 1474.609375 295.070312 C 1474.609375 292.355469 1475.382812 290.246094 1476.933594 288.742188 C 1478.480469 287.238281 1480.667969 286.484375 1483.488281 286.484375 C 1486.589844 286.484375 1488.96875 287.382812 1490.617188 289.175781 C 1492.269531 290.964844 1493.09375 293.492188 1493.09375 296.761719 L 1500.113281 296.761719 C 1500.113281 293.808594 1499.421875 291.101562 1498.050781 288.632812 C 1496.679688 286.167969 1494.71875 284.242188 1492.179688 282.863281 C 1489.640625 281.480469 1486.738281 280.785156 1483.488281 280.785156 C 1478.734375 280.785156 1474.890625 282.144531 1471.957031 284.851562 C 1469.023438 287.566406 1467.550781 291.011719 1467.550781 295.203125 C 1467.550781 297.621094 1468.070312 299.769531 1469.101562 301.644531 C 1470.125 303.519531 1471.679688 305.191406 1473.75 306.65625 C 1475.820312 308.121094 1478.8125 309.515625 1482.726562 310.851562 C 1486.636719 312.179688 1489.347656 313.546875 1490.847656 314.953125 C 1492.347656 316.355469 1493.09375 318.375 1493.09375 321.011719 C 1493.09375 323.605469 1492.320312 325.648438 1490.769531 327.152344 M 1539.007812 281.511719 L 1502.867188 281.511719 L 1502.867188 287.210938 L 1517.429688 287.210938 L 1517.429688 334.375 L 1524.402344 334.375 L 1524.402344 287.210938 L 1539.007812 287.210938 Z M 1551.484375 281.511719 L 1544.472656 281.511719 L 1544.472656 334.375 L 1573.25 334.375 L 1573.25 328.675781 L 1551.484375 328.675781 Z M 1586.109375 281.511719 L 1579.136719 281.511719 L 1579.136719 334.375 L 1586.109375 334.375 Z M 1621.804688 317.566406 C 1621.425781 322.019531 1620.433594 325.105469 1618.832031 326.824219 C 1617.230469 328.542969 1614.609375 329.398438 1610.976562 329.398438 C 1607.34375 329.398438 1604.578125 327.972656 1602.683594 325.117188 C 1600.792969 322.261719 1599.847656 318.15625 1599.847656 312.808594 L 1599.847656 303.113281 C 1599.847656 297.667969 1600.863281 293.539062 1602.894531 290.71875 C 1604.925781 287.898438 1607.835938 286.484375 1611.625 286.484375 C 1614.902344 286.484375 1617.347656 287.410156 1618.941406 289.246094 C 1620.542969 291.085938 1621.496094 294.164062 1621.804688 298.46875 L 1628.855469 298.46875 C 1628.601562 292.78125 1627.007812 288.410156 1624.070312 285.363281 C 1621.136719 282.316406 1616.988281 280.785156 1611.625 280.785156 C 1605.804688 280.785156 1601.210938 282.785156 1597.84375 286.777344 C 1594.476562 290.773438 1592.792969 296.203125 1592.792969 303.082031 L 1592.792969 312.664062 C 1592.792969 319.5625 1594.429688 325.027344 1597.714844 329.054688 C 1600.988281 333.085938 1605.410156 335.101562 1610.976562 335.101562 C 1616.515625 335.101562 1620.808594 333.59375 1623.839844 330.582031 C 1626.878906 327.566406 1628.550781 323.230469 1628.855469 317.566406 Z M 1671.90625 281.511719 L 1664.894531 281.511719 L 1664.894531 304.242188 L 1642.554688 304.242188 L 1642.554688 281.511719 L 1635.578125 281.511719 L 1635.578125 334.375 L 1642.554688 334.375 L 1642.554688 309.941406 L 1664.894531 309.941406 L 1664.894531 334.375 L 1671.90625 334.375 Z M 1707.867188 304.242188 L 1688.234375 304.242188 L 1688.234375 287.210938 L 1710.726562 287.210938 L 1710.726562 281.511719 L 1681.257812 281.511719 L 1681.257812 334.375 L 1711.109375 334.375 L 1711.109375 328.675781 L 1688.234375 328.675781 L 1688.234375 309.941406 L 1707.867188 309.941406 Z M 1745.316406 334.375 L 1752.824219 334.375 L 1752.824219 333.941406 L 1742.078125 311.464844 C 1744.847656 310.230469 1746.984375 308.398438 1748.5 305.964844 C 1750.007812 303.535156 1750.765625 300.683594 1750.765625 297.414062 C 1750.765625 292.214844 1749.367188 288.261719 1746.574219 285.5625 C 1743.777344 282.863281 1739.660156 281.511719 1734.222656 281.511719 L 1718.667969 281.511719 L 1718.667969 334.375 L 1725.683594 334.375 L 1725.683594 312.988281 L 1735.441406 312.988281 Z M 1725.683594 287.210938 L 1734.066406 287.210938 C 1740.523438 287.210938 1743.75 290.609375 1743.75 297.394531 C 1743.75 300.402344 1742.882812 302.804688 1741.140625 304.597656 C 1739.398438 306.390625 1737.066406 307.289062 1734.144531 307.289062 L 1725.683594 307.289062 Z M 1011.839844 401.613281 C 1016.949219 401.511719 1020.902344 400.09375 1023.710938 397.34375 C 1026.519531 394.597656 1027.925781 390.679688 1027.925781 385.601562 C 1027.925781 380.714844 1026.449219 376.796875 1023.507812 373.855469 C 1020.558594 370.917969 1016.503906 369.441406 1011.347656 369.441406 L 993.65625 369.441406 L 993.65625 422.304688 L 1000.632812 422.304688 L 1000.632812 401.613281 Z M 1000.632812 375.148438 L 1011.378906 375.148438 C 1014.355469 375.148438 1016.695312 376.101562 1018.398438 378.015625 C 1020.097656 379.933594 1020.953125 382.480469 1020.953125 385.65625 C 1020.953125 388.953125 1020.121094 391.488281 1018.472656 393.253906 C 1016.820312 395.027344 1014.441406 395.910156 1011.347656 395.910156 L 1000.632812 395.910156 Z M 1061.292969 393.257812 L 1042.539062 393.257812 L 1042.539062 375.148438 L 1064.457031 375.148438 L 1064.457031 369.441406 L 1035.5625 369.441406 L 1035.5625 422.304688 L 1042.539062 422.304688 L 1042.539062 398.960938 L 1061.292969 398.960938 Z M 1097.0625 422.304688 L 1104.230469 422.304688 L 1086.3125 369.441406 L 1080.328125 369.441406 L 1062.449219 422.304688 L 1069.613281 422.304688 L 1073.921875 408.472656 L 1092.679688 408.472656 Z M 1083.304688 378.742188 L 1090.886719 402.773438 L 1075.753906 402.773438 Z M 1121.472656 422.304688 C 1128.386719 422.304688 1133.660156 420.398438 1137.292969 416.589844 C 1140.925781 412.777344 1142.742188 407.375 1142.742188 400.375 L 1142.742188 391.515625 C 1142.742188 384.523438 1140.949219 379.097656 1137.371094 375.234375 C 1133.785156 371.375 1128.75 369.441406 1122.269531 369.441406 L 1109.042969 369.441406 L 1109.042969 422.304688 Z M 1122.269531 375.148438 C 1126.820312 375.148438 1130.222656 376.445312 1132.46875 379.046875 C 1134.71875 381.65625 1135.84375 385.742188 1135.84375 391.316406 L 1135.84375 400.6875 C 1135.792969 405.949219 1134.636719 409.914062 1132.375 412.589844 C 1130.113281 415.265625 1126.527344 416.605469 1121.625 416.605469 L 1116.019531 416.605469 L 1116.019531 375.148438 Z M 1176.605469 393.257812 L 1157.851562 393.257812 L 1157.851562 375.148438 L 1179.773438 375.148438 L 1179.773438 369.441406 L 1150.875 369.441406 L 1150.875 422.304688 L 1157.851562 422.304688 L 1157.851562 398.960938 L 1176.605469 398.960938 Z M 1193.324219 369.441406 L 1186.351562 369.441406 L 1186.351562 422.304688 L 1193.324219 422.304688 Z M 1240.25 369.441406 L 1233.316406 369.441406 L 1233.316406 410.363281 L 1211.011719 369.441406 L 1204 369.441406 L 1204 422.304688 L 1211.011719 422.304688 L 1211.011719 381.570312 L 1233.238281 422.304688 L 1240.25 422.304688 Z M 1263.207031 422.304688 C 1270.117188 422.304688 1275.390625 420.398438 1279.023438 416.589844 C 1282.65625 412.777344 1284.472656 407.375 1284.472656 400.375 L 1284.472656 391.515625 C 1284.472656 384.523438 1282.6875 379.097656 1279.101562 375.234375 C 1275.515625 371.375 1270.488281 369.441406 1264.007812 369.441406 L 1250.777344 369.441406 L 1250.777344 422.304688 Z M 1264.007812 375.148438 C 1268.554688 375.148438 1271.953125 376.445312 1274.203125 379.046875 C 1276.449219 381.65625 1277.578125 385.742188 1277.578125 391.316406 L 1277.578125 400.6875 C 1277.523438 405.949219 1276.367188 409.914062 1274.105469 412.589844 C 1271.84375 415.265625 1268.261719 416.605469 1263.355469 416.605469 L 1257.753906 416.605469 L 1257.753906 375.148438 Z M 1320.390625 392.171875 L 1300.757812 392.171875 L 1300.757812 375.148438 L 1323.246094 375.148438 L 1323.246094 369.441406 L 1293.777344 369.441406 L 1293.777344 422.304688 L 1323.625 422.304688 L 1323.625 416.605469 L 1300.757812 416.605469 L 1300.757812 397.871094 L 1320.390625 397.871094 Z M 1359.003906 422.304688 L 1366.515625 422.304688 L 1366.515625 421.867188 L 1355.765625 399.398438 C 1358.535156 398.164062 1360.675781 396.328125 1362.1875 393.894531 C 1363.699219 391.460938 1364.453125 388.617188 1364.453125 385.347656 C 1364.453125 380.140625 1363.058594 376.191406 1360.265625 373.492188 C 1357.464844 370.792969 1353.351562 369.441406 1347.914062 369.441406 L 1332.359375 369.441406 L 1332.359375 422.304688 L 1339.371094 422.304688 L 1339.371094 400.921875 L 1349.128906 400.921875 Z M 1339.371094 375.148438 L 1347.757812 375.148438 C 1354.214844 375.148438 1357.441406 378.539062 1357.441406 385.328125 C 1357.441406 388.335938 1356.574219 390.734375 1354.828125 392.53125 C 1353.089844 394.324219 1350.757812 395.222656 1347.835938 395.222656 L 1339.371094 395.222656 Z M 1383.824219 369.441406 L 1376.851562 369.441406 L 1376.851562 422.304688 L 1383.824219 422.304688 Z M 1433.683594 369.441406 L 1426.746094 369.441406 L 1426.746094 410.363281 L 1404.449219 369.441406 L 1397.429688 369.441406 L 1397.429688 422.304688 L 1404.449219 422.304688 L 1404.449219 381.570312 L 1426.667969 422.304688 L 1433.683594 422.304688 Z M 1480.457031 369.441406 L 1473.523438 369.441406 L 1473.523438 410.363281 L 1451.21875 369.441406 L 1444.207031 369.441406 L 1444.207031 422.304688 L 1451.21875 422.304688 L 1451.21875 381.570312 L 1473.445312 422.304688 L 1480.457031 422.304688 Z M 1517.589844 392.171875 L 1497.960938 392.171875 L 1497.960938 375.148438 L 1520.453125 375.148438 L 1520.453125 369.441406 L 1490.984375 369.441406 L 1490.984375 422.304688 L 1520.832031 422.304688 L 1520.832031 416.605469 L 1497.960938 416.605469 L 1497.960938 397.871094 L 1517.589844 397.871094 Z M 1565.816406 369.441406 L 1558.875 369.441406 L 1558.875 410.363281 L 1536.578125 369.441406 L 1529.566406 369.441406 L 1529.566406 422.304688 L 1536.578125 422.304688 L 1536.578125 381.570312 L 1558.804688 422.304688 L 1565.816406 422.304688 Z M 1624.398438 369.441406 L 1624.398438 406.738281 C 1624.398438 410.292969 1623.601562 412.945312 1622.015625 414.699219 C 1620.425781 416.453125 1617.851562 417.332031 1614.296875 417.332031 C 1610.761719 417.332031 1608.203125 416.453125 1606.617188 414.699219 C 1605.027344 412.945312 1604.230469 410.292969 1604.230469 406.738281 L 1604.230469 369.441406 L 1597.292969 369.441406 L 1597.292969 407.023438 C 1597.347656 412.152344 1598.820312 416.101562 1601.71875 418.875 C 1604.613281 421.644531 1608.808594 423.03125 1614.296875 423.03125 C 1619.660156 423.03125 1623.839844 421.613281 1626.839844 418.78125 C 1629.839844 415.949219 1631.359375 412.03125 1631.410156 407.023438 L 1631.410156 369.441406 Z M 1675.679688 369.441406 L 1668.746094 369.441406 L 1668.746094 410.363281 L 1646.441406 369.441406 L 1639.429688 369.441406 L 1639.429688 422.304688 L 1646.441406 422.304688 L 1646.441406 381.570312 L 1668.667969 422.304688 L 1675.679688 422.304688 Z M 1698.835938 422.304688 C 1705.746094 422.304688 1711.019531 420.398438 1714.652344 416.589844 C 1718.285156 412.777344 1720.105469 407.375 1720.105469 400.375 L 1720.105469 391.515625 C 1720.105469 384.523438 1718.316406 379.097656 1714.730469 375.234375 C 1711.148438 371.375 1706.117188 369.441406 1699.636719 369.441406 L 1686.40625 369.441406 L 1686.40625 422.304688 Z M 1699.636719 375.148438 C 1704.183594 375.148438 1707.582031 376.445312 1709.832031 379.046875 C 1712.078125 381.65625 1713.207031 385.742188 1713.207031 391.316406 L 1713.207031 400.6875 C 1713.152344 405.949219 1711.996094 409.914062 1709.734375 412.589844 C 1707.472656 415.265625 1703.890625 416.605469 1698.988281 416.605469 L 1693.386719 416.605469 L 1693.386719 375.148438 Z M 1011.839844 489.542969 C 1016.949219 489.445312 1020.902344 488.023438 1023.710938 485.273438 C 1026.519531 482.527344 1027.925781 478.613281 1027.925781 473.53125 C 1027.925781 468.644531 1026.449219 464.726562 1023.507812 461.789062 C 1020.558594 458.847656 1016.503906 457.371094 1011.347656 457.371094 L 993.65625 457.371094 L 993.65625 510.234375 L 1000.632812 510.234375 L 1000.632812 489.542969 Z M 1000.632812 463.078125 L 1011.378906 463.078125 C 1014.355469 463.078125 1016.695312 464.035156 1018.398438 465.949219 C 1020.097656 467.863281 1020.953125 470.414062 1020.953125 473.585938 C 1020.953125 476.882812 1020.121094 479.417969 1018.472656 481.183594 C 1016.820312 482.957031 1014.441406 483.84375 1011.347656 483.84375 L 1000.632812 483.84375 Z M 1061.292969 481.191406 L 1042.539062 481.191406 L 1042.539062 463.078125 L 1064.457031 463.078125 L 1064.457031 457.371094 L 1035.5625 457.371094 L 1035.5625 510.234375 L 1042.539062 510.234375 L 1042.539062 486.890625 L 1061.292969 486.890625 Z M 1097.0625 510.234375 L 1104.230469 510.234375 L 1086.3125 457.371094 L 1080.328125 457.371094 L 1062.449219 510.234375 L 1069.613281 510.234375 L 1073.921875 496.402344 L 1092.679688 496.402344 Z M 1083.304688 466.671875 L 1090.886719 490.703125 L 1075.753906 490.703125 Z M 1121.472656 510.234375 C 1128.386719 510.234375 1133.660156 508.328125 1137.292969 504.519531 C 1140.925781 500.707031 1142.742188 495.304688 1142.742188 488.304688 L 1142.742188 479.449219 C 1142.742188 472.453125 1140.949219 467.027344 1137.371094 463.164062 C 1133.785156 459.304688 1128.75 457.371094 1122.269531 457.371094 L 1109.042969 457.371094 L 1109.042969 510.234375 Z M 1122.269531 463.078125 C 1126.820312 463.078125 1130.222656 464.375 1132.46875 466.976562 C 1134.71875 469.585938 1135.84375 473.675781 1135.84375 479.246094 L 1135.84375 488.617188 C 1135.792969 493.878906 1134.636719 497.84375 1132.375 500.519531 C 1130.113281 503.195312 1126.527344 504.535156 1121.625 504.535156 L 1116.019531 504.535156 L 1116.019531 463.078125 Z M 1176.605469 481.191406 L 1157.851562 481.191406 L 1157.851562 463.078125 L 1179.773438 463.078125 L 1179.773438 457.371094 L 1150.875 457.371094 L 1150.875 510.234375 L 1157.851562 510.234375 L 1157.851562 486.890625 L 1176.605469 486.890625 Z M 1193.324219 457.371094 L 1186.351562 457.371094 L 1186.351562 510.234375 L 1193.324219 510.234375 Z M 1240.25 457.371094 L 1233.316406 457.371094 L 1233.316406 498.292969 L 1211.011719 457.371094 L 1204 457.371094 L 1204 510.234375 L 1211.011719 510.234375 L 1211.011719 469.5 L 1233.238281 510.234375 L 1240.25 510.234375 Z M 1263.207031 510.234375 C 1270.117188 510.234375 1275.390625 508.328125 1279.023438 504.519531 C 1282.65625 500.707031 1284.472656 495.304688 1284.472656 488.304688 L 1284.472656 479.449219 C 1284.472656 472.453125 1282.6875 467.027344 1279.101562 463.164062 C 1275.515625 459.304688 1270.488281 457.371094 1264.007812 457.371094 L 1250.777344 457.371094 L 1250.777344 510.234375 Z M 1264.007812 463.078125 C 1268.554688 463.078125 1271.953125 464.375 1274.203125 466.976562 C 1276.449219 469.585938 1277.578125 473.675781 1277.578125 479.246094 L 1277.578125 488.617188 C 1277.523438 493.878906 1276.367188 497.84375 1274.105469 500.519531 C 1271.84375 503.195312 1268.261719 504.535156 1263.355469 504.535156 L 1257.753906 504.535156 L 1257.753906 463.078125 Z M 1320.390625 480.101562 L 1300.757812 480.101562 L 1300.757812 463.078125 L 1323.246094 463.078125 L 1323.246094 457.371094 L 1293.777344 457.371094 L 1293.777344 510.234375 L 1323.625 510.234375 L 1323.625 504.535156 L 1300.757812 504.535156 L 1300.757812 485.800781 L 1320.390625 485.800781 Z M 1359.003906 510.234375 L 1366.515625 510.234375 L 1366.515625 509.800781 L 1355.765625 487.328125 C 1358.535156 486.09375 1360.675781 484.257812 1362.1875 481.824219 C 1363.699219 479.394531 1364.453125 476.546875 1364.453125 473.277344 C 1364.453125 468.074219 1363.058594 464.121094 1360.265625 461.421875 C 1357.464844 458.726562 1353.351562 457.371094 1347.914062 457.371094 L 1332.359375 457.371094 L 1332.359375 510.234375 L 1339.371094 510.234375 L 1339.371094 488.851562 L 1349.128906 488.851562 Z M 1339.371094 463.078125 L 1347.757812 463.078125 C 1354.214844 463.078125 1357.441406 466.472656 1357.441406 473.257812 C 1357.441406 476.265625 1356.574219 478.664062 1354.828125 480.460938 C 1353.089844 482.253906 1350.757812 483.152344 1347.835938 483.152344 L 1339.371094 483.152344 Z M 1339.371094 463.078125 "/>
<path style=" stroke:none;fill-rule:nonzero;fill:rgb(11.399841%,11.399841%,10.598755%);fill-opacity:1;" d="M 746.6875 324.699219 C 746.6875 324.699219 749.339844 328.003906 759.046875 337.398438 C 760.988281 332.414062 773.167969 300.125 774.828125 294.058594 C 776.492188 287.972656 779.8125 268.394531 773.734375 247.144531 C 767.636719 225.878906 746.6875 198.023438 746.6875 198.023438 L 746.46875 198.023438 C 746.46875 198.023438 725.542969 225.878906 719.46875 247.144531 C 713.355469 268.394531 716.679688 287.972656 718.347656 294.058594 C 720 300.125 732.1875 332.414062 734.136719 337.398438 C 743.832031 328.003906 746.46875 324.699219 746.46875 324.699219 Z M 746.6875 470.632812 C 748.808594 466.75 757.1875 461.359375 761.75 452.105469 C 746.117188 425.195312 750.289062 393.601562 750.289062 393.601562 L 765.417969 392.496094 L 768.171875 388.363281 L 764.046875 383.445312 L 751.113281 383.160156 C 751.398438 369.75 756.902344 346.988281 756.902344 346.988281 L 746.6875 336.847656 L 746.46875 336.847656 L 736.277344 346.988281 C 736.277344 346.988281 741.785156 369.75 742.046875 383.160156 L 729.121094 383.445312 L 725.003906 388.363281 L 727.753906 392.496094 L 742.871094 393.601562 C 742.871094 393.601562 747.058594 425.195312 731.417969 452.105469 C 735.96875 461.359375 744.375 466.75 746.46875 470.632812 Z M 665.3125 448.703125 C 668.335938 455.816406 683.351562 474.171875 704.371094 464.03125 C 738.480469 447.601562 734.359375 400.992188 734.359375 400.992188 C 734.359375 400.992188 732.703125 401.28125 728.03125 401.28125 C 722.796875 423.730469 710.695312 436.632812 695.566406 436.339844 C 680.445312 436.082031 671.910156 422.925781 672.183594 406.476562 C 657.339844 423.195312 662.277344 441.5625 665.3125 448.703125 M 672.144531 323.214844 C 715.574219 324.199219 728.960938 375.550781 728.960938 375.550781 C 728.960938 375.550781 730.914062 375.425781 732.984375 375.425781 C 730.234375 355.28125 720.820312 315.757812 699.601562 295.851562 C 678.386719 275.96875 655.953125 279.078125 636.417969 288.066406 C 615.515625 297.652344 608.757812 326.933594 620.730469 346.085938 C 632.710938 365.222656 642.398438 369.40625 656.890625 372.875 C 655.171875 370.746094 646.449219 359.261719 648.1875 346.085938 C 648.457031 335.207031 658.660156 322.90625 672.144531 323.214844 M 746.6875 185.546875 C 746.6875 185.546875 759.445312 200.480469 774.265625 226.480469 C 788.410156 251.273438 785.386719 281.871094 785.386719 285.484375 C 785.386719 289.082031 784.363281 290.113281 785.128906 290.882812 C 785.914062 291.65625 785.914062 290.632812 789.269531 287.542969 C 810.210938 267.1875 842.214844 272.558594 853.167969 277.082031 C 865.332031 282.097656 885.269531 295.429688 885.90625 320.949219 C 887.15625 370.660156 841.234375 382.292969 831.40625 381.828125 C 819.863281 381.265625 826.519531 371.214844 828.144531 369.035156 C 832.878906 362.667969 837.457031 354.191406 835.949219 344.511719 C 834.824219 337.324219 825.953125 329.289062 812.292969 333.203125 C 776.851562 343.355469 773.238281 379.003906 773.238281 379.003906 L 778.929688 388.78125 C 778.929688 388.78125 775.832031 392.386719 773.238281 396.503906 C 776.332031 416.097656 786.175781 429.484375 800.640625 427.175781 C 815.121094 424.839844 811.246094 402.683594 810.730469 398.84375 C 810.210938 394.960938 812.960938 384.910156 827.441406 392.113281 C 874.746094 416.394531 897.074219 381.941406 893.191406 357.867188 C 888.46875 328.578125 893.277344 307.355469 894.054688 297.890625 C 894.972656 286.660156 892.316406 270.542969 879.746094 262.042969 C 858.820312 247.863281 844.332031 255.597656 827.789062 261.773438 C 811.246094 267.960938 811.246094 251.734375 813.316406 246.578125 C 815.382812 241.429688 819.523438 227.523438 820.023438 216.433594 C 820.542969 205.355469 814.085938 193.253906 803.492188 185.273438 C 792.890625 177.289062 775.832031 178.058594 770.140625 179.601562 C 764.449219 181.15625 746.6875 181.945312 746.6875 181.945312 L 746.46875 181.945312 C 746.46875 181.945312 728.730469 181.15625 723.03125 179.601562 C 717.347656 178.058594 700.285156 177.289062 689.691406 185.273438 C 679.089844 193.253906 672.621094 205.355469 673.140625 216.433594 C 673.65625 227.523438 677.800781 241.429688 679.855469 246.578125 C 681.941406 251.734375 681.941406 267.960938 665.382812 261.773438 C 648.832031 255.597656 634.363281 247.863281 613.425781 262.042969 C 600.855469 270.542969 598.199219 286.660156 599.121094 297.890625 C 599.902344 307.355469 604.703125 328.578125 599.984375 357.867188 C 596.109375 381.941406 618.433594 416.394531 665.746094 392.113281 C 680.226562 384.910156 682.972656 394.960938 682.453125 398.84375 C 681.941406 402.683594 678.046875 424.839844 692.527344 427.175781 C 707.007812 429.484375 716.832031 416.097656 719.929688 396.503906 C 717.347656 392.386719 714.25 388.78125 714.25 388.78125 L 719.929688 379.003906 C 719.929688 379.003906 716.316406 343.355469 680.882812 333.203125 C 667.226562 329.289062 658.347656 337.324219 657.222656 344.511719 C 655.710938 354.191406 660.300781 362.667969 665.039062 369.035156 C 666.667969 371.214844 673.316406 381.265625 661.757812 381.828125 C 651.941406 382.292969 606.023438 370.660156 607.269531 320.949219 C 607.902344 295.429688 627.847656 282.097656 640.003906 277.082031 C 650.964844 272.558594 682.972656 267.1875 703.902344 287.542969 C 707.261719 290.632812 707.261719 291.65625 708.039062 290.882812 C 708.8125 290.113281 707.78125 289.082031 707.78125 285.484375 C 707.78125 281.871094 704.773438 251.273438 718.898438 226.480469 C 733.707031 200.480469 746.46875 185.546875 746.46875 185.546875 Z M 746.46875 485.789062 C 741.167969 476.671875 729.714844 466.65625 725.441406 459.484375 C 713.917969 470.351562 701.246094 477.1875 683.574219 473.226562 C 665.910156 469.277344 639.398438 441.085938 662.816406 403.667969 C 631.902344 411.167969 618.199219 407 608.484375 399.71875 C 598.75 392.460938 588.246094 379.003906 590.898438 357.523438 C 593.777344 334.09375 594.371094 328.703125 590.234375 297.363281 C 586.492188 268.988281 615.242188 229.945312 666.90625 252.953125 C 670.554688 254.710938 672.597656 254.246094 671.722656 250.730469 C 670.835938 247.207031 662.039062 226.476562 664.367188 212.617188 C 666.796875 198.09375 673.203125 180.476562 700.8125 171.683594 C 715.332031 167.050781 730.078125 173.921875 746.46875 173.683594 L 746.6875 173.683594 C 763.101562 173.921875 777.851562 167.050781 792.371094 171.683594 C 819.96875 180.476562 826.382812 198.09375 828.808594 212.617188 C 831.117188 226.476562 822.339844 247.207031 821.453125 250.730469 C 820.574219 254.246094 822.613281 254.710938 826.277344 252.953125 C 877.933594 229.945312 906.683594 268.988281 902.929688 297.363281 C 898.808594 328.703125 899.394531 334.09375 902.269531 357.523438 C 904.921875 379.003906 894.425781 392.460938 884.6875 399.71875 C 874.96875 407 861.265625 411.167969 830.355469 403.667969 C 853.769531 441.085938 827.265625 469.277344 809.597656 473.226562 C 791.9375 477.1875 779.257812 470.351562 767.726562 459.484375 C 763.464844 466.65625 752.011719 476.671875 746.6875 485.789062 Z M 820.980469 406.476562 C 821.265625 422.925781 812.738281 436.082031 797.613281 436.339844 C 782.480469 436.632812 770.363281 423.730469 765.144531 401.28125 C 760.472656 401.28125 758.824219 400.992188 758.824219 400.992188 C 758.824219 400.992188 754.699219 447.601562 788.804688 464.03125 C 809.8125 474.171875 824.84375 455.816406 827.863281 448.703125 C 830.894531 441.5625 835.84375 423.195312 820.980469 406.476562 M 844.992188 346.085938 C 846.730469 359.261719 837.996094 370.746094 836.304688 372.875 C 850.777344 369.40625 860.457031 365.222656 872.425781 346.085938 C 884.414062 326.933594 877.65625 297.652344 856.75 288.066406 C 837.230469 279.078125 814.792969 275.96875 793.578125 295.851562 C 772.359375 315.757812 762.9375 355.28125 760.1875 375.425781 C 762.257812 375.425781 764.21875 375.550781 764.21875 375.550781 C 764.21875 375.550781 777.609375 324.199219 821.023438 323.214844 C 834.527344 322.90625 844.714844 335.207031 844.992188 346.085938 "/>
<path style=" stroke:none;fill-rule:nonzero;fill:rgb(11.399841%,11.399841%,10.598755%);fill-opacity:1;" d="M 383.046875 376.859375 C 392.019531 376.859375 397.816406 374.414062 403.921875 371.273438 C 404.914062 370.765625 405.792969 369.980469 405.792969 369.980469 C 408.894531 367.726562 408.808594 363.328125 407.128906 361.4375 C 407.128906 361.4375 405.933594 360.148438 405.171875 359.414062 C 404.648438 358.90625 403.257812 357.703125 402.710938 357.179688 C 401.976562 356.480469 400.582031 355.582031 397.789062 356.035156 C 395.503906 356.40625 393.148438 358.023438 391.515625 358.660156 C 388.996094 359.640625 385.984375 360.402344 382.863281 360.402344 C 376.074219 360.402344 370.886719 357.960938 367.296875 353.066406 C 363.707031 348.179688 361.910156 340.753906 361.910156 330.808594 L 361.910156 327.496094 C 361.96875 317.660156 363.800781 310.324219 367.421875 305.488281 C 371.042969 300.65625 376.1875 298.238281 382.863281 298.238281 C 385.683594 298.238281 388.175781 298.746094 390.457031 299.726562 C 391.933594 300.363281 395.417969 302.09375 397.519531 302.09375 C 399.847656 302.09375 401.542969 300.503906 401.777344 300.253906 C 402.273438 299.738281 403.121094 298.84375 403.59375 298.328125 C 404.289062 297.574219 406.003906 295.699219 406.003906 295.699219 C 407.519531 293.808594 408.253906 290.410156 404.902344 287.878906 C 404.902344 287.878906 404.058594 287.070312 402.597656 286.253906 C 397.058594 283.160156 390.738281 281.695312 383.027344 281.695312 C 370.136719 281.695312 359.964844 285.894531 352.5 294.292969 C 345.03125 302.691406 341.300781 313.875 341.300781 327.835938 L 341.300781 329.957031 C 341.300781 344.597656 345.058594 356.082031 352.582031 364.394531 C 360.105469 372.703125 370.277344 376.859375 383.117188 376.859375 Z M 494.050781 294.425781 C 500.414062 302.769531 503.59375 314.34375 503.59375 329.160156 L 503.59375 330.429688 C 503.59375 344.628906 500.371094 355.949219 493.925781 364.402344 C 487.484375 372.855469 478.828125 377.078125 467.972656 377.078125 C 457.90625 377.078125 449.847656 373.773438 443.804688 367.15625 L 443.804688 403.265625 L 442.246094 287.945312 L 443.804688 403.765625 L 443.78125 404.152344 C 443.78125 407.683594 441.25 410.644531 437.625 410.644531 L 429.371094 410.664062 C 425.734375 410.664062 423.128906 407.707031 423.128906 403.921875 L 423.1875 288.609375 C 423.1875 285.730469 425.230469 283.613281 428.183594 283.613281 C 428.183594 283.613281 438.019531 283.605469 438.074219 283.605469 C 440.609375 283.605469 442.460938 285.398438 442.648438 288.527344 L 443.035156 292.941406 C 449.085938 285.59375 457.316406 281.921875 467.71875 281.921875 C 478.914062 281.921875 487.691406 286.085938 494.050781 294.425781 M 477.515625 352.695312 C 481.21875 347.40625 483.066406 339.390625 483.066406 328.648438 C 483.066406 319.492188 481.246094 312.222656 477.597656 306.851562 C 473.957031 301.480469 468.734375 298.796875 461.953125 298.796875 C 453.527344 298.796875 447.476562 302.269531 443.804688 309.226562 L 443.804688 349.9375 C 447.527344 357.0625 453.640625 360.625 462.121094 360.625 C 468.679688 360.625 473.808594 357.984375 477.515625 352.695312 M 296.085938 346.066406 C 296.4375 344.878906 313.238281 289.121094 313.691406 287.753906 C 314.292969 285.914062 315.183594 282.191406 320.113281 282.191406 L 330.394531 282.191406 C 335.066406 282.191406 336.023438 285.820312 334.964844 288.839844 L 305.820312 371.722656 C 305.105469 373.695312 302.726562 375.773438 300.191406 375.773438 L 290.285156 375.773438 C 287.746094 375.773438 285.371094 373.695312 284.652344 371.722656 L 255.507812 288.839844 C 254.445312 285.820312 255.410156 282.191406 260.078125 282.191406 L 270.359375 282.191406 C 275.292969 282.191406 276.179688 285.914062 276.785156 287.753906 C 277.234375 289.121094 294.039062 344.886719 294.386719 346.066406 C 294.734375 347.242188 295.734375 347.25 296.085938 346.066406 "/>
</g>
</svg>
