<?xml version="1.0" encoding="UTF-8"?>
<svg xmlns="http://www.w3.org/2000/svg" xmlns:xlink="http://www.w3.org/1999/xlink" width="1159.37pt" height="765.35pt" viewBox="0 0 1159.37 765.35" version="1.1">
<g id="surface1">
<path style=" stroke:none;fill-rule:nonzero;fill:rgb(0%,25.881958%,52.940369%);fill-opacity:1;" d="M 746.6875 324.699219 C 746.6875 324.699219 749.339844 328.003906 759.046875 337.398438 C 760.988281 332.414062 773.167969 300.125 774.828125 294.058594 C 776.492188 287.972656 779.8125 268.394531 773.734375 247.144531 C 767.636719 225.878906 746.6875 198.023438 746.6875 198.023438 L 746.46875 198.023438 C 746.46875 198.023438 725.542969 225.878906 719.46875 247.144531 C 713.355469 268.394531 716.679688 287.972656 718.347656 294.058594 C 720 300.125 732.1875 332.414062 734.136719 337.398438 C 743.832031 328.003906 746.46875 324.699219 746.46875 324.699219 Z M 746.6875 470.632812 C 748.808594 466.75 757.1875 461.359375 761.75 452.105469 C 746.117188 425.195312 750.289062 393.601562 750.289062 393.601562 L 765.417969 392.496094 L 768.171875 388.363281 L 764.046875 383.445312 L 751.113281 383.160156 C 751.398438 369.75 756.902344 346.988281 756.902344 346.988281 L 746.6875 336.847656 L 746.46875 336.847656 L 736.277344 346.988281 C 736.277344 346.988281 741.785156 369.75 742.046875 383.160156 L 729.121094 383.445312 L 725.003906 388.363281 L 727.753906 392.496094 L 742.871094 393.601562 C 742.871094 393.601562 747.058594 425.195312 731.417969 452.105469 C 735.96875 461.359375 744.375 466.75 746.46875 470.632812 Z M 665.3125 448.703125 C 668.335938 455.816406 683.351562 474.171875 704.371094 464.03125 C 738.480469 447.601562 734.359375 400.992188 734.359375 400.992188 C 734.359375 400.992188 732.703125 401.28125 728.03125 401.28125 C 722.796875 423.730469 710.695312 436.632812 695.566406 436.339844 C 680.445312 436.082031 671.910156 422.925781 672.183594 406.476562 C 657.339844 423.195312 662.277344 441.5625 665.3125 448.703125 M 672.144531 323.214844 C 715.574219 324.199219 728.960938 375.550781 728.960938 375.550781 C 728.960938 375.550781 730.914062 375.425781 732.984375 375.425781 C 730.234375 355.28125 720.820312 315.757812 699.601562 295.851562 C 678.386719 275.96875 655.953125 279.078125 636.417969 288.066406 C 615.515625 297.652344 608.757812 326.933594 620.730469 346.085938 C 632.710938 365.222656 642.398438 369.40625 656.890625 372.875 C 655.171875 370.746094 646.449219 359.261719 648.1875 346.085938 C 648.457031 335.207031 658.660156 322.90625 672.144531 323.214844 M 746.6875 185.546875 C 746.6875 185.546875 759.445312 200.480469 774.265625 226.480469 C 788.410156 251.273438 785.386719 281.871094 785.386719 285.484375 C 785.386719 289.082031 784.363281 290.113281 785.128906 290.882812 C 785.914062 291.65625 785.914062 290.632812 789.269531 287.542969 C 810.210938 267.1875 842.214844 272.558594 853.167969 277.082031 C 865.332031 282.097656 885.269531 295.429688 885.90625 320.949219 C 887.15625 370.660156 841.234375 382.292969 831.40625 381.828125 C 819.863281 381.265625 826.519531 371.214844 828.144531 369.035156 C 832.878906 362.667969 837.457031 354.191406 835.949219 344.511719 C 834.824219 337.324219 825.953125 329.289062 812.292969 333.203125 C 776.851562 343.355469 773.238281 379.003906 773.238281 379.003906 L 778.929688 388.78125 C 778.929688 388.78125 775.832031 392.386719 773.238281 396.503906 C 776.332031 416.097656 786.175781 429.484375 800.640625 427.175781 C 815.121094 424.839844 811.246094 402.683594 810.730469 398.84375 C 810.210938 394.960938 812.960938 384.910156 827.441406 392.113281 C 874.746094 416.394531 897.074219 381.941406 893.191406 357.867188 C 888.46875 328.578125 893.277344 307.355469 894.054688 297.890625 C 894.972656 286.660156 892.316406 270.542969 879.746094 262.042969 C 858.820312 247.863281 844.332031 255.597656 827.789062 261.773438 C 811.246094 267.960938 811.246094 251.734375 813.316406 246.578125 C 815.382812 241.429688 819.523438 227.523438 820.023438 216.433594 C 820.542969 205.355469 814.085938 193.253906 803.492188 185.273438 C 792.890625 177.289062 775.832031 178.058594 770.140625 179.601562 C 764.449219 181.15625 746.6875 181.945312 746.6875 181.945312 L 746.46875 181.945312 C 746.46875 181.945312 728.730469 181.15625 723.03125 179.601562 C 717.347656 178.058594 700.285156 177.289062 689.691406 185.273438 C 679.089844 193.253906 672.621094 205.355469 673.140625 216.433594 C 673.65625 227.523438 677.800781 241.429688 679.855469 246.578125 C 681.941406 251.734375 681.941406 267.960938 665.382812 261.773438 C 648.832031 255.597656 634.363281 247.863281 613.425781 262.042969 C 600.855469 270.542969 598.199219 286.660156 599.121094 297.890625 C 599.902344 307.355469 604.703125 328.578125 599.984375 357.867188 C 596.109375 381.941406 618.433594 416.394531 665.746094 392.113281 C 680.226562 384.910156 682.972656 394.960938 682.453125 398.84375 C 681.941406 402.683594 678.046875 424.839844 692.527344 427.175781 C 707.007812 429.484375 716.832031 416.097656 719.929688 396.503906 C 717.347656 392.386719 714.25 388.78125 714.25 388.78125 L 719.929688 379.003906 C 719.929688 379.003906 716.316406 343.355469 680.882812 333.203125 C 667.226562 329.289062 658.347656 337.324219 657.222656 344.511719 C 655.710938 354.191406 660.300781 362.667969 665.039062 369.035156 C 666.667969 371.214844 673.316406 381.265625 661.757812 381.828125 C 651.941406 382.292969 606.023438 370.660156 607.269531 320.949219 C 607.902344 295.429688 627.847656 282.097656 640.003906 277.082031 C 650.964844 272.558594 682.972656 267.1875 703.902344 287.542969 C 707.261719 290.632812 707.261719 291.65625 708.039062 290.882812 C 708.8125 290.113281 707.78125 289.082031 707.78125 285.484375 C 707.78125 281.871094 704.773438 251.273438 718.898438 226.480469 C 733.707031 200.480469 746.46875 185.546875 746.46875 185.546875 Z M 746.46875 485.789062 C 741.167969 476.671875 729.714844 466.65625 725.441406 459.484375 C 713.917969 470.351562 701.246094 477.1875 683.574219 473.226562 C 665.910156 469.277344 639.398438 441.085938 662.816406 403.667969 C 631.902344 411.167969 618.199219 407 608.484375 399.71875 C 598.75 392.460938 588.246094 379.003906 590.898438 357.523438 C 593.777344 334.09375 594.371094 328.703125 590.234375 297.363281 C 586.492188 268.988281 615.242188 229.945312 666.90625 252.953125 C 670.554688 254.710938 672.597656 254.246094 671.722656 250.730469 C 670.835938 247.207031 662.039062 226.476562 664.367188 212.617188 C 666.796875 198.09375 673.203125 180.476562 700.8125 171.683594 C 715.332031 167.050781 730.078125 173.921875 746.46875 173.683594 L 746.6875 173.683594 C 763.101562 173.921875 777.851562 167.050781 792.371094 171.683594 C 819.96875 180.476562 826.382812 198.09375 828.808594 212.617188 C 831.117188 226.476562 822.339844 247.207031 821.453125 250.730469 C 820.574219 254.246094 822.613281 254.710938 826.277344 252.953125 C 877.933594 229.945312 906.683594 268.988281 902.929688 297.363281 C 898.808594 328.703125 899.394531 334.09375 902.269531 357.523438 C 904.921875 379.003906 894.425781 392.460938 884.6875 399.71875 C 874.96875 407 861.265625 411.167969 830.355469 403.667969 C 853.769531 441.085938 827.265625 469.277344 809.597656 473.226562 C 791.9375 477.1875 779.257812 470.351562 767.726562 459.484375 C 763.464844 466.65625 752.011719 476.671875 746.6875 485.789062 Z M 820.980469 406.476562 C 821.265625 422.925781 812.738281 436.082031 797.613281 436.339844 C 782.480469 436.632812 770.363281 423.730469 765.144531 401.28125 C 760.472656 401.28125 758.824219 400.992188 758.824219 400.992188 C 758.824219 400.992188 754.699219 447.601562 788.804688 464.03125 C 809.8125 474.171875 824.84375 455.816406 827.863281 448.703125 C 830.894531 441.5625 835.84375 423.195312 820.980469 406.476562 M 844.992188 346.085938 C 846.730469 359.261719 837.996094 370.746094 836.304688 372.875 C 850.777344 369.40625 860.457031 365.222656 872.425781 346.085938 C 884.414062 326.933594 877.65625 297.652344 856.75 288.066406 C 837.230469 279.078125 814.792969 275.96875 793.578125 295.851562 C 772.359375 315.757812 762.9375 355.28125 760.1875 375.425781 C 762.257812 375.425781 764.21875 375.550781 764.21875 375.550781 C 764.21875 375.550781 777.609375 324.199219 821.023438 323.214844 C 834.527344 322.90625 844.714844 335.207031 844.992188 346.085938 "/>
<path style=" stroke:none;fill-rule:nonzero;fill:rgb(0%,25.881958%,52.940369%);fill-opacity:1;" d="M 477.515625 352.695312 C 473.808594 357.984375 468.679688 360.625 462.121094 360.625 C 453.636719 360.625 447.53125 357.0625 443.804688 349.9375 L 443.804688 309.226562 C 447.476562 302.269531 453.527344 298.796875 461.953125 298.796875 C 468.734375 298.796875 473.957031 301.480469 477.597656 306.851562 C 481.246094 312.222656 483.070312 319.492188 483.070312 328.648438 C 483.070312 339.390625 481.21875 347.40625 477.515625 352.695312 M 494.050781 294.425781 C 487.695312 286.085938 478.914062 281.921875 467.71875 281.921875 C 457.316406 281.921875 449.085938 285.59375 443.035156 292.941406 L 442.652344 288.527344 C 442.460938 285.398438 440.609375 283.605469 438.074219 283.605469 C 438.019531 283.605469 428.183594 283.613281 428.183594 283.613281 C 425.230469 283.613281 423.1875 285.730469 423.1875 288.613281 L 423.128906 403.921875 C 423.128906 407.707031 425.734375 410.664062 429.371094 410.664062 L 437.625 410.648438 C 441.25 410.648438 443.785156 407.679688 443.785156 404.152344 L 443.804688 403.765625 L 443.804688 367.15625 C 449.847656 373.773438 457.90625 377.082031 467.972656 377.082031 C 478.828125 377.082031 487.484375 372.855469 493.925781 364.402344 C 500.371094 355.949219 503.59375 344.628906 503.59375 330.429688 L 503.59375 329.160156 C 503.59375 314.34375 500.414062 302.769531 494.050781 294.425781 M 383.046875 376.859375 C 392.019531 376.859375 397.816406 374.414062 403.921875 371.273438 C 404.914062 370.765625 405.792969 369.980469 405.792969 369.980469 C 408.894531 367.726562 408.808594 363.328125 407.128906 361.4375 C 407.128906 361.4375 405.933594 360.148438 405.171875 359.417969 C 404.648438 358.910156 403.257812 357.703125 402.710938 357.179688 C 401.976562 356.480469 400.582031 355.582031 397.789062 356.035156 C 395.5 356.40625 393.148438 358.023438 391.515625 358.660156 C 388.996094 359.640625 385.984375 360.402344 382.863281 360.402344 C 376.074219 360.402344 370.886719 357.960938 367.296875 353.066406 C 363.707031 348.179688 361.910156 340.753906 361.910156 330.808594 L 361.910156 327.496094 C 361.96875 317.660156 363.800781 310.324219 367.421875 305.488281 C 371.042969 300.65625 376.1875 298.238281 382.863281 298.238281 C 385.683594 298.238281 388.175781 298.746094 390.457031 299.726562 C 391.929688 300.363281 395.417969 302.09375 397.519531 302.09375 C 399.847656 302.09375 401.542969 300.503906 401.777344 300.253906 C 402.277344 299.738281 403.121094 298.84375 403.59375 298.332031 C 404.289062 297.574219 406 295.699219 406 295.699219 C 407.519531 293.808594 408.253906 290.410156 404.902344 287.878906 C 404.902344 287.878906 404.058594 287.070312 402.597656 286.253906 C 397.058594 283.160156 390.742188 281.695312 383.027344 281.695312 C 370.136719 281.695312 359.960938 285.898438 352.5 294.292969 C 345.035156 302.691406 341.300781 313.875 341.300781 327.835938 L 341.300781 329.957031 C 341.300781 344.597656 345.058594 356.082031 352.582031 364.390625 C 360.105469 372.703125 370.277344 376.859375 383.117188 376.859375 Z M 296.085938 346.066406 C 296.4375 344.878906 313.238281 289.121094 313.691406 287.753906 C 314.292969 285.917969 315.179688 282.191406 320.113281 282.191406 L 330.394531 282.191406 C 335.070312 282.191406 336.027344 285.820312 334.964844 288.839844 L 305.820312 371.722656 C 305.105469 373.695312 302.726562 375.773438 300.195312 375.773438 L 290.285156 375.773438 C 287.746094 375.773438 285.371094 373.695312 284.652344 371.722656 L 255.507812 288.839844 C 254.449219 285.820312 255.410156 282.191406 260.078125 282.191406 L 270.359375 282.191406 C 275.292969 282.191406 276.179688 285.917969 276.785156 287.753906 C 277.234375 289.121094 294.039062 344.886719 294.386719 346.066406 C 294.734375 347.242188 295.734375 347.25 296.085938 346.066406 "/>
</g>
</svg>
