<?xml version="1.0" encoding="UTF-8"?>
<svg xmlns="http://www.w3.org/2000/svg" xmlns:xlink="http://www.w3.org/1999/xlink" width="283.46pt" height="283.46pt" viewBox="0 0 283.46 283.46" version="1.1">
<g id="surface1">
<path style=" stroke:none;fill-rule:nonzero;fill:rgb(11.399841%,11.399841%,10.598755%);fill-opacity:1;" d="M 201.269531 153.09375 C 202.238281 160.4375 197.339844 166.851562 196.386719 168.042969 C 204.507812 166.097656 209.953125 163.777344 216.675781 153.09375 C 223.398438 142.402344 219.613281 126.0625 207.875 120.703125 C 196.902344 115.703125 184.304688 113.960938 172.390625 125.0625 C 160.480469 136.164062 155.1875 158.226562 153.652344 169.460938 C 154.8125 169.460938 155.898438 169.53125 155.898438 169.53125 C 155.898438 169.53125 163.417969 140.875 187.8125 140.320312 C 195.382812 140.152344 201.109375 147.019531 201.269531 153.09375 M 187.789062 186.789062 C 187.945312 195.96875 183.15625 203.3125 174.667969 203.453125 C 166.164062 203.609375 159.371094 196.414062 156.433594 183.878906 C 153.804688 183.878906 152.875 183.722656 152.875 183.722656 C 152.875 183.722656 150.566406 209.726562 169.710938 218.90625 C 181.507812 224.554688 189.953125 214.316406 191.644531 210.339844 C 193.347656 206.363281 196.128906 196.113281 187.789062 186.789062 M 145.949219 231.042969 C 142.972656 225.949219 136.539062 220.363281 134.136719 216.371094 C 127.664062 222.425781 120.550781 226.25 110.628906 224.027344 C 100.707031 221.828125 85.820312 206.097656 98.96875 185.226562 C 81.609375 189.394531 73.917969 187.066406 68.464844 183.015625 C 63 178.964844 57.097656 171.453125 58.589844 159.460938 C 60.210938 146.398438 60.535156 143.390625 58.214844 125.90625 C 56.113281 110.070312 72.253906 88.277344 101.269531 101.117188 C 103.320312 102.105469 104.460938 101.84375 103.972656 99.878906 C 103.46875 97.914062 98.542969 86.339844 99.839844 78.613281 C 101.207031 70.511719 104.800781 60.679688 120.308594 55.773438 C 128.453125 53.195312 136.738281 57.023438 145.949219 56.894531 L 146.070312 56.894531 C 155.285156 57.023438 163.5625 53.195312 171.714844 55.773438 C 187.21875 60.679688 190.8125 70.511719 192.175781 78.613281 C 193.484375 86.339844 188.546875 97.914062 188.050781 99.878906 C 187.554688 101.84375 188.707031 102.105469 190.75 101.117188 C 219.757812 88.277344 235.902344 110.070312 233.8125 125.90625 C 231.484375 143.390625 231.816406 146.398438 233.433594 159.460938 C 234.921875 171.453125 229.023438 178.964844 223.554688 183.015625 C 218.097656 187.066406 210.410156 189.394531 193.046875 185.226562 C 206.203125 206.097656 191.316406 221.828125 181.390625 224.027344 C 171.476562 226.25 164.351562 222.425781 157.878906 216.371094 C 155.488281 220.363281 149.058594 225.949219 146.070312 231.042969 Z M 146.070312 63.511719 C 146.070312 63.511719 153.222656 71.835938 161.558594 86.347656 C 169.488281 100.183594 167.800781 117.257812 167.800781 119.273438 C 167.800781 121.28125 167.214844 121.855469 167.65625 122.289062 C 168.089844 122.71875 168.089844 122.148438 169.972656 120.417969 C 181.738281 109.0625 199.707031 112.0625 205.859375 114.585938 C 212.699219 117.378906 223.878906 124.820312 224.246094 139.054688 C 224.941406 166.804688 199.148438 173.292969 193.640625 173.03125 C 187.15625 172.730469 190.882812 167.117188 191.8125 165.890625 C 194.464844 162.335938 197.023438 157.613281 196.1875 152.21875 C 195.5625 148.199219 190.578125 143.714844 182.910156 145.898438 C 163.011719 151.570312 160.980469 171.445312 160.980469 171.445312 L 164.171875 176.910156 C 164.171875 176.910156 162.429688 178.929688 160.980469 181.222656 C 162.703125 192.148438 168.230469 199.632812 176.375 198.335938 C 184.496094 197.039062 182.308594 184.671875 182.019531 182.523438 C 181.738281 180.359375 183.277344 174.746094 191.410156 178.773438 C 217.96875 192.328125 230.507812 173.089844 228.332031 159.65625 C 225.679688 143.316406 228.378906 131.476562 228.8125 126.199219 C 229.335938 119.929688 227.84375 110.9375 220.785156 106.1875 C 209.035156 98.28125 200.894531 102.59375 191.609375 106.042969 C 182.308594 109.492188 182.308594 100.441406 183.480469 97.566406 C 184.640625 94.691406 186.964844 86.929688 187.242188 80.746094 C 187.542969 74.558594 183.90625 67.804688 177.953125 63.355469 C 172.019531 58.894531 162.429688 59.328125 159.238281 60.195312 C 156.042969 61.058594 146.070312 61.503906 146.070312 61.503906 L 145.949219 61.503906 C 145.949219 61.503906 135.976562 61.058594 132.78125 60.195312 C 129.59375 59.328125 120.011719 58.894531 114.058594 63.355469 C 108.113281 67.804688 104.480469 74.558594 104.769531 80.746094 C 105.0625 86.929688 107.386719 94.691406 108.542969 97.566406 C 109.707031 100.441406 109.707031 109.492188 100.414062 106.042969 C 91.121094 102.59375 82.988281 98.28125 71.238281 106.1875 C 64.175781 110.9375 62.683594 119.929688 63.207031 126.199219 C 63.644531 131.476562 66.335938 143.316406 63.691406 159.65625 C 61.507812 173.089844 74.046875 192.328125 100.609375 178.773438 C 108.738281 174.746094 110.289062 180.359375 110 182.523438 C 109.707031 184.671875 107.527344 197.039062 115.652344 198.335938 C 123.785156 199.632812 129.300781 192.148438 131.046875 181.222656 C 129.59375 178.929688 127.847656 176.910156 127.847656 176.910156 L 131.046875 171.445312 C 131.046875 171.445312 129.019531 151.570312 109.113281 145.898438 C 101.445312 143.714844 96.460938 148.199219 95.832031 152.21875 C 94.980469 157.613281 97.558594 162.335938 100.214844 165.890625 C 101.132812 167.117188 104.863281 172.730469 98.375 173.03125 C 92.867188 173.292969 67.082031 166.804688 67.773438 139.054688 C 68.136719 124.820312 79.335938 117.378906 86.160156 114.585938 C 92.3125 112.0625 110.289062 109.0625 122.042969 120.417969 C 123.929688 122.148438 123.929688 122.71875 124.367188 122.289062 C 124.800781 121.855469 124.21875 121.28125 124.21875 119.273438 C 124.21875 117.257812 122.527344 100.183594 130.460938 86.347656 C 138.785156 71.835938 145.949219 63.511719 145.949219 63.511719 Z M 104.210938 140.320312 C 128.59375 140.875 136.113281 169.53125 136.113281 169.53125 C 136.113281 169.53125 137.207031 169.460938 138.371094 169.460938 C 136.832031 158.226562 131.539062 136.164062 119.625 125.0625 C 107.714844 113.960938 95.121094 115.703125 84.152344 120.703125 C 72.414062 126.0625 68.613281 142.402344 75.339844 153.09375 C 82.070312 163.777344 87.507812 166.097656 95.644531 168.042969 C 94.675781 166.851562 89.785156 160.4375 90.753906 153.09375 C 90.917969 147.019531 96.636719 140.152344 104.210938 140.320312 M 100.375 210.339844 C 102.070312 214.316406 110.503906 224.554688 122.304688 218.90625 C 141.457031 209.726562 139.144531 183.722656 139.144531 183.722656 C 139.144531 183.722656 138.214844 183.878906 135.589844 183.878906 C 132.648438 196.414062 125.855469 203.609375 117.363281 203.453125 C 108.867188 203.3125 104.074219 195.96875 104.234375 186.789062 C 95.890625 196.113281 98.675781 206.363281 100.375 210.339844 M 146.070312 222.585938 C 147.25 220.410156 151.960938 217.40625 154.523438 212.25 C 145.742188 197.230469 148.089844 179.601562 148.089844 179.601562 L 156.589844 178.988281 L 158.136719 176.683594 L 155.8125 173.941406 L 148.550781 173.785156 C 148.707031 166.289062 151.800781 153.585938 151.800781 153.585938 L 146.070312 147.9375 L 145.949219 147.9375 L 140.222656 153.585938 C 140.222656 153.585938 143.3125 166.289062 143.464844 173.785156 L 136.203125 173.941406 L 133.890625 176.683594 L 135.4375 178.988281 L 143.929688 179.601562 C 143.929688 179.601562 146.273438 197.230469 137.492188 212.25 C 140.050781 217.40625 144.769531 220.410156 145.949219 222.585938 Z M 146.070312 141.160156 C 146.070312 141.160156 147.558594 142.996094 152.996094 148.238281 C 154.09375 145.457031 160.933594 127.445312 161.859375 124.058594 C 162.800781 120.664062 164.664062 109.738281 161.246094 97.875 C 157.832031 86.015625 146.070312 70.46875 146.070312 70.46875 L 145.949219 70.46875 C 145.949219 70.46875 134.195312 86.015625 130.773438 97.875 C 127.347656 109.738281 129.21875 120.664062 130.152344 124.058594 C 131.082031 127.445312 137.925781 145.457031 139.015625 148.238281 C 144.460938 142.996094 145.949219 141.160156 145.949219 141.160156 Z M 146.070312 141.160156 "/>
</g>
</svg>
