<?xml version="1.0" encoding="UTF-8"?>
<svg xmlns="http://www.w3.org/2000/svg" xmlns:xlink="http://www.w3.org/1999/xlink" width="2727.36" height="765.36" viewBox="0 0 2727.36 765.36">
<path fill-rule="nonzero" fill="rgb(0%, 25.881958%, 52.941895%)" fill-opacity="1" d="M 1110.011719 409.363281 C 1112.558594 428.734375 1099.71875 445.621094 1097.230469 448.753906 C 1118.511719 443.648438 1132.738281 437.5 1150.339844 409.363281 C 1167.960938 381.210938 1158.019531 338.160156 1127.289062 324.066406 C 1098.589844 310.855469 1065.609375 306.28125 1034.421875 335.511719 C 1003.21875 364.777344 989.371094 422.882812 985.328125 452.5 C 988.371094 452.5 991.253906 452.6875 991.253906 452.6875 C 991.253906 452.6875 1010.941406 377.191406 1074.769531 375.738281 C 1094.621094 375.289062 1109.601562 393.375 1110.011719 409.363281 M 1074.699219 498.148438 C 1075.121094 522.332031 1062.578125 541.675781 1040.351562 542.054688 C 1018.101562 542.484375 1000.289062 523.519531 992.617188 490.511719 C 985.742188 490.511719 983.324219 490.089844 983.324219 490.089844 C 983.324219 490.089844 977.257812 558.613281 1027.398438 582.765625 C 1058.28125 597.671875 1080.378906 570.6875 1084.820312 560.226562 C 1089.28125 549.730469 1096.550781 522.726562 1074.699219 498.148438 M 965.160156 614.753906 C 957.363281 601.347656 940.523438 586.621094 934.242188 576.078125 C 917.304688 592.058594 898.675781 602.109375 872.695312 596.285156 C 846.726562 590.476562 807.746094 549.035156 842.175781 494.023438 C 796.726562 505.050781 776.578125 498.917969 762.300781 488.214844 C 747.988281 477.542969 732.546875 457.761719 736.445312 426.179688 C 740.679688 391.738281 741.550781 383.8125 735.46875 337.738281 C 729.96875 296.023438 772.234375 238.617188 848.191406 272.441406 C 853.554688 275.027344 856.558594 274.347656 855.273438 269.175781 C 853.964844 264 841.03125 233.519531 844.460938 213.144531 C 848.027344 191.792969 857.445312 165.894531 898.035156 152.96875 C 919.378906 146.15625 941.0625 156.257812 965.160156 155.90625 L 965.484375 155.90625 C 989.613281 156.257812 1011.300781 146.15625 1032.640625 152.96875 C 1073.21875 165.894531 1082.640625 191.792969 1086.210938 213.144531 C 1089.609375 233.519531 1076.699219 264 1075.398438 269.175781 C 1074.109375 274.347656 1077.101562 275.027344 1082.488281 272.441406 C 1158.441406 238.617188 1200.699219 296.023438 1195.179688 337.738281 C 1189.121094 383.8125 1189.980469 391.738281 1194.210938 426.179688 C 1198.109375 457.761719 1182.679688 477.542969 1168.359375 488.214844 C 1154.078125 498.917969 1133.929688 505.050781 1088.488281 494.023438 C 1122.910156 549.035156 1083.941406 590.476562 1057.96875 596.285156 C 1032 602.109375 1013.371094 592.058594 996.414062 576.078125 C 990.144531 586.621094 973.308594 601.347656 965.484375 614.753906 Z M 965.484375 173.351562 C 965.484375 173.351562 984.234375 195.304688 1006.03125 233.53125 C 1026.820312 269.976562 1022.378906 314.964844 1022.378906 320.273438 C 1022.378906 325.5625 1020.871094 327.078125 1022 328.210938 C 1023.148438 329.347656 1023.148438 327.847656 1028.078125 323.300781 C 1058.871094 293.375 1105.921875 301.273438 1122.03125 307.921875 C 1139.898438 315.296875 1169.21875 334.898438 1170.148438 372.410156 C 1171.988281 445.496094 1104.480469 462.597656 1090.03125 461.914062 C 1073.058594 461.089844 1082.851562 446.316406 1085.238281 443.105469 C 1092.191406 433.75 1098.929688 421.285156 1096.710938 407.054688 C 1095.058594 396.484375 1082.011719 384.675781 1061.929688 390.425781 C 1009.828125 405.351562 1004.511719 457.765625 1004.511719 457.765625 L 1012.878906 472.140625 C 1012.878906 472.140625 1008.320312 477.441406 1004.511719 483.492188 C 1009.058594 512.296875 1023.53125 531.980469 1044.800781 528.582031 C 1066.089844 525.148438 1060.390625 492.574219 1059.628906 486.929688 C 1058.871094 481.222656 1062.910156 466.445312 1084.199219 477.035156 C 1153.75 512.734375 1186.570312 462.082031 1180.859375 426.691406 C 1173.921875 383.628906 1180.988281 352.429688 1182.140625 338.515625 C 1183.488281 322.003906 1179.578125 298.308594 1161.101562 285.8125 C 1130.328125 264.964844 1109.03125 276.339844 1084.710938 285.414062 C 1060.390625 294.511719 1060.390625 270.65625 1063.441406 263.078125 C 1066.46875 255.507812 1072.558594 235.058594 1073.289062 218.761719 C 1074.058594 202.472656 1064.570312 184.679688 1048.988281 172.945312 C 1033.398438 161.207031 1008.320312 162.34375 999.960938 164.609375 C 991.597656 166.894531 965.484375 168.058594 965.484375 168.058594 L 965.160156 168.058594 C 965.160156 168.058594 939.082031 166.894531 930.703125 164.609375 C 922.347656 162.34375 897.261719 161.207031 881.6875 172.945312 C 866.097656 184.679688 856.59375 202.472656 857.351562 218.761719 C 858.113281 235.058594 864.203125 255.507812 867.226562 263.078125 C 870.289062 270.65625 870.289062 294.511719 845.949219 285.414062 C 821.617188 276.339844 800.34375 264.964844 769.5625 285.8125 C 751.085938 298.308594 747.179688 322.003906 748.535156 338.515625 C 749.683594 352.429688 756.742188 383.628906 749.804688 426.691406 C 744.105469 462.082031 776.925781 512.734375 846.484375 477.035156 C 867.769531 466.445312 871.808594 481.222656 871.046875 486.929688 C 870.289062 492.574219 864.570312 525.148438 885.855469 528.582031 C 907.144531 531.980469 921.585938 512.296875 926.144531 483.492188 C 922.347656 477.441406 917.792969 472.140625 917.792969 472.140625 L 926.144531 457.765625 C 926.144531 457.765625 920.832031 405.351562 868.734375 390.425781 C 848.660156 384.675781 835.605469 396.484375 833.953125 407.054688 C 831.730469 421.285156 838.476562 433.75 845.441406 443.105469 C 847.839844 446.316406 857.613281 461.089844 840.617188 461.914062 C 826.1875 462.597656 758.679688 445.496094 760.511719 372.410156 C 761.445312 334.898438 790.765625 315.296875 808.636719 307.921875 C 824.75 301.273438 871.808594 293.375 902.578125 323.300781 C 907.519531 327.847656 907.519531 329.347656 908.660156 328.210938 C 909.796875 327.078125 908.28125 325.5625 908.28125 320.273438 C 908.28125 314.964844 903.859375 269.976562 924.628906 233.53125 C 946.398438 195.304688 965.160156 173.351562 965.160156 173.351562 Z M 855.890625 375.746094 C 919.738281 377.199219 939.417969 452.695312 939.417969 452.695312 C 939.417969 452.695312 942.292969 452.507812 945.335938 452.507812 C 941.292969 422.890625 927.449219 364.785156 896.253906 335.519531 C 865.066406 306.289062 832.085938 310.863281 803.367188 324.074219 C 772.636719 338.167969 762.699219 381.21875 780.304688 409.371094 C 797.917969 437.507812 812.15625 443.65625 833.464844 448.761719 C 830.9375 445.628906 818.113281 428.742188 820.671875 409.371094 C 821.066406 393.382812 836.066406 375.296875 855.890625 375.746094 M 845.84375 560.238281 C 850.289062 570.699219 872.367188 597.683594 903.269531 582.777344 C 953.414062 558.621094 947.355469 490.097656 947.355469 490.097656 C 947.355469 490.097656 944.917969 490.519531 938.054688 490.519531 C 930.359375 523.527344 912.566406 542.496094 890.324219 542.066406 C 868.09375 541.683594 855.542969 522.34375 855.945312 498.160156 C 834.125 522.738281 841.386719 549.742188 845.84375 560.238281 M 965.484375 592.484375 C 968.597656 586.773438 980.917969 578.847656 987.625 565.242188 C 964.644531 525.683594 970.773438 479.234375 970.773438 479.234375 L 993.015625 477.605469 L 997.066406 471.53125 L 991 464.300781 L 971.988281 463.882812 C 972.402344 444.167969 980.496094 410.703125 980.496094 410.703125 L 965.484375 395.796875 L 965.160156 395.796875 L 950.175781 410.703125 C 950.175781 410.703125 958.273438 444.167969 958.65625 463.882812 L 939.65625 464.300781 L 933.605469 471.53125 L 937.644531 477.605469 L 959.867188 479.234375 C 959.867188 479.234375 966.027344 525.683594 943.03125 565.242188 C 949.722656 578.847656 962.078125 586.773438 965.160156 592.484375 Z M 965.484375 377.925781 C 965.484375 377.925781 969.382812 382.789062 983.648438 396.597656 C 986.507812 389.269531 1004.410156 341.796875 1006.851562 332.878906 C 1009.300781 323.933594 1014.179688 295.148438 1005.238281 263.910156 C 996.277344 232.648438 965.484375 191.695312 965.484375 191.695312 L 965.160156 191.695312 C 965.160156 191.695312 934.394531 232.648438 925.460938 263.910156 C 916.480469 295.148438 921.359375 323.933594 923.816406 332.878906 C 926.242188 341.796875 944.164062 389.269531 947.03125 396.597656 C 961.28125 382.789062 965.160156 377.925781 965.160156 377.925781 Z M 965.484375 377.925781 "/>
<path fill-rule="nonzero" fill="rgb(0%, 25.881958%, 52.941895%)" fill-opacity="1" d="M 430.972656 437.835938 C 430.949219 437.835938 430.929688 437.832031 430.910156 437.832031 C 430.894531 437.832031 430.886719 437.835938 430.871094 437.835938 Z M 430.972656 437.835938 "/>
<path fill-rule="nonzero" fill="rgb(0%, 25.881958%, 52.941895%)" fill-opacity="1" d="M 569.746094 402.3125 C 564.296875 410.085938 556.757812 413.972656 547.117188 413.972656 C 534.644531 413.972656 525.664062 408.730469 520.1875 398.253906 L 520.1875 338.402344 C 525.585938 328.179688 534.480469 323.074219 546.867188 323.074219 C 556.839844 323.074219 564.515625 327.015625 569.871094 334.914062 C 575.234375 342.8125 577.910156 353.492188 577.910156 366.957031 C 577.910156 382.753906 575.191406 394.535156 569.746094 402.3125 M 594.058594 316.644531 L 594.058594 316.648438 C 584.710938 304.382812 571.800781 298.261719 555.34375 298.261719 C 540.050781 298.261719 527.953125 303.660156 519.058594 314.464844 L 518.492188 307.972656 C 518.210938 303.371094 515.488281 300.734375 511.761719 300.734375 C 511.683594 300.734375 497.226562 300.75 497.226562 300.75 C 492.882812 300.75 489.878906 303.859375 489.878906 308.097656 L 489.792969 477.621094 C 489.792969 483.183594 493.621094 487.535156 498.96875 487.535156 L 511.101562 487.507812 C 516.429688 487.507812 520.15625 483.148438 520.15625 477.957031 L 520.1875 477.390625 L 517.894531 307.117188 L 520.1875 476.65625 L 520.1875 423.566406 C 529.074219 433.296875 540.921875 438.15625 555.71875 438.15625 C 571.679688 438.15625 584.402344 431.945312 593.871094 419.519531 C 603.351562 407.089844 608.089844 390.445312 608.089844 369.574219 L 608.089844 367.707031 C 608.089844 345.925781 603.414062 328.90625 594.058594 316.644531 "/>
<path fill-rule="nonzero" fill="rgb(0%, 25.881958%, 52.941895%)" fill-opacity="1" d="M 353.453125 298.65625 L 338.34375 298.65625 C 331.089844 298.65625 329.785156 304.132812 328.898438 306.835938 C 328.234375 308.84375 303.535156 390.816406 303.015625 392.5625 C 302.5 394.304688 301.027344 394.292969 300.519531 392.5625 C 300.007812 390.832031 275.304688 308.84375 274.640625 306.835938 C 273.753906 304.132812 272.445312 298.65625 265.195312 298.65625 L 250.078125 298.65625 C 243.214844 298.65625 241.800781 303.992188 243.359375 308.433594 L 286.207031 430.285156 C 287.265625 433.1875 290.753906 436.238281 294.488281 436.238281 L 309.054688 436.238281 C 312.78125 436.238281 316.277344 433.1875 317.324219 430.285156 L 360.175781 308.433594 C 361.734375 303.992188 360.328125 298.65625 353.453125 298.65625 "/>
<path fill-rule="nonzero" fill="rgb(0%, 25.881958%, 52.941895%)" fill-opacity="1" d="M 463.398438 412.1875 C 462.628906 411.441406 460.582031 409.667969 459.777344 408.898438 C 458.699219 407.871094 456.648438 406.550781 452.539062 407.21875 C 449.183594 407.765625 445.722656 410.140625 443.320312 411.074219 C 439.617188 412.519531 435.1875 413.636719 430.597656 413.636719 C 420.621094 413.636719 412.992188 410.046875 407.71875 402.851562 C 402.441406 395.667969 399.796875 384.753906 399.796875 370.128906 L 399.796875 365.261719 C 399.882812 350.800781 402.574219 340.015625 407.898438 332.90625 C 413.226562 325.800781 420.785156 322.246094 430.597656 322.246094 C 434.75 322.246094 438.410156 322.992188 441.765625 324.433594 C 443.933594 325.367188 449.058594 327.917969 452.148438 327.917969 C 455.570312 327.917969 458.0625 325.578125 458.40625 325.210938 C 459.140625 324.449219 460.382812 323.136719 461.078125 322.382812 C 462.097656 321.269531 464.617188 318.511719 464.617188 318.511719 C 466.851562 315.734375 467.929688 310.734375 463.003906 307.015625 C 463.003906 307.015625 461.761719 305.824219 459.613281 304.625 C 451.472656 300.082031 442.179688 297.925781 430.84375 297.925781 C 411.886719 297.925781 396.933594 304.101562 385.960938 316.445312 C 374.984375 328.792969 369.5 345.234375 369.5 365.761719 L 369.5 368.878906 C 369.5 390.402344 375.019531 407.285156 386.085938 419.503906 C 397.128906 431.710938 412.0625 437.820312 430.910156 437.832031 C 444.074219 437.824219 452.59375 434.230469 461.558594 429.621094 C 463.019531 428.871094 464.308594 427.71875 464.308594 427.71875 C 468.867188 424.40625 468.746094 417.9375 466.277344 415.160156 C 466.277344 415.160156 464.515625 413.265625 463.398438 412.1875 "/>
<path fill-rule="nonzero" fill="rgb(0%, 25.881958%, 52.941895%)" fill-opacity="1" d="M 1345.738281 340.960938 L 1363.929688 278.023438 L 1374.910156 278.023438 L 1350.171875 356.011719 L 1341.429688 356.011719 L 1316.730469 278.023438 L 1327.660156 278.023438 Z M 1345.738281 340.960938 "/>
<path fill-rule="nonzero" fill="rgb(0%, 25.881958%, 52.941895%)" fill-opacity="1" d="M 1426.160156 319.960938 L 1398.03125 319.960938 L 1398.03125 347.601562 L 1430.808594 347.601562 L 1430.808594 356.011719 L 1388.03125 356.011719 L 1388.03125 278.023438 L 1430.261719 278.023438 L 1430.261719 286.484375 L 1398.03125 286.484375 L 1398.03125 311.554688 L 1426.160156 311.554688 Z M 1426.160156 319.960938 "/>
<path fill-rule="nonzero" fill="rgb(0%, 25.881958%, 52.941895%)" fill-opacity="1" d="M 1455.988281 316.054688 L 1468.121094 316.054688 C 1470.410156 316.054688 1472.421875 315.671875 1474.128906 314.902344 C 1475.839844 314.132812 1477.269531 313.097656 1478.421875 311.796875 C 1479.558594 310.492188 1480.429688 308.960938 1481.011719 307.1875 C 1481.601562 305.421875 1481.890625 303.519531 1481.890625 301.484375 C 1481.890625 299.234375 1481.628906 297.191406 1481.121094 295.351562 C 1480.609375 293.511719 1479.808594 291.933594 1478.71875 290.609375 C 1477.628906 289.289062 1476.210938 288.273438 1474.480469 287.5625 C 1472.75 286.847656 1470.671875 286.484375 1468.230469 286.484375 L 1455.988281 286.484375 Z M 1469.980469 324.464844 L 1455.988281 324.464844 L 1455.988281 356.011719 L 1445.941406 356.011719 L 1445.941406 278.023438 L 1468.230469 278.023438 C 1476.019531 278.023438 1481.921875 280.015625 1485.929688 284 C 1489.929688 287.980469 1491.941406 293.808594 1491.941406 301.484375 C 1491.941406 306.304688 1490.851562 310.511719 1488.691406 314.097656 C 1486.519531 317.6875 1483.449219 320.394531 1479.480469 322.210938 L 1494.890625 355.367188 L 1494.890625 356.011719 L 1484.128906 356.011719 Z M 1469.980469 324.464844 "/>
<path fill-rule="nonzero" fill="rgb(0%, 25.881958%, 52.941895%)" fill-opacity="1" d="M 1517.671875 319.535156 L 1517.671875 347.601562 L 1531.328125 347.601562 C 1533.300781 347.601562 1535.050781 347.273438 1536.570312 346.609375 C 1538.109375 345.949219 1539.398438 345.023438 1540.449219 343.824219 C 1541.511719 342.628906 1542.308594 341.167969 1542.859375 339.433594 C 1543.410156 337.703125 1543.679688 335.765625 1543.679688 333.625 C 1543.679688 331.476562 1543.449219 329.535156 1543 327.785156 C 1542.539062 326.035156 1541.828125 324.554688 1540.871094 323.339844 C 1539.898438 322.125 1538.660156 321.1875 1537.148438 320.523438 C 1535.640625 319.867188 1533.828125 319.535156 1531.710938 319.535156 Z M 1517.671875 311.285156 L 1530.511719 311.285156 C 1532.191406 311.285156 1533.730469 311.003906 1535.148438 310.429688 C 1536.570312 309.859375 1537.800781 309.035156 1538.820312 307.964844 C 1539.828125 306.894531 1540.640625 305.585938 1541.21875 304.03125 C 1541.800781 302.476562 1542.101562 300.71875 1542.101562 298.753906 C 1542.101562 294.46875 1541.128906 291.355469 1539.199219 289.40625 C 1537.269531 287.460938 1534.320312 286.488281 1530.351562 286.488281 L 1517.671875 286.488281 Z M 1507.679688 356.011719 L 1507.679688 278.023438 L 1530.351562 278.023438 C 1533.769531 278.023438 1536.839844 278.429688 1539.550781 279.230469 C 1542.269531 280.035156 1544.558594 281.285156 1546.441406 282.980469 C 1548.308594 284.675781 1549.738281 286.828125 1550.71875 289.4375 C 1551.710938 292.042969 1552.199219 295.164062 1552.199219 298.808594 C 1552.199219 302.449219 1551.269531 305.664062 1549.410156 308.445312 C 1547.558594 311.234375 1545.039062 313.394531 1541.871094 314.929688 C 1543.808594 315.5 1545.511719 316.378906 1546.980469 317.554688 C 1548.460938 318.734375 1549.699219 320.132812 1550.699219 321.757812 C 1551.699219 323.386719 1552.449219 325.195312 1552.96875 327.195312 C 1553.480469 329.195312 1553.730469 331.300781 1553.730469 333.515625 C 1553.730469 337.160156 1553.199219 340.378906 1552.140625 343.183594 C 1551.089844 345.984375 1549.589844 348.34375 1547.640625 350.253906 C 1545.691406 352.160156 1543.328125 353.601562 1540.558594 354.5625 C 1537.800781 355.53125 1534.71875 356.011719 1531.328125 356.011719 Z M 1507.679688 356.011719 "/>
<path fill-rule="nonzero" fill="rgb(0%, 25.881958%, 52.941895%)" fill-opacity="1" d="M 1583.890625 327.195312 L 1605.578125 327.195312 L 1594.699219 291.734375 Z M 1608.140625 335.65625 L 1581.261719 335.65625 L 1575.089844 356.011719 L 1564.820312 356.011719 L 1590.441406 278.023438 L 1599.019531 278.023438 L 1624.699219 356.011719 L 1614.429688 356.011719 Z M 1608.140625 335.65625 "/>
<path fill-rule="nonzero" fill="rgb(0%, 25.881958%, 52.941895%)" fill-opacity="1" d="M 1689.820312 356.011719 L 1679.769531 356.011719 L 1647.921875 295.914062 L 1647.921875 356.011719 L 1637.859375 356.011719 L 1637.859375 278.023438 L 1647.921875 278.023438 L 1679.878906 338.386719 L 1679.878906 278.023438 L 1689.820312 278.023438 Z M 1689.820312 356.011719 "/>
<path fill-rule="nonzero" fill="rgb(0%, 25.881958%, 52.941895%)" fill-opacity="1" d="M 1719.480469 286.484375 L 1719.480469 347.601562 L 1727.511719 347.601562 C 1734.621094 347.601562 1739.789062 345.585938 1743.03125 341.550781 C 1746.269531 337.515625 1747.898438 331.550781 1747.898438 323.660156 L 1747.898438 310.324219 C 1747.898438 302.109375 1746.28125 296.085938 1743.058594 292.242188 C 1739.839844 288.40625 1734.960938 286.484375 1728.449219 286.484375 Z M 1709.488281 356.011719 L 1709.488281 278.023438 L 1728.449219 278.023438 C 1732.921875 278.023438 1736.96875 278.714844 1740.570312 280.089844 C 1744.179688 281.460938 1747.261719 283.515625 1749.800781 286.246094 C 1752.351562 288.976562 1754.320312 292.371094 1755.710938 296.421875 C 1757.089844 300.476562 1757.78125 305.164062 1757.78125 310.484375 L 1757.78125 323.660156 C 1757.78125 328.980469 1757.089844 333.65625 1755.710938 337.691406 C 1754.320312 341.726562 1752.339844 345.105469 1749.75 347.816406 C 1747.171875 350.527344 1744 352.574219 1740.238281 353.949219 C 1736.488281 355.324219 1732.25 356.011719 1727.511719 356.011719 Z M 1709.488281 356.011719 "/>
<path fill-rule="nonzero" fill="rgb(0%, 25.881958%, 52.941895%)" fill-opacity="1" d="M 1853.550781 331.265625 C 1853.328125 335.300781 1852.648438 338.90625 1851.5 342.085938 C 1850.359375 345.265625 1848.730469 347.96875 1846.609375 350.199219 C 1844.5 352.429688 1841.890625 354.136719 1838.769531 355.316406 C 1835.660156 356.492188 1832.039062 357.082031 1827.929688 357.082031 C 1823.921875 357.082031 1820.308594 356.3125 1817.109375 354.777344 C 1813.898438 353.246094 1811.171875 351.050781 1808.910156 348.191406 C 1806.660156 345.335938 1804.921875 341.886719 1803.699219 337.851562 C 1802.480469 333.816406 1801.871094 329.28125 1801.871094 324.25 L 1801.871094 309.839844 C 1801.871094 304.84375 1802.480469 300.316406 1803.699219 296.265625 C 1804.921875 292.210938 1806.679688 288.757812 1809 285.902344 C 1811.308594 283.039062 1814.140625 280.839844 1817.488281 279.285156 C 1820.851562 277.730469 1824.628906 276.953125 1828.859375 276.953125 C 1832.71875 276.953125 1836.128906 277.527344 1839.101562 278.667969 C 1842.070312 279.8125 1844.589844 281.488281 1846.671875 283.703125 C 1848.738281 285.914062 1850.359375 288.648438 1851.53125 291.898438 C 1852.699219 295.148438 1853.371094 298.878906 1853.550781 303.09375 L 1843.449219 303.09375 C 1843.230469 300.023438 1842.808594 297.382812 1842.191406 295.164062 C 1841.570312 292.949219 1840.679688 291.121094 1839.511719 289.675781 C 1838.339844 288.230469 1836.890625 287.15625 1835.140625 286.464844 C 1833.390625 285.765625 1831.300781 285.414062 1828.859375 285.414062 C 1825.941406 285.414062 1823.429688 285.996094 1821.320312 287.15625 C 1819.199219 288.316406 1817.460938 289.953125 1816.070312 292.058594 C 1814.691406 294.164062 1813.660156 296.71875 1812.980469 299.71875 C 1812.308594 302.71875 1811.980469 306.058594 1811.980469 309.734375 L 1811.980469 324.25 C 1811.980469 327.675781 1812.261719 330.871094 1812.820312 333.835938 C 1813.390625 336.800781 1814.300781 339.390625 1815.550781 341.605469 C 1816.808594 343.816406 1818.460938 345.558594 1820.5 346.824219 C 1822.539062 348.09375 1825.011719 348.730469 1827.929688 348.730469 C 1830.660156 348.730469 1832.960938 348.398438 1834.839844 347.734375 C 1836.710938 347.074219 1838.238281 346.039062 1839.429688 344.628906 C 1840.609375 343.21875 1841.511719 341.414062 1842.128906 339.21875 C 1842.75 337.023438 1843.191406 334.371094 1843.449219 331.265625 Z M 1853.550781 331.265625 "/>
<path fill-rule="nonzero" fill="rgb(0%, 25.881958%, 52.941895%)" fill-opacity="1" d="M 1921.511719 356.011719 L 1911.460938 356.011719 L 1911.460938 319.964844 L 1879.441406 319.964844 L 1879.441406 356.011719 L 1869.449219 356.011719 L 1869.449219 278.023438 L 1879.441406 278.023438 L 1879.441406 311.554688 L 1911.460938 311.554688 L 1911.460938 278.023438 L 1921.511719 278.023438 Z M 1921.511719 356.011719 "/>
<path fill-rule="nonzero" fill="rgb(0%, 25.881958%, 52.941895%)" fill-opacity="1" d="M 1951.238281 316.054688 L 1963.371094 316.054688 C 1965.660156 316.054688 1967.660156 315.671875 1969.371094 314.902344 C 1971.089844 314.132812 1972.511719 313.097656 1973.660156 311.796875 C 1974.808594 310.492188 1975.671875 308.960938 1976.261719 307.1875 C 1976.839844 305.421875 1977.128906 303.519531 1977.128906 301.484375 C 1977.128906 299.234375 1976.878906 297.191406 1976.371094 295.351562 C 1975.859375 293.511719 1975.058594 291.933594 1973.960938 290.609375 C 1972.871094 289.289062 1971.460938 288.273438 1969.730469 287.5625 C 1968 286.847656 1965.910156 286.484375 1963.46875 286.484375 L 1951.238281 286.484375 Z M 1965.21875 324.464844 L 1951.238281 324.464844 L 1951.238281 356.011719 L 1941.179688 356.011719 L 1941.179688 278.023438 L 1963.46875 278.023438 C 1971.269531 278.023438 1977.171875 280.015625 1981.171875 284 C 1985.179688 287.980469 1987.191406 293.808594 1987.191406 301.484375 C 1987.191406 306.304688 1986.101562 310.511719 1983.929688 314.097656 C 1981.761719 317.6875 1978.699219 320.394531 1974.730469 322.210938 L 1990.128906 355.367188 L 1990.128906 356.011719 L 1979.371094 356.011719 Z M 1965.21875 324.464844 "/>
<path fill-rule="evenodd" fill="rgb(0%, 25.881958%, 52.941895%)" fill-opacity="1" d="M 2003.351562 356.011719 L 2013.347656 356.011719 L 2013.347656 278.023438 L 2003.351562 278.023438 Z M 2003.351562 356.011719 "/>
<path fill-rule="nonzero" fill="rgb(0%, 25.881958%, 52.941895%)" fill-opacity="1" d="M 2067.980469 336.300781 C 2067.980469 334.480469 2067.78125 332.871094 2067.359375 331.476562 C 2066.941406 330.089844 2066.160156 328.8125 2065.039062 327.648438 C 2063.910156 326.488281 2062.371094 325.402344 2060.449219 324.382812 C 2058.511719 323.363281 2056.019531 322.320312 2052.960938 321.25 C 2049.679688 320.144531 2046.710938 318.882812 2044.058594 317.476562 C 2041.398438 316.0625 2039.128906 314.4375 2037.261719 312.597656 C 2035.378906 310.757812 2033.929688 308.664062 2032.910156 306.304688 C 2031.890625 303.949219 2031.378906 301.253906 2031.378906 298.21875 C 2031.378906 295.183594 2031.921875 292.371094 2032.988281 289.78125 C 2034.070312 287.191406 2035.589844 284.945312 2037.578125 283.035156 C 2039.570312 281.125 2041.96875 279.632812 2044.789062 278.558594 C 2047.609375 277.488281 2050.761719 276.953125 2054.21875 276.953125 C 2058.078125 276.953125 2061.488281 277.617188 2064.460938 278.9375 C 2067.429688 280.257812 2069.921875 282.007812 2071.949219 284.1875 C 2073.96875 286.363281 2075.488281 288.882812 2076.511719 291.734375 C 2077.53125 294.597656 2078.039062 297.539062 2078.039062 300.574219 L 2067.980469 300.574219 C 2067.980469 298.398438 2067.71875 296.378906 2067.191406 294.523438 C 2066.671875 292.667969 2065.839844 291.0625 2064.710938 289.703125 C 2063.578125 288.34375 2062.148438 287.292969 2060.421875 286.539062 C 2058.691406 285.792969 2056.621094 285.414062 2054.21875 285.414062 C 2052 285.414062 2050.078125 285.738281 2048.480469 286.382812 C 2046.878906 287.027344 2045.558594 287.90625 2044.519531 289.03125 C 2043.480469 290.15625 2042.71875 291.488281 2042.230469 293.023438 C 2041.730469 294.558594 2041.488281 296.238281 2041.488281 298.058594 C 2041.488281 301.34375 2042.691406 304.09375 2045.089844 306.304688 C 2047.5 308.519531 2051.210938 310.503906 2056.238281 312.253906 C 2060.101562 313.503906 2063.410156 314.882812 2066.179688 316.402344 C 2068.949219 317.921875 2071.21875 319.644531 2072.980469 321.574219 C 2074.75 323.5 2076.039062 325.65625 2076.859375 328.050781 C 2077.679688 330.445312 2078.089844 333.15625 2078.089844 336.191406 C 2078.089844 339.371094 2077.539062 342.246094 2076.449219 344.816406 C 2075.359375 347.386719 2073.800781 349.582031 2071.78125 351.40625 C 2069.761719 353.226562 2067.308594 354.625 2064.429688 355.609375 C 2061.558594 356.589844 2058.320312 357.082031 2054.710938 357.082031 C 2051.578125 357.082031 2048.488281 356.582031 2045.449219 355.585938 C 2042.410156 354.582031 2039.691406 353.09375 2037.308594 351.109375 C 2034.921875 349.128906 2032.988281 346.65625 2031.519531 343.691406 C 2030.039062 340.726562 2029.308594 337.300781 2029.308594 333.40625 L 2039.359375 333.40625 C 2039.359375 336.089844 2039.761719 338.382812 2040.558594 340.289062 C 2041.359375 342.203125 2042.460938 343.78125 2043.859375 345.03125 C 2045.269531 346.28125 2046.898438 347.199219 2048.761719 347.789062 C 2050.609375 348.378906 2052.601562 348.675781 2054.710938 348.675781 C 2059.121094 348.675781 2062.429688 347.566406 2064.648438 345.351562 C 2066.871094 343.136719 2067.980469 340.121094 2067.980469 336.300781 "/>
<path fill-rule="nonzero" fill="rgb(0%, 25.881958%, 52.941895%)" fill-opacity="1" d="M 2140.050781 286.484375 L 2119.128906 286.484375 L 2119.128906 356.011719 L 2109.128906 356.011719 L 2109.128906 286.484375 L 2088.261719 286.484375 L 2088.261719 278.023438 L 2140.050781 278.023438 Z M 2140.050781 286.484375 "/>
<path fill-rule="nonzero" fill="rgb(0%, 25.881958%, 52.941895%)" fill-opacity="1" d="M 2164.199219 347.601562 L 2195.390625 347.601562 L 2195.390625 356.011719 L 2154.140625 356.011719 L 2154.140625 278.023438 L 2164.199219 278.023438 Z M 2164.199219 347.601562 "/>
<path fill-rule="evenodd" fill="rgb(0%, 25.881958%, 52.941895%)" fill-opacity="1" d="M 2210.089844 356.011719 L 2220.089844 356.011719 L 2220.089844 278.023438 L 2210.089844 278.023438 Z M 2210.089844 356.011719 "/>
<path fill-rule="nonzero" fill="rgb(0%, 25.881958%, 52.941895%)" fill-opacity="1" d="M 2289.851562 331.265625 C 2289.628906 335.300781 2288.949219 338.90625 2287.800781 342.085938 C 2286.648438 345.265625 2285.019531 347.96875 2282.910156 350.199219 C 2280.800781 352.429688 2278.179688 354.136719 2275.070312 355.316406 C 2271.960938 356.492188 2268.339844 357.082031 2264.230469 357.082031 C 2260.21875 357.082031 2256.609375 356.3125 2253.410156 354.777344 C 2250.199219 353.246094 2247.46875 351.050781 2245.210938 348.191406 C 2242.949219 345.335938 2241.21875 341.886719 2240 337.851562 C 2238.78125 333.816406 2238.171875 329.28125 2238.171875 324.25 L 2238.171875 309.839844 C 2238.171875 304.84375 2238.78125 300.316406 2240 296.265625 C 2241.21875 292.210938 2242.980469 288.757812 2245.300781 285.902344 C 2247.609375 283.039062 2250.441406 280.839844 2253.789062 279.285156 C 2257.140625 277.730469 2260.929688 276.953125 2265.148438 276.953125 C 2269.019531 276.953125 2272.429688 277.527344 2275.398438 278.667969 C 2278.371094 279.8125 2280.890625 281.488281 2282.960938 283.703125 C 2285.039062 285.914062 2286.660156 288.648438 2287.828125 291.898438 C 2288.988281 295.148438 2289.660156 298.878906 2289.851562 303.09375 L 2279.738281 303.09375 C 2279.519531 300.023438 2279.101562 297.382812 2278.488281 295.164062 C 2277.871094 292.949219 2276.96875 291.121094 2275.808594 289.675781 C 2274.640625 288.230469 2273.191406 287.15625 2271.441406 286.464844 C 2269.691406 285.765625 2267.601562 285.414062 2265.148438 285.414062 C 2262.238281 285.414062 2259.730469 285.996094 2257.621094 287.15625 C 2255.5 288.316406 2253.761719 289.953125 2252.371094 292.058594 C 2250.988281 294.164062 2249.960938 296.71875 2249.28125 299.71875 C 2248.609375 302.71875 2248.269531 306.058594 2248.269531 309.734375 L 2248.269531 324.25 C 2248.269531 327.675781 2248.558594 330.871094 2249.121094 333.835938 C 2249.691406 336.800781 2250.589844 339.390625 2251.851562 341.605469 C 2253.109375 343.816406 2254.761719 345.558594 2256.800781 346.824219 C 2258.828125 348.09375 2261.308594 348.730469 2264.230469 348.730469 C 2266.960938 348.730469 2269.261719 348.398438 2271.140625 347.734375 C 2273.011719 347.074219 2274.539062 346.039062 2275.730469 344.628906 C 2276.910156 343.21875 2277.808594 341.414062 2278.429688 339.21875 C 2279.050781 337.023438 2279.488281 334.371094 2279.738281 331.265625 Z M 2289.851562 331.265625 "/>
<path fill-rule="nonzero" fill="rgb(0%, 25.881958%, 52.941895%)" fill-opacity="1" d="M 2357.808594 356.011719 L 2347.761719 356.011719 L 2347.761719 319.964844 L 2315.738281 319.964844 L 2315.738281 356.011719 L 2305.75 356.011719 L 2305.75 278.023438 L 2315.738281 278.023438 L 2315.738281 311.554688 L 2347.761719 311.554688 L 2347.761719 278.023438 L 2357.808594 278.023438 Z M 2357.808594 356.011719 "/>
<path fill-rule="nonzero" fill="rgb(0%, 25.881958%, 52.941895%)" fill-opacity="1" d="M 2415.621094 319.960938 L 2387.480469 319.960938 L 2387.480469 347.601562 L 2420.261719 347.601562 L 2420.261719 356.011719 L 2377.488281 356.011719 L 2377.488281 278.023438 L 2419.71875 278.023438 L 2419.71875 286.484375 L 2387.480469 286.484375 L 2387.480469 311.554688 L 2415.621094 311.554688 Z M 2415.621094 319.960938 "/>
<path fill-rule="nonzero" fill="rgb(0%, 25.881958%, 52.941895%)" fill-opacity="1" d="M 2445.449219 316.054688 L 2457.578125 316.054688 C 2459.871094 316.054688 2461.871094 315.671875 2463.578125 314.902344 C 2465.300781 314.132812 2466.71875 313.097656 2467.871094 311.796875 C 2469.019531 310.492188 2469.878906 308.960938 2470.46875 307.1875 C 2471.050781 305.421875 2471.339844 303.519531 2471.339844 301.484375 C 2471.339844 299.234375 2471.078125 297.191406 2470.578125 295.351562 C 2470.058594 293.511719 2469.269531 291.933594 2468.171875 290.609375 C 2467.078125 289.289062 2465.671875 288.273438 2463.941406 287.5625 C 2462.210938 286.847656 2460.121094 286.484375 2457.679688 286.484375 L 2445.449219 286.484375 Z M 2459.429688 324.464844 L 2445.449219 324.464844 L 2445.449219 356.011719 L 2435.390625 356.011719 L 2435.390625 278.023438 L 2457.679688 278.023438 C 2465.46875 278.023438 2471.378906 280.015625 2475.378906 284 C 2479.390625 287.980469 2481.390625 293.808594 2481.390625 301.484375 C 2481.390625 306.304688 2480.308594 310.511719 2478.140625 314.097656 C 2475.96875 317.6875 2472.898438 320.394531 2468.941406 322.210938 L 2484.339844 355.367188 L 2484.339844 356.011719 L 2473.578125 356.011719 Z M 2459.429688 324.464844 "/>
<path fill-rule="nonzero" fill="rgb(0%, 25.881958%, 52.941895%)" fill-opacity="1" d="M 1333.011719 446.023438 L 1348.359375 446.023438 C 1350.800781 446.023438 1352.890625 445.648438 1354.621094 444.898438 C 1356.351562 444.152344 1357.769531 443.105469 1358.878906 441.765625 C 1359.988281 440.425781 1360.808594 438.839844 1361.339844 437 C 1361.871094 435.160156 1362.128906 433.136719 1362.128906 430.921875 C 1362.128906 428.921875 1361.871094 426.980469 1361.339844 425.109375 C 1360.808594 423.234375 1359.988281 421.582031 1358.878906 420.152344 C 1357.769531 418.726562 1356.351562 417.585938 1354.621094 416.726562 C 1352.890625 415.871094 1350.800781 415.441406 1348.359375 415.441406 L 1333.011719 415.441406 Z M 1333.011719 454.433594 L 1333.011719 484.964844 L 1323.011719 484.964844 L 1323.011719 406.976562 L 1348.359375 406.976562 C 1352.191406 406.976562 1355.578125 407.566406 1358.550781 408.746094 C 1361.519531 409.925781 1364.011719 411.574219 1366.011719 413.699219 C 1368.011719 415.824219 1369.539062 418.34375 1370.570312 421.253906 C 1371.609375 424.160156 1372.128906 427.351562 1372.128906 430.8125 C 1372.128906 434.5625 1371.609375 437.910156 1370.570312 440.855469 C 1369.539062 443.800781 1368 446.273438 1365.980469 448.273438 C 1363.960938 450.273438 1361.480469 451.800781 1358.519531 452.855469 C 1355.578125 453.910156 1352.191406 454.433594 1348.359375 454.433594 Z M 1333.011719 454.433594 "/>
<path fill-rule="nonzero" fill="rgb(0%, 25.881958%, 52.941895%)" fill-opacity="1" d="M 1424.25 450.527344 L 1397.371094 450.527344 L 1397.371094 484.964844 L 1387.378906 484.964844 L 1387.378906 406.976562 L 1428.789062 406.976562 L 1428.789062 415.441406 L 1397.371094 415.441406 L 1397.371094 442.113281 L 1424.25 442.113281 Z M 1424.25 450.527344 "/>
<path fill-rule="nonzero" fill="rgb(0%, 25.881958%, 52.941895%)" fill-opacity="1" d="M 1447.03125 456.148438 L 1468.71875 456.148438 L 1457.851562 420.6875 Z M 1471.289062 464.609375 L 1444.410156 464.609375 L 1438.238281 484.964844 L 1427.960938 484.964844 L 1453.589844 406.976562 L 1462.171875 406.976562 L 1487.839844 484.964844 L 1477.570312 484.964844 Z M 1471.289062 464.609375 "/>
<path fill-rule="nonzero" fill="rgb(0%, 25.881958%, 52.941895%)" fill-opacity="1" d="M 1511.011719 415.441406 L 1511.011719 476.558594 L 1519.039062 476.558594 C 1526.140625 476.558594 1531.308594 474.539062 1534.550781 470.503906 C 1537.800781 466.46875 1539.421875 460.503906 1539.421875 452.613281 L 1539.421875 439.277344 C 1539.421875 431.0625 1537.808594 425.039062 1534.578125 421.199219 C 1531.359375 417.359375 1526.488281 415.441406 1519.96875 415.441406 Z M 1501.011719 484.964844 L 1501.011719 406.976562 L 1519.96875 406.976562 C 1524.449219 406.976562 1528.488281 407.667969 1532.101562 409.042969 C 1535.699219 410.414062 1538.78125 412.46875 1541.328125 415.199219 C 1543.878906 417.929688 1545.839844 421.324219 1547.230469 425.375 C 1548.609375 429.429688 1549.308594 434.117188 1549.308594 439.4375 L 1549.308594 452.613281 C 1549.308594 457.933594 1548.609375 462.613281 1547.230469 466.648438 C 1545.839844 470.683594 1543.859375 474.058594 1541.269531 476.769531 C 1538.691406 479.480469 1535.519531 481.527344 1531.769531 482.902344 C 1528.019531 484.277344 1523.78125 484.964844 1519.039062 484.964844 Z M 1501.011719 484.964844 "/>
<path fill-rule="nonzero" fill="rgb(0%, 25.881958%, 52.941895%)" fill-opacity="1" d="M 1604.101562 450.527344 L 1577.21875 450.527344 L 1577.21875 484.964844 L 1567.21875 484.964844 L 1567.21875 406.976562 L 1608.628906 406.976562 L 1608.628906 415.441406 L 1577.21875 415.441406 L 1577.21875 442.113281 L 1604.101562 442.113281 Z M 1604.101562 450.527344 "/>
<path fill-rule="evenodd" fill="rgb(0%, 25.881958%, 52.941895%)" fill-opacity="1" d="M 1623.769531 484.964844 L 1633.769531 484.964844 L 1633.769531 406.976562 L 1623.769531 406.976562 Z M 1623.769531 484.964844 "/>
<path fill-rule="nonzero" fill="rgb(0%, 25.881958%, 52.941895%)" fill-opacity="1" d="M 1705.609375 484.964844 L 1695.558594 484.964844 L 1663.710938 424.867188 L 1663.710938 484.964844 L 1653.660156 484.964844 L 1653.660156 406.976562 L 1663.710938 406.976562 L 1695.671875 467.339844 L 1695.671875 406.976562 L 1705.609375 406.976562 Z M 1705.609375 484.964844 "/>
<path fill-rule="nonzero" fill="rgb(0%, 25.881958%, 52.941895%)" fill-opacity="1" d="M 1735.269531 415.441406 L 1735.269531 476.558594 L 1743.300781 476.558594 C 1750.398438 476.558594 1755.578125 474.539062 1758.820312 470.503906 C 1762.058594 466.46875 1763.679688 460.503906 1763.679688 452.613281 L 1763.679688 439.277344 C 1763.679688 431.0625 1762.070312 425.039062 1758.839844 421.199219 C 1755.621094 417.359375 1750.75 415.441406 1744.230469 415.441406 Z M 1725.269531 484.964844 L 1725.269531 406.976562 L 1744.230469 406.976562 C 1748.710938 406.976562 1752.75 407.667969 1756.359375 409.042969 C 1759.96875 410.414062 1763.039062 412.46875 1765.589844 415.199219 C 1768.140625 417.929688 1770.109375 421.324219 1771.488281 425.375 C 1772.878906 429.429688 1773.570312 434.117188 1773.570312 439.4375 L 1773.570312 452.613281 C 1773.570312 457.933594 1772.878906 462.613281 1771.488281 466.648438 C 1770.109375 470.683594 1768.121094 474.058594 1765.539062 476.769531 C 1762.949219 479.480469 1759.78125 481.527344 1756.03125 482.902344 C 1752.28125 484.277344 1748.039062 484.964844 1743.300781 484.964844 Z M 1725.269531 484.964844 "/>
<path fill-rule="nonzero" fill="rgb(0%, 25.881958%, 52.941895%)" fill-opacity="1" d="M 1829.621094 448.914062 L 1801.480469 448.914062 L 1801.480469 476.558594 L 1834.269531 476.558594 L 1834.269531 484.964844 L 1791.488281 484.964844 L 1791.488281 406.976562 L 1833.71875 406.976562 L 1833.71875 415.441406 L 1801.480469 415.441406 L 1801.480469 440.507812 L 1829.621094 440.507812 Z M 1829.621094 448.914062 "/>
<path fill-rule="nonzero" fill="rgb(0%, 25.881958%, 52.941895%)" fill-opacity="1" d="M 1859.449219 445.007812 L 1871.578125 445.007812 C 1873.871094 445.007812 1875.871094 444.625 1877.589844 443.855469 C 1879.300781 443.085938 1880.730469 442.050781 1881.878906 440.746094 C 1883.019531 439.445312 1883.890625 437.910156 1884.46875 436.140625 C 1885.050781 434.371094 1885.351562 432.472656 1885.351562 430.4375 C 1885.351562 428.1875 1885.089844 426.144531 1884.578125 424.304688 C 1884.070312 422.464844 1883.269531 420.886719 1882.179688 419.5625 C 1881.089844 418.242188 1879.671875 417.226562 1877.941406 416.515625 C 1876.210938 415.800781 1874.121094 415.4375 1871.691406 415.4375 L 1859.449219 415.4375 Z M 1873.429688 453.414062 L 1859.449219 453.414062 L 1859.449219 484.964844 L 1849.398438 484.964844 L 1849.398438 406.976562 L 1871.691406 406.976562 C 1879.480469 406.976562 1885.378906 408.96875 1889.390625 412.953125 C 1893.390625 416.933594 1895.398438 422.761719 1895.398438 430.4375 C 1895.398438 435.257812 1894.308594 439.464844 1892.148438 443.054688 C 1889.980469 446.640625 1886.910156 449.347656 1882.941406 451.164062 L 1898.351562 484.320312 L 1898.351562 484.964844 L 1887.578125 484.964844 Z M 1873.429688 453.414062 "/>
<path fill-rule="nonzero" fill="rgb(0%, 25.881958%, 52.941895%)" fill-opacity="1" d="M 1920.589844 432.3125 L 1904.089844 427.492188 L 1906.601562 419.402344 L 1923.101562 425.402344 L 1922.609375 406.976562 L 1930.96875 406.976562 L 1930.421875 425.671875 L 1946.640625 419.78125 L 1949.160156 427.921875 L 1932.390625 432.792969 L 1943.199219 447.308594 L 1936.429688 452.34375 L 1926.269531 436.917969 L 1916.441406 451.96875 L 1909.601562 447.097656 Z M 1920.589844 432.3125 "/>
<path fill-rule="evenodd" fill="rgb(0%, 25.881958%, 52.941895%)" fill-opacity="1" d="M 1962.101562 484.964844 L 1972.097656 484.964844 L 1972.097656 406.976562 L 1962.101562 406.976562 Z M 1962.101562 484.964844 "/>
<path fill-rule="nonzero" fill="rgb(0%, 25.881958%, 52.941895%)" fill-opacity="1" d="M 2043.941406 484.964844 L 2033.890625 484.964844 L 2002.039062 424.867188 L 2002.039062 484.964844 L 1991.988281 484.964844 L 1991.988281 406.976562 L 2002.039062 406.976562 L 2034 467.339844 L 2034 406.976562 L 2043.941406 406.976562 Z M 2043.941406 484.964844 "/>
<path fill-rule="nonzero" fill="rgb(0%, 25.881958%, 52.941895%)" fill-opacity="1" d="M 2115.570312 484.964844 L 2105.519531 484.964844 L 2073.671875 424.867188 L 2073.671875 484.964844 L 2063.609375 484.964844 L 2063.609375 406.976562 L 2073.671875 406.976562 L 2105.621094 467.339844 L 2105.621094 406.976562 L 2115.570312 406.976562 Z M 2115.570312 484.964844 "/>
<path fill-rule="nonzero" fill="rgb(0%, 25.881958%, 52.941895%)" fill-opacity="1" d="M 2173.359375 448.914062 L 2145.230469 448.914062 L 2145.230469 476.558594 L 2178.011719 476.558594 L 2178.011719 484.964844 L 2135.230469 484.964844 L 2135.230469 406.976562 L 2177.460938 406.976562 L 2177.460938 415.441406 L 2145.230469 415.441406 L 2145.230469 440.507812 L 2173.359375 440.507812 Z M 2173.359375 448.914062 "/>
<path fill-rule="nonzero" fill="rgb(0%, 25.881958%, 52.941895%)" fill-opacity="1" d="M 2245.101562 484.964844 L 2235.050781 484.964844 L 2203.199219 424.867188 L 2203.199219 484.964844 L 2193.140625 484.964844 L 2193.140625 406.976562 L 2203.199219 406.976562 L 2235.160156 467.339844 L 2235.160156 406.976562 L 2245.101562 406.976562 Z M 2245.101562 484.964844 "/>
</svg>
