<?xml version="1.0" encoding="UTF-8"?>
<svg xmlns="http://www.w3.org/2000/svg" xmlns:xlink="http://www.w3.org/1999/xlink" width="1024" height="315" viewBox="0 0 1024 315">
<path fill-rule="nonzero" fill="rgb(100%, 100%, 100%)" fill-opacity="1" d="M 411.179688 168.109375 C 412.195312 175.8125 407.089844 182.527344 406.101562 183.773438 C 414.558594 181.742188 420.21875 179.300781 427.214844 168.109375 C 434.222656 156.917969 430.273438 139.800781 418.050781 134.195312 C 406.640625 128.941406 393.527344 127.125 381.125 138.746094 C 368.71875 150.382812 363.210938 173.488281 361.605469 185.261719 C 362.816406 185.261719 363.960938 185.335938 363.960938 185.335938 C 363.960938 185.335938 371.789062 155.316406 397.167969 154.742188 C 405.0625 154.5625 411.015625 161.753906 411.179688 168.109375 M 397.144531 203.414062 C 397.308594 213.03125 392.324219 220.71875 383.484375 220.871094 C 374.636719 221.042969 367.554688 213.5 364.503906 200.378906 C 361.773438 200.378906 360.808594 200.207031 360.808594 200.207031 C 360.808594 200.207031 358.398438 227.457031 378.335938 237.058594 C 390.613281 242.984375 399.402344 232.257812 401.164062 228.097656 C 402.9375 223.925781 405.832031 213.1875 397.144531 203.414062 M 353.585938 249.777344 C 350.488281 244.445312 343.792969 238.59375 341.292969 234.402344 C 334.558594 240.753906 327.152344 244.75 316.820312 242.433594 C 306.496094 240.125 290.996094 223.648438 304.683594 201.773438 C 286.613281 206.15625 278.601562 203.71875 272.925781 199.464844 C 267.234375 195.222656 261.09375 187.355469 262.644531 174.796875 C 264.328125 161.101562 264.675781 157.953125 262.253906 139.632812 C 260.070312 123.042969 276.875 100.21875 307.078125 113.667969 C 309.210938 114.695312 310.402344 114.425781 309.890625 112.371094 C 309.371094 110.3125 304.230469 98.191406 305.59375 90.089844 C 307.011719 81.601562 310.757812 71.300781 326.894531 66.164062 C 335.382812 63.453125 344.003906 67.472656 353.585938 67.332031 L 353.714844 67.332031 C 363.308594 67.472656 371.929688 63.453125 380.417969 66.164062 C 396.550781 71.300781 400.300781 81.601562 401.71875 90.089844 C 403.070312 98.191406 397.9375 110.3125 397.417969 112.371094 C 396.90625 114.425781 398.097656 114.695312 400.242188 113.667969 C 430.4375 100.21875 447.242188 123.042969 445.046875 139.632812 C 442.636719 157.953125 442.980469 161.101562 444.664062 174.796875 C 446.210938 187.355469 440.078125 195.222656 434.382812 199.464844 C 428.703125 203.71875 420.691406 206.15625 402.625 201.773438 C 416.308594 223.648438 400.816406 240.125 390.488281 242.433594 C 380.164062 244.75 372.753906 240.753906 366.011719 234.402344 C 363.523438 238.59375 356.828125 244.445312 353.714844 249.777344 Z M 353.714844 74.265625 C 353.714844 74.265625 361.171875 82.996094 369.835938 98.195312 C 378.101562 112.6875 376.335938 130.578125 376.335938 132.6875 C 376.335938 134.789062 375.738281 135.390625 376.183594 135.84375 C 376.644531 136.296875 376.644531 135.699219 378.605469 133.890625 C 390.847656 121.992188 409.554688 125.132812 415.960938 127.777344 C 423.070312 130.707031 434.722656 138.503906 435.09375 153.417969 C 435.828125 182.476562 408.980469 189.277344 403.238281 189.007812 C 396.488281 188.679688 400.378906 182.804688 401.332031 181.527344 C 404.097656 177.808594 406.777344 172.851562 405.894531 167.191406 C 405.238281 162.988281 400.050781 158.292969 392.066406 160.582031 C 371.347656 166.515625 369.234375 187.355469 369.234375 187.355469 L 372.5625 193.070312 C 372.5625 193.070312 370.75 195.179688 369.234375 197.585938 C 371.042969 209.039062 376.796875 216.863281 385.253906 215.515625 C 393.71875 214.148438 391.453125 201.195312 391.152344 198.953125 C 390.847656 196.683594 392.457031 190.808594 400.921875 195.019531 C 428.574219 209.214844 441.625 189.070312 439.355469 175 C 436.59375 157.878906 439.40625 145.472656 439.859375 139.941406 C 440.398438 133.375 438.84375 123.953125 431.496094 118.984375 C 419.261719 110.695312 410.792969 115.21875 401.121094 118.828125 C 391.453125 122.441406 391.453125 112.960938 392.664062 109.945312 C 393.871094 106.933594 396.292969 98.804688 396.582031 92.324219 C 396.886719 85.847656 393.113281 78.773438 386.917969 74.105469 C 380.722656 69.4375 370.75 69.890625 367.421875 70.792969 C 364.097656 71.699219 353.714844 72.164062 353.714844 72.164062 L 353.585938 72.164062 C 353.585938 72.164062 343.21875 71.699219 339.886719 70.792969 C 336.5625 69.890625 326.585938 69.4375 320.394531 74.105469 C 314.199219 78.773438 310.417969 85.847656 310.71875 92.324219 C 311.023438 98.804688 313.445312 106.933594 314.644531 109.945312 C 315.863281 112.960938 315.863281 122.441406 306.1875 118.828125 C 296.511719 115.21875 288.050781 110.695312 275.8125 118.984375 C 268.464844 123.953125 266.914062 133.375 267.453125 139.941406 C 267.910156 145.472656 270.714844 157.878906 267.957031 175 C 265.691406 189.070312 278.738281 209.214844 306.398438 195.019531 C 314.863281 190.808594 316.46875 196.683594 316.164062 198.953125 C 315.863281 201.195312 313.589844 214.148438 322.054688 215.515625 C 330.519531 216.863281 336.261719 209.039062 338.074219 197.585938 C 336.5625 195.179688 334.753906 193.070312 334.753906 193.070312 L 338.074219 187.355469 C 338.074219 187.355469 335.960938 166.515625 315.246094 160.582031 C 307.261719 158.292969 302.074219 162.988281 301.417969 167.191406 C 300.53125 172.851562 303.214844 177.808594 305.984375 181.527344 C 306.9375 182.804688 310.824219 188.679688 304.066406 189.007812 C 298.328125 189.277344 271.488281 182.476562 272.214844 153.417969 C 272.585938 138.503906 284.246094 130.707031 291.351562 127.777344 C 297.757812 125.132812 316.46875 121.992188 328.703125 133.890625 C 330.667969 135.699219 330.667969 136.296875 331.121094 135.84375 C 331.574219 135.390625 330.96875 134.789062 330.96875 132.6875 C 330.96875 130.578125 329.210938 112.6875 337.46875 98.195312 C 346.125 82.996094 353.585938 74.265625 353.585938 74.265625 Z M 310.136719 154.746094 C 335.527344 155.320312 343.351562 185.339844 343.351562 185.339844 C 343.351562 185.339844 344.492188 185.265625 345.703125 185.265625 C 344.097656 173.488281 338.59375 150.386719 326.1875 138.75 C 313.785156 127.125 300.671875 128.945312 289.253906 134.199219 C 277.035156 139.800781 273.085938 156.921875 280.085938 168.113281 C 287.085938 179.300781 292.75 181.746094 301.222656 183.777344 C 300.21875 182.53125 295.117188 175.816406 296.132812 168.113281 C 296.292969 161.757812 302.253906 154.566406 310.136719 154.746094 M 306.144531 228.101562 C 307.910156 232.261719 316.691406 242.988281 328.976562 237.0625 C 348.914062 227.460938 346.507812 200.210938 346.507812 200.210938 C 346.507812 200.210938 345.539062 200.382812 342.808594 200.382812 C 339.75 213.503906 332.675781 221.046875 323.828125 220.875 C 314.992188 220.722656 310 213.035156 310.160156 203.417969 C 301.484375 213.191406 304.371094 223.929688 306.144531 228.101562 M 353.714844 240.921875 C 354.953125 238.652344 359.851562 235.503906 362.519531 230.089844 C 353.378906 214.359375 355.820312 195.894531 355.820312 195.894531 L 364.664062 195.246094 L 366.273438 192.828125 L 363.859375 189.957031 L 356.300781 189.789062 C 356.464844 181.949219 359.683594 168.644531 359.683594 168.644531 L 353.714844 162.71875 L 353.585938 162.71875 L 347.628906 168.644531 C 347.628906 168.644531 350.847656 181.949219 351 189.789062 L 343.445312 189.957031 L 341.039062 192.828125 L 342.648438 195.246094 L 351.484375 195.894531 C 351.484375 195.894531 353.929688 214.359375 344.789062 230.089844 C 347.449219 235.503906 352.363281 238.652344 353.585938 240.921875 Z M 353.714844 155.609375 C 353.714844 155.609375 355.265625 157.542969 360.9375 163.035156 C 362.074219 160.121094 369.195312 141.246094 370.164062 137.699219 C 371.136719 134.140625 373.078125 122.695312 369.523438 110.277344 C 365.960938 97.84375 353.714844 81.5625 353.714844 81.5625 L 353.585938 81.5625 C 353.585938 81.5625 341.351562 97.84375 337.800781 110.277344 C 334.230469 122.695312 336.171875 134.140625 337.148438 137.699219 C 338.113281 141.246094 345.238281 160.121094 346.378906 163.035156 C 352.042969 157.542969 353.585938 155.609375 353.585938 155.609375 Z M 353.714844 155.609375 "/>
<path fill-rule="nonzero" fill="rgb(100%, 100%, 100%)" fill-opacity="1" d="M 196.363281 165.308594 C 194.195312 168.398438 191.199219 169.941406 187.363281 169.941406 C 182.40625 169.941406 178.832031 167.859375 176.65625 163.695312 L 176.65625 139.894531 C 178.800781 135.828125 182.339844 133.800781 187.265625 133.800781 C 191.230469 133.800781 194.28125 135.367188 196.410156 138.507812 C 198.542969 141.648438 199.609375 145.894531 199.609375 151.25 C 199.609375 157.53125 198.527344 162.214844 196.363281 165.308594 M 206.03125 131.242188 L 206.03125 131.246094 C 202.3125 126.367188 197.179688 123.933594 190.636719 123.933594 C 184.554688 123.933594 179.746094 126.082031 176.207031 130.375 L 175.980469 127.796875 C 175.871094 125.96875 174.789062 124.917969 173.308594 124.917969 C 173.277344 124.917969 167.527344 124.925781 167.527344 124.925781 C 165.796875 124.925781 164.605469 126.160156 164.605469 127.84375 L 164.570312 195.25 C 164.570312 197.464844 166.09375 199.195312 168.21875 199.195312 L 173.042969 199.183594 C 175.164062 199.183594 176.644531 197.449219 176.644531 195.386719 L 176.65625 195.160156 L 175.746094 127.457031 L 176.65625 194.867188 L 176.65625 173.757812 C 180.191406 177.625 184.902344 179.558594 190.785156 179.558594 C 197.128906 179.558594 202.191406 177.089844 205.957031 172.148438 C 209.722656 167.207031 211.609375 160.589844 211.609375 152.289062 L 211.609375 151.546875 C 211.609375 142.886719 209.75 136.121094 206.03125 131.242188 "/>
<path fill-rule="nonzero" fill="rgb(100%, 100%, 100%)" fill-opacity="1" d="M 110.359375 124.089844 L 104.351562 124.089844 C 101.46875 124.089844 100.949219 126.269531 100.597656 127.34375 C 100.332031 128.140625 90.511719 160.738281 90.304688 161.429688 C 90.097656 162.125 89.515625 162.117188 89.3125 161.429688 C 89.109375 160.742188 79.285156 128.140625 79.023438 127.34375 C 78.667969 126.269531 78.148438 124.089844 75.265625 124.089844 L 69.257812 124.089844 C 66.527344 124.089844 65.964844 126.210938 66.585938 127.980469 L 83.621094 176.429688 C 84.042969 177.582031 85.429688 178.796875 86.914062 178.796875 L 92.707031 178.796875 C 94.1875 178.796875 95.578125 177.582031 95.992188 176.429688 L 113.03125 127.980469 C 113.652344 126.210938 113.09375 124.089844 110.359375 124.089844 "/>
<path fill-rule="nonzero" fill="rgb(100%, 100%, 100%)" fill-opacity="1" d="M 154.074219 169.234375 C 153.769531 168.9375 152.957031 168.230469 152.636719 167.925781 C 152.207031 167.519531 151.390625 166.992188 149.757812 167.257812 C 148.421875 167.476562 147.046875 168.421875 146.09375 168.789062 C 144.621094 169.367188 142.859375 169.8125 141.035156 169.8125 C 137.066406 169.8125 134.035156 168.382812 131.9375 165.523438 C 129.835938 162.664062 128.789062 158.324219 128.789062 152.511719 L 128.789062 150.574219 C 128.820312 144.824219 129.890625 140.535156 132.007812 137.710938 C 134.125 134.882812 137.132812 133.472656 141.035156 133.472656 C 142.683594 133.472656 144.140625 133.769531 145.472656 134.34375 C 146.335938 134.714844 148.375 135.726562 149.601562 135.726562 C 150.964844 135.726562 151.953125 134.796875 152.089844 134.652344 C 152.382812 134.347656 152.875 133.824219 153.152344 133.523438 C 153.558594 133.082031 154.5625 131.988281 154.5625 131.988281 C 155.449219 130.882812 155.878906 128.894531 153.917969 127.414062 C 153.917969 127.414062 153.425781 126.941406 152.570312 126.464844 C 149.332031 124.65625 145.640625 123.800781 141.132812 123.800781 C 133.59375 123.800781 127.648438 126.257812 123.285156 131.164062 C 118.921875 136.074219 116.738281 142.613281 116.738281 150.773438 L 116.738281 152.015625 C 116.738281 160.570312 118.933594 167.285156 123.335938 172.144531 C 127.726562 176.996094 133.664062 179.425781 141.15625 179.429688 C 146.394531 179.429688 149.777344 178 153.34375 176.164062 C 153.925781 175.867188 154.4375 175.410156 154.4375 175.410156 C 156.25 174.09375 156.203125 171.519531 155.21875 170.414062 C 155.21875 170.414062 154.519531 169.660156 154.074219 169.234375 "/>
<path fill-rule="nonzero" fill="rgb(100%, 100%, 100%)" fill-opacity="1" d="M 504.914062 140.914062 L 512.148438 115.886719 L 516.511719 115.886719 L 506.671875 146.898438 L 503.195312 146.898438 L 493.378906 115.886719 L 497.722656 115.886719 Z M 504.914062 140.914062 "/>
<path fill-rule="nonzero" fill="rgb(100%, 100%, 100%)" fill-opacity="1" d="M 536.890625 132.5625 L 525.703125 132.5625 L 525.703125 143.554688 L 538.738281 143.554688 L 538.738281 146.898438 L 521.730469 146.898438 L 521.730469 115.886719 L 538.519531 115.886719 L 538.519531 119.253906 L 525.703125 119.253906 L 525.703125 129.21875 L 536.890625 129.21875 Z M 536.890625 132.5625 "/>
<path fill-rule="nonzero" fill="rgb(100%, 100%, 100%)" fill-opacity="1" d="M 548.75 131.011719 L 553.574219 131.011719 C 554.484375 131.011719 555.28125 130.855469 555.960938 130.550781 C 556.644531 130.246094 557.210938 129.832031 557.667969 129.316406 C 558.125 128.796875 558.46875 128.1875 558.699219 127.484375 C 558.933594 126.78125 559.046875 126.023438 559.046875 125.21875 C 559.046875 124.320312 558.945312 123.507812 558.742188 122.777344 C 558.539062 122.046875 558.222656 121.417969 557.789062 120.894531 C 557.351562 120.367188 556.792969 119.964844 556.105469 119.679688 C 555.417969 119.394531 554.585938 119.253906 553.617188 119.253906 L 548.75 119.253906 Z M 554.3125 134.351562 L 548.75 134.351562 L 548.75 146.898438 L 544.753906 146.898438 L 544.753906 115.886719 L 553.617188 115.886719 C 556.714844 115.886719 559.0625 116.679688 560.65625 118.265625 C 562.246094 119.847656 563.042969 122.164062 563.042969 125.21875 C 563.042969 127.132812 562.613281 128.804688 561.753906 130.230469 C 560.890625 131.660156 559.667969 132.734375 558.089844 133.457031 L 564.21875 146.640625 L 564.21875 146.898438 L 559.9375 146.898438 Z M 554.3125 134.351562 "/>
<path fill-rule="nonzero" fill="rgb(100%, 100%, 100%)" fill-opacity="1" d="M 573.277344 132.394531 L 573.277344 143.554688 L 578.707031 143.554688 C 579.492188 143.554688 580.183594 143.421875 580.792969 143.160156 C 581.402344 142.898438 581.914062 142.527344 582.335938 142.050781 C 582.753906 141.574219 583.074219 140.996094 583.292969 140.304688 C 583.507812 139.617188 583.617188 138.847656 583.617188 137.996094 C 583.617188 137.144531 583.527344 136.371094 583.34375 135.671875 C 583.164062 134.976562 582.882812 134.390625 582.5 133.90625 C 582.113281 133.421875 581.621094 133.050781 581.019531 132.785156 C 580.421875 132.523438 579.699219 132.394531 578.859375 132.394531 Z M 573.277344 129.113281 L 578.382812 129.113281 C 579.046875 129.113281 579.664062 129 580.226562 128.773438 C 580.792969 128.546875 581.277344 128.21875 581.683594 127.792969 C 582.089844 127.367188 582.40625 126.847656 582.640625 126.230469 C 582.871094 125.609375 582.988281 124.910156 582.988281 124.128906 C 582.988281 122.425781 582.601562 121.1875 581.835938 120.414062 C 581.070312 119.640625 579.894531 119.253906 578.316406 119.253906 L 573.277344 119.253906 Z M 569.300781 146.898438 L 569.300781 115.886719 L 578.316406 115.886719 C 579.675781 115.886719 580.898438 116.046875 581.976562 116.367188 C 583.054688 116.6875 583.96875 117.183594 584.714844 117.859375 C 585.460938 118.53125 586.027344 119.390625 586.417969 120.425781 C 586.808594 121.460938 587.007812 122.703125 587.007812 124.152344 C 587.007812 125.601562 586.636719 126.878906 585.898438 127.984375 C 585.160156 129.09375 584.160156 129.953125 582.902344 130.5625 C 583.667969 130.789062 584.34375 131.136719 584.929688 131.605469 C 585.519531 132.074219 586.011719 132.632812 586.410156 133.277344 C 586.804688 133.921875 587.105469 134.644531 587.308594 135.4375 C 587.511719 136.234375 587.613281 137.070312 587.613281 137.953125 C 587.613281 139.402344 587.40625 140.683594 586.984375 141.796875 C 586.5625 142.910156 585.96875 143.847656 585.191406 144.609375 C 584.417969 145.367188 583.480469 145.9375 582.378906 146.320312 C 581.277344 146.707031 580.054688 146.898438 578.707031 146.898438 Z M 569.300781 146.898438 "/>
<path fill-rule="nonzero" fill="rgb(100%, 100%, 100%)" fill-opacity="1" d="M 599.605469 135.4375 L 608.230469 135.4375 L 603.90625 121.339844 Z M 609.25 138.804688 L 598.5625 138.804688 L 596.109375 146.898438 L 592.023438 146.898438 L 602.210938 115.886719 L 605.621094 115.886719 L 615.832031 146.898438 L 611.746094 146.898438 Z M 609.25 138.804688 "/>
<path fill-rule="nonzero" fill="rgb(100%, 100%, 100%)" fill-opacity="1" d="M 641.726562 146.898438 L 637.730469 146.898438 L 625.0625 123.003906 L 625.0625 146.898438 L 621.066406 146.898438 L 621.066406 115.886719 L 625.0625 115.886719 L 637.773438 139.890625 L 637.773438 115.886719 L 641.726562 115.886719 Z M 641.726562 146.898438 "/>
<path fill-rule="nonzero" fill="rgb(100%, 100%, 100%)" fill-opacity="1" d="M 653.519531 119.253906 L 653.519531 143.554688 L 656.714844 143.554688 C 659.539062 143.554688 661.59375 142.75 662.882812 141.148438 C 664.171875 139.542969 664.816406 137.171875 664.816406 134.035156 L 664.816406 128.730469 C 664.816406 125.464844 664.175781 123.070312 662.894531 121.542969 C 661.613281 120.015625 659.675781 119.253906 657.085938 119.253906 Z M 649.546875 146.898438 L 649.546875 115.886719 L 657.085938 115.886719 C 658.863281 115.886719 660.472656 116.164062 661.90625 116.707031 C 663.339844 117.253906 664.5625 118.070312 665.578125 119.15625 C 666.589844 120.242188 667.371094 121.59375 667.921875 123.203125 C 668.472656 124.816406 668.75 126.679688 668.75 128.792969 L 668.75 134.035156 C 668.75 136.148438 668.472656 138.007812 667.921875 139.613281 C 667.371094 141.21875 666.585938 142.5625 665.554688 143.640625 C 664.527344 144.714844 663.265625 145.53125 661.773438 146.078125 C 660.285156 146.625 658.597656 146.898438 656.714844 146.898438 Z M 649.546875 146.898438 "/>
<path fill-rule="nonzero" fill="rgb(100%, 100%, 100%)" fill-opacity="1" d="M 706.828125 137.058594 C 706.742188 138.660156 706.46875 140.097656 706.011719 141.359375 C 705.558594 142.625 704.910156 143.699219 704.070312 144.585938 C 703.230469 145.472656 702.191406 146.152344 700.953125 146.621094 C 699.714844 147.089844 698.277344 147.324219 696.640625 147.324219 C 695.046875 147.324219 693.613281 147.015625 692.339844 146.40625 C 691.0625 145.796875 689.976562 144.921875 689.082031 143.789062 C 688.183594 142.652344 687.492188 141.28125 687.007812 139.675781 C 686.519531 138.074219 686.277344 136.269531 686.277344 134.269531 L 686.277344 128.539062 C 686.277344 126.550781 686.519531 124.75 687.007812 123.140625 C 687.492188 121.527344 688.191406 120.15625 689.113281 119.019531 C 690.035156 117.882812 691.15625 117.007812 692.492188 116.390625 C 693.824219 115.769531 695.332031 115.460938 697.011719 115.460938 C 698.546875 115.460938 699.902344 115.691406 701.082031 116.144531 C 702.261719 116.597656 703.265625 117.265625 704.089844 118.148438 C 704.917969 119.027344 705.5625 120.113281 706.023438 121.40625 C 706.488281 122.695312 706.753906 124.179688 706.828125 125.855469 L 702.8125 125.855469 C 702.722656 124.636719 702.554688 123.585938 702.3125 122.703125 C 702.0625 121.824219 701.710938 121.097656 701.246094 120.519531 C 700.78125 119.945312 700.203125 119.519531 699.507812 119.242188 C 698.8125 118.964844 697.980469 118.828125 697.011719 118.828125 C 695.851562 118.828125 694.851562 119.058594 694.011719 119.519531 C 693.171875 119.980469 692.476562 120.628906 691.925781 121.46875 C 691.375 122.304688 690.96875 123.320312 690.699219 124.511719 C 690.433594 125.707031 690.296875 127.035156 690.296875 128.496094 L 690.296875 134.269531 C 690.296875 135.628906 690.410156 136.902344 690.632812 138.082031 C 690.859375 139.257812 691.21875 140.289062 691.71875 141.167969 C 692.21875 142.046875 692.875 142.742188 693.6875 143.242188 C 694.496094 143.75 695.480469 144 696.640625 144 C 697.726562 144 698.640625 143.871094 699.390625 143.605469 C 700.132812 143.34375 700.742188 142.933594 701.214844 142.371094 C 701.683594 141.808594 702.042969 141.09375 702.289062 140.21875 C 702.535156 139.347656 702.710938 138.292969 702.8125 137.058594 Z M 706.828125 137.058594 "/>
<path fill-rule="nonzero" fill="rgb(100%, 100%, 100%)" fill-opacity="1" d="M 733.851562 146.898438 L 729.855469 146.898438 L 729.855469 132.5625 L 717.125 132.5625 L 717.125 146.898438 L 713.148438 146.898438 L 713.148438 115.886719 L 717.125 115.886719 L 717.125 129.21875 L 729.855469 129.21875 L 729.855469 115.886719 L 733.851562 115.886719 Z M 733.851562 146.898438 "/>
<path fill-rule="nonzero" fill="rgb(100%, 100%, 100%)" fill-opacity="1" d="M 745.671875 131.011719 L 750.492188 131.011719 C 751.40625 131.011719 752.199219 130.855469 752.882812 130.550781 C 753.5625 130.246094 754.132812 129.832031 754.589844 129.316406 C 755.042969 128.796875 755.386719 128.1875 755.621094 127.484375 C 755.851562 126.78125 755.96875 126.023438 755.96875 125.21875 C 755.96875 124.320312 755.863281 123.507812 755.664062 122.777344 C 755.460938 122.046875 755.140625 121.417969 754.707031 120.894531 C 754.273438 120.367188 753.710938 119.964844 753.023438 119.679688 C 752.335938 119.394531 751.507812 119.253906 750.535156 119.253906 L 745.671875 119.253906 Z M 751.230469 134.351562 L 745.671875 134.351562 L 745.671875 146.898438 L 741.675781 146.898438 L 741.675781 115.886719 L 750.535156 115.886719 C 753.636719 115.886719 755.980469 116.679688 757.574219 118.265625 C 759.167969 119.847656 759.964844 122.164062 759.964844 125.21875 C 759.964844 127.132812 759.53125 128.804688 758.671875 130.230469 C 757.808594 131.660156 756.589844 132.734375 755.011719 133.457031 L 761.136719 146.640625 L 761.136719 146.898438 L 756.855469 146.898438 Z M 751.230469 134.351562 "/>
<path fill-rule="nonzero" fill="rgb(100%, 100%, 100%)" fill-opacity="1" d="M 770.367188 146.898438 L 766.394531 146.898438 L 766.394531 115.886719 L 770.367188 115.886719 Z M 770.367188 146.898438 "/>
<path fill-rule="nonzero" fill="rgb(100%, 100%, 100%)" fill-opacity="1" d="M 792.09375 139.058594 C 792.09375 138.335938 792.007812 137.695312 791.84375 137.140625 C 791.675781 136.589844 791.367188 136.082031 790.921875 135.621094 C 790.472656 135.15625 789.859375 134.726562 789.09375 134.320312 C 788.324219 133.917969 787.335938 133.5 786.117188 133.074219 C 784.816406 132.636719 783.636719 132.136719 782.578125 131.574219 C 781.519531 131.011719 780.617188 130.367188 779.871094 129.636719 C 779.128906 128.902344 778.550781 128.070312 778.144531 127.132812 C 777.738281 126.195312 777.539062 125.125 777.539062 123.917969 C 777.539062 122.710938 777.75 121.59375 778.179688 120.5625 C 778.605469 119.535156 779.214844 118.640625 780.003906 117.878906 C 780.792969 117.121094 781.746094 116.527344 782.871094 116.101562 C 783.992188 115.675781 785.242188 115.460938 786.617188 115.460938 C 788.152344 115.460938 789.511719 115.726562 790.691406 116.25 C 791.871094 116.777344 792.863281 117.472656 793.667969 118.339844 C 794.472656 119.203125 795.074219 120.203125 795.480469 121.339844 C 795.886719 122.476562 796.089844 123.648438 796.089844 124.855469 L 792.09375 124.855469 C 792.09375 123.988281 791.988281 123.1875 791.777344 122.449219 C 791.566406 121.710938 791.238281 121.070312 790.789062 120.53125 C 790.339844 119.992188 789.773438 119.574219 789.085938 119.273438 C 788.394531 118.976562 787.574219 118.828125 786.617188 118.828125 C 785.734375 118.828125 784.972656 118.953125 784.335938 119.210938 C 783.699219 119.46875 783.175781 119.816406 782.761719 120.265625 C 782.351562 120.710938 782.046875 121.242188 781.851562 121.851562 C 781.652344 122.460938 781.558594 123.128906 781.558594 123.851562 C 781.558594 125.160156 782.035156 126.253906 782.988281 127.132812 C 783.945312 128.015625 785.421875 128.800781 787.421875 129.496094 C 788.957031 129.996094 790.273438 130.542969 791.375 131.148438 C 792.476562 131.75 793.378906 132.4375 794.078125 133.203125 C 794.78125 133.972656 795.296875 134.828125 795.621094 135.78125 C 795.945312 136.730469 796.109375 137.808594 796.109375 139.015625 C 796.109375 140.28125 795.894531 141.421875 795.460938 142.445312 C 795.023438 143.46875 794.40625 144.339844 793.601562 145.066406 C 792.800781 145.789062 791.824219 146.347656 790.679688 146.738281 C 789.535156 147.125 788.246094 147.324219 786.8125 147.324219 C 785.566406 147.324219 784.339844 147.125 783.132812 146.726562 C 781.921875 146.328125 780.84375 145.738281 779.894531 144.949219 C 778.945312 144.160156 778.179688 143.179688 777.59375 142 C 777.007812 140.820312 776.710938 139.457031 776.710938 137.910156 L 780.710938 137.910156 C 780.710938 138.976562 780.867188 139.886719 781.1875 140.644531 C 781.507812 141.40625 781.945312 142.035156 782.5 142.53125 C 783.058594 143.027344 783.707031 143.394531 784.445312 143.628906 C 785.183594 143.863281 785.972656 143.980469 786.8125 143.980469 C 788.566406 143.980469 789.882812 143.539062 790.765625 142.660156 C 791.652344 141.777344 792.09375 140.578125 792.09375 139.058594 "/>
<path fill-rule="nonzero" fill="rgb(100%, 100%, 100%)" fill-opacity="1" d="M 820.746094 119.253906 L 812.425781 119.253906 L 812.425781 146.898438 L 808.453125 146.898438 L 808.453125 119.253906 L 800.152344 119.253906 L 800.152344 115.886719 L 820.746094 115.886719 Z M 820.746094 119.253906 "/>
<path fill-rule="nonzero" fill="rgb(100%, 100%, 100%)" fill-opacity="1" d="M 830.347656 143.554688 L 842.75 143.554688 L 842.75 146.898438 L 826.351562 146.898438 L 826.351562 115.886719 L 830.347656 115.886719 Z M 830.347656 143.554688 "/>
<path fill-rule="nonzero" fill="rgb(100%, 100%, 100%)" fill-opacity="1" d="M 852.570312 146.898438 L 848.59375 146.898438 L 848.59375 115.886719 L 852.570312 115.886719 Z M 852.570312 146.898438 "/>
<path fill-rule="nonzero" fill="rgb(100%, 100%, 100%)" fill-opacity="1" d="M 880.308594 137.058594 C 880.222656 138.660156 879.949219 140.097656 879.492188 141.359375 C 879.039062 142.625 878.390625 143.699219 877.550781 144.585938 C 876.710938 145.472656 875.671875 146.152344 874.433594 146.621094 C 873.195312 147.089844 871.757812 147.324219 870.121094 147.324219 C 868.527344 147.324219 867.09375 147.015625 865.820312 146.40625 C 864.542969 145.796875 863.457031 144.921875 862.5625 143.789062 C 861.664062 142.652344 860.972656 141.28125 860.488281 139.675781 C 860 138.074219 859.761719 136.269531 859.761719 134.269531 L 859.761719 128.539062 C 859.761719 126.550781 860 124.75 860.488281 123.140625 C 860.972656 121.527344 861.671875 120.15625 862.59375 119.019531 C 863.515625 117.882812 864.640625 117.007812 865.972656 116.390625 C 867.304688 115.769531 868.8125 115.460938 870.492188 115.460938 C 872.027344 115.460938 873.382812 115.691406 874.5625 116.144531 C 875.742188 116.597656 876.746094 117.265625 877.570312 118.148438 C 878.398438 119.027344 879.042969 120.113281 879.503906 121.40625 C 879.96875 122.695312 880.234375 124.179688 880.308594 125.855469 L 876.292969 125.855469 C 876.203125 124.636719 876.035156 123.585938 875.792969 122.703125 C 875.542969 121.824219 875.191406 121.097656 874.726562 120.519531 C 874.261719 119.945312 873.683594 119.519531 872.988281 119.242188 C 872.292969 118.964844 871.460938 118.828125 870.492188 118.828125 C 869.332031 118.828125 868.332031 119.058594 867.492188 119.519531 C 866.652344 119.980469 865.957031 120.628906 865.40625 121.46875 C 864.855469 122.304688 864.449219 123.320312 864.179688 124.511719 C 863.914062 125.707031 863.777344 127.035156 863.777344 128.496094 L 863.777344 134.269531 C 863.777344 135.628906 863.890625 136.902344 864.113281 138.082031 C 864.339844 139.257812 864.699219 140.289062 865.199219 141.167969 C 865.699219 142.046875 866.355469 142.742188 867.167969 143.242188 C 867.976562 143.75 868.960938 144 870.121094 144 C 871.207031 144 872.121094 143.871094 872.871094 143.605469 C 873.613281 143.34375 874.222656 142.933594 874.695312 142.371094 C 875.164062 141.808594 875.523438 141.09375 875.769531 140.21875 C 876.015625 139.347656 876.191406 138.292969 876.292969 137.058594 Z M 880.308594 137.058594 "/>
<path fill-rule="nonzero" fill="rgb(100%, 100%, 100%)" fill-opacity="1" d="M 907.335938 146.898438 L 903.335938 146.898438 L 903.335938 132.5625 L 890.605469 132.5625 L 890.605469 146.898438 L 886.632812 146.898438 L 886.632812 115.886719 L 890.605469 115.886719 L 890.605469 129.21875 L 903.335938 129.21875 L 903.335938 115.886719 L 907.335938 115.886719 Z M 907.335938 146.898438 "/>
<path fill-rule="nonzero" fill="rgb(100%, 100%, 100%)" fill-opacity="1" d="M 930.316406 132.5625 L 919.128906 132.5625 L 919.128906 143.554688 L 932.164062 143.554688 L 932.164062 146.898438 L 915.15625 146.898438 L 915.15625 115.886719 L 931.945312 115.886719 L 931.945312 119.253906 L 919.128906 119.253906 L 919.128906 129.21875 L 930.316406 129.21875 Z M 930.316406 132.5625 "/>
<path fill-rule="nonzero" fill="rgb(100%, 100%, 100%)" fill-opacity="1" d="M 942.179688 131.011719 L 947 131.011719 C 947.914062 131.011719 948.707031 130.855469 949.390625 130.550781 C 950.070312 130.246094 950.640625 129.832031 951.09375 129.316406 C 951.550781 128.796875 951.894531 128.1875 952.128906 127.484375 C 952.359375 126.78125 952.476562 126.023438 952.476562 125.21875 C 952.476562 124.320312 952.371094 123.507812 952.171875 122.777344 C 951.96875 122.046875 951.648438 121.417969 951.214844 120.894531 C 950.78125 120.367188 950.21875 119.964844 949.53125 119.679688 C 948.84375 119.394531 948.015625 119.253906 947.042969 119.253906 L 942.179688 119.253906 Z M 947.738281 134.351562 L 942.179688 134.351562 L 942.179688 146.898438 L 938.183594 146.898438 L 938.183594 115.886719 L 947.042969 115.886719 C 950.144531 115.886719 952.488281 116.679688 954.082031 118.265625 C 955.675781 119.847656 956.472656 122.164062 956.472656 125.21875 C 956.472656 127.132812 956.039062 128.804688 955.179688 130.230469 C 954.316406 131.660156 953.097656 132.734375 951.519531 133.457031 L 957.644531 146.640625 L 957.644531 146.898438 L 953.363281 146.898438 Z M 947.738281 134.351562 "/>
<path fill-rule="nonzero" fill="rgb(100%, 100%, 100%)" fill-opacity="1" d="M 499.851562 182.6875 L 505.957031 182.6875 C 506.925781 182.6875 507.753906 182.539062 508.441406 182.242188 C 509.132812 181.945312 509.695312 181.527344 510.136719 180.996094 C 510.578125 180.460938 510.90625 179.832031 511.117188 179.101562 C 511.324219 178.367188 511.429688 177.5625 511.429688 176.683594 C 511.429688 175.886719 511.324219 175.117188 511.117188 174.371094 C 510.90625 173.625 510.578125 172.96875 510.136719 172.402344 C 509.695312 171.832031 509.132812 171.378906 508.441406 171.039062 C 507.753906 170.699219 506.925781 170.527344 505.957031 170.527344 L 499.851562 170.527344 Z M 499.851562 186.03125 L 499.851562 198.171875 L 495.875 198.171875 L 495.875 167.164062 L 505.957031 167.164062 C 507.476562 167.164062 508.828125 167.398438 510.007812 167.867188 C 511.1875 168.335938 512.175781 168.992188 512.972656 169.835938 C 513.769531 170.679688 514.375 171.679688 514.785156 172.839844 C 515.199219 173.996094 515.40625 175.261719 515.40625 176.640625 C 515.40625 178.132812 515.199219 179.460938 514.785156 180.632812 C 514.375 181.804688 513.765625 182.789062 512.960938 183.582031 C 512.15625 184.378906 511.171875 184.984375 509.996094 185.402344 C 508.824219 185.824219 507.476562 186.03125 505.957031 186.03125 Z M 499.851562 186.03125 "/>
<path fill-rule="nonzero" fill="rgb(100%, 100%, 100%)" fill-opacity="1" d="M 536.128906 184.476562 L 525.441406 184.476562 L 525.441406 198.171875 L 521.46875 198.171875 L 521.46875 167.160156 L 537.933594 167.160156 L 537.933594 170.527344 L 525.441406 170.527344 L 525.441406 181.132812 L 536.128906 181.132812 Z M 536.128906 184.476562 "/>
<path fill-rule="nonzero" fill="rgb(100%, 100%, 100%)" fill-opacity="1" d="M 545.1875 186.714844 L 553.8125 186.714844 L 549.492188 172.613281 Z M 554.835938 190.078125 L 544.144531 190.078125 L 541.691406 198.171875 L 537.605469 198.171875 L 547.796875 167.164062 L 551.207031 167.164062 L 561.417969 198.171875 L 557.332031 198.171875 Z M 554.835938 190.078125 "/>
<path fill-rule="nonzero" fill="rgb(100%, 100%, 100%)" fill-opacity="1" d="M 570.625 170.527344 L 570.625 194.828125 L 573.820312 194.828125 C 576.644531 194.828125 578.699219 194.027344 579.988281 192.421875 C 581.277344 190.816406 581.921875 188.445312 581.921875 185.308594 L 581.921875 180.007812 C 581.921875 176.738281 581.28125 174.34375 580 172.816406 C 578.71875 171.292969 576.78125 170.527344 574.191406 170.527344 Z M 566.652344 198.171875 L 566.652344 167.160156 L 574.191406 167.160156 C 575.96875 167.160156 577.578125 167.4375 579.011719 167.984375 C 580.445312 168.527344 581.667969 169.34375 582.683594 170.429688 C 583.695312 171.515625 584.476562 172.867188 585.027344 174.476562 C 585.578125 176.089844 585.855469 177.953125 585.855469 180.070312 L 585.855469 185.308594 C 585.855469 187.421875 585.578125 189.285156 585.027344 190.886719 C 584.476562 192.492188 583.691406 193.835938 582.660156 194.914062 C 581.632812 195.992188 580.371094 196.804688 578.882812 197.351562 C 577.390625 197.898438 575.703125 198.171875 573.820312 198.171875 Z M 566.652344 198.171875 "/>
<path fill-rule="nonzero" fill="rgb(100%, 100%, 100%)" fill-opacity="1" d="M 607.640625 184.476562 L 596.953125 184.476562 L 596.953125 198.171875 L 592.980469 198.171875 L 592.980469 167.160156 L 609.445312 167.160156 L 609.445312 170.527344 L 596.953125 170.527344 L 596.953125 181.132812 L 607.640625 181.132812 Z M 607.640625 184.476562 "/>
<path fill-rule="nonzero" fill="rgb(100%, 100%, 100%)" fill-opacity="1" d="M 619.4375 198.171875 L 615.460938 198.171875 L 615.460938 167.160156 L 619.4375 167.160156 Z M 619.4375 198.171875 "/>
<path fill-rule="nonzero" fill="rgb(100%, 100%, 100%)" fill-opacity="1" d="M 648.003906 198.171875 L 644.007812 198.171875 L 631.34375 174.277344 L 631.34375 198.171875 L 627.347656 198.171875 L 627.347656 167.164062 L 631.34375 167.164062 L 644.050781 191.164062 L 644.050781 167.164062 L 648.003906 167.164062 Z M 648.003906 198.171875 "/>
<path fill-rule="nonzero" fill="rgb(100%, 100%, 100%)" fill-opacity="1" d="M 659.796875 170.527344 L 659.796875 194.828125 L 662.992188 194.828125 C 665.816406 194.828125 667.871094 194.027344 669.160156 192.421875 C 670.449219 190.816406 671.09375 188.445312 671.09375 185.308594 L 671.09375 180.007812 C 671.09375 176.738281 670.453125 174.34375 669.171875 172.816406 C 667.890625 171.292969 665.953125 170.527344 663.363281 170.527344 Z M 655.824219 198.171875 L 655.824219 167.160156 L 663.363281 167.160156 C 665.140625 167.160156 666.75 167.4375 668.183594 167.984375 C 669.617188 168.527344 670.839844 169.34375 671.855469 170.429688 C 672.867188 171.515625 673.648438 172.867188 674.199219 174.476562 C 674.75 176.089844 675.027344 177.953125 675.027344 180.070312 L 675.027344 185.308594 C 675.027344 187.421875 674.75 189.285156 674.199219 190.886719 C 673.648438 192.492188 672.863281 193.835938 671.832031 194.914062 C 670.804688 195.992188 669.542969 196.804688 668.050781 197.351562 C 666.5625 197.898438 664.875 198.171875 662.992188 198.171875 Z M 655.824219 198.171875 "/>
<path fill-rule="nonzero" fill="rgb(100%, 100%, 100%)" fill-opacity="1" d="M 697.3125 183.839844 L 686.125 183.839844 L 686.125 194.828125 L 699.160156 194.828125 L 699.160156 198.171875 L 682.152344 198.171875 L 682.152344 167.164062 L 698.941406 167.164062 L 698.941406 170.527344 L 686.125 170.527344 L 686.125 180.496094 L 697.3125 180.496094 Z M 697.3125 183.839844 "/>
<path fill-rule="nonzero" fill="rgb(100%, 100%, 100%)" fill-opacity="1" d="M 709.175781 182.285156 L 713.996094 182.285156 C 714.910156 182.285156 715.703125 182.132812 716.386719 181.828125 C 717.066406 181.519531 717.632812 181.109375 718.089844 180.589844 C 718.546875 180.074219 718.890625 179.460938 719.125 178.757812 C 719.355469 178.054688 719.46875 177.300781 719.46875 176.492188 C 719.46875 175.597656 719.367188 174.785156 719.167969 174.050781 C 718.964844 173.320312 718.644531 172.691406 718.210938 172.167969 C 717.777344 171.640625 717.214844 171.238281 716.527344 170.953125 C 715.839844 170.671875 715.007812 170.527344 714.039062 170.527344 L 709.175781 170.527344 Z M 714.734375 185.628906 L 709.175781 185.628906 L 709.175781 198.171875 L 705.175781 198.171875 L 705.175781 167.164062 L 714.039062 167.164062 C 717.136719 167.164062 719.484375 167.953125 721.078125 169.539062 C 722.671875 171.121094 723.46875 173.4375 723.46875 176.492188 C 723.46875 178.40625 723.035156 180.078125 722.175781 181.507812 C 721.3125 182.933594 720.09375 184.007812 718.515625 184.730469 L 724.640625 197.914062 L 724.640625 198.171875 L 720.359375 198.171875 Z M 714.734375 185.628906 "/>
<path fill-rule="nonzero" fill="rgb(100%, 100%, 100%)" fill-opacity="1" d="M 733.484375 177.238281 L 726.921875 175.320312 L 727.921875 172.101562 L 734.480469 174.488281 L 734.289062 167.164062 L 737.609375 167.164062 L 737.390625 174.59375 L 743.84375 172.253906 L 744.84375 175.492188 L 738.175781 177.425781 L 742.476562 183.199219 L 739.78125 185.203125 L 735.742188 179.066406 L 731.832031 185.050781 L 729.117188 183.113281 Z M 733.484375 177.238281 "/>
<path fill-rule="nonzero" fill="rgb(100%, 100%, 100%)" fill-opacity="1" d="M 753.964844 198.171875 L 749.988281 198.171875 L 749.988281 167.160156 L 753.964844 167.160156 Z M 753.964844 198.171875 "/>
<path fill-rule="nonzero" fill="rgb(100%, 100%, 100%)" fill-opacity="1" d="M 782.53125 198.171875 L 778.535156 198.171875 L 765.871094 174.277344 L 765.871094 198.171875 L 761.875 198.171875 L 761.875 167.164062 L 765.871094 167.164062 L 778.578125 191.164062 L 778.578125 167.164062 L 782.53125 167.164062 Z M 782.53125 198.171875 "/>
<path fill-rule="nonzero" fill="rgb(100%, 100%, 100%)" fill-opacity="1" d="M 811.011719 198.171875 L 807.015625 198.171875 L 794.351562 174.277344 L 794.351562 198.171875 L 790.351562 198.171875 L 790.351562 167.164062 L 794.351562 167.164062 L 807.058594 191.164062 L 807.058594 167.164062 L 811.011719 167.164062 Z M 811.011719 198.171875 "/>
<path fill-rule="nonzero" fill="rgb(100%, 100%, 100%)" fill-opacity="1" d="M 833.992188 183.839844 L 822.804688 183.839844 L 822.804688 194.828125 L 835.839844 194.828125 L 835.839844 198.171875 L 818.832031 198.171875 L 818.832031 167.164062 L 835.621094 167.164062 L 835.621094 170.527344 L 822.804688 170.527344 L 822.804688 180.496094 L 833.992188 180.496094 Z M 833.992188 183.839844 "/>
<path fill-rule="nonzero" fill="rgb(100%, 100%, 100%)" fill-opacity="1" d="M 862.515625 198.171875 L 858.519531 198.171875 L 845.855469 174.277344 L 845.855469 198.171875 L 841.855469 198.171875 L 841.855469 167.164062 L 845.855469 167.164062 L 858.5625 191.164062 L 858.5625 167.164062 L 862.515625 167.164062 Z M 862.515625 198.171875 "/>
</svg>
