<?xml version="1.0" encoding="UTF-8"?>
<svg xmlns="http://www.w3.org/2000/svg" xmlns:xlink="http://www.w3.org/1999/xlink" width="1498pt" height="341pt" viewBox="0 0 1498 341" version="1.1">
<g id="surface1">
<path style=" stroke:none;fill-rule:nonzero;fill:rgb(0%,25.881958%,52.940369%);fill-opacity:1;" d="M 741.894531 112.164062 L 734.273438 112.164062 L 751.5 165.027344 L 757.601562 165.027344 L 774.871094 112.164062 L 767.207031 112.164062 L 754.515625 154.824219 Z M 809.1875 134.890625 L 789.554688 134.890625 L 789.554688 117.863281 L 812.050781 117.863281 L 812.050781 112.164062 L 782.582031 112.164062 L 782.582031 165.027344 L 812.433594 165.027344 L 812.433594 159.324219 L 789.554688 159.324219 L 789.554688 140.589844 L 809.1875 140.589844 Z M 849.574219 165.027344 L 857.078125 165.027344 L 857.078125 164.589844 L 846.328125 142.117188 C 849.097656 140.878906 851.242188 139.046875 852.75 136.617188 C 854.265625 134.183594 855.023438 131.332031 855.023438 128.066406 C 855.023438 122.863281 853.625 118.914062 850.828125 116.210938 C 848.035156 113.511719 843.917969 112.164062 838.476562 112.164062 L 822.921875 112.164062 L 822.921875 165.027344 L 829.941406 165.027344 L 829.941406 143.640625 L 839.699219 143.640625 Z M 829.941406 117.863281 L 838.324219 117.863281 C 844.78125 117.863281 848.011719 121.257812 848.011719 128.046875 C 848.011719 131.054688 847.136719 133.457031 845.398438 135.25 C 843.652344 137.042969 841.324219 137.941406 838.402344 137.941406 L 829.941406 137.941406 Z M 880.917969 165.027344 C 885.976562 165.027344 889.867188 163.667969 892.601562 160.957031 C 895.332031 158.246094 896.699219 154.519531 896.699219 149.777344 C 896.699219 146.601562 895.953125 143.894531 894.46875 141.640625 C 892.984375 139.394531 890.96875 137.90625 888.429688 137.179688 C 890.640625 136.136719 892.394531 134.671875 893.6875 132.789062 C 894.980469 130.898438 895.632812 128.71875 895.632812 126.25 C 895.632812 121.554688 894.355469 118.035156 891.800781 115.683594 C 889.246094 113.335938 885.4375 112.164062 880.382812 112.164062 L 864.5625 112.164062 L 864.5625 165.027344 Z M 881.222656 140.296875 C 886.863281 140.296875 889.683594 143.484375 889.683594 149.847656 C 889.683594 152.847656 888.910156 155.179688 887.359375 156.839844 C 885.808594 158.496094 883.710938 159.324219 881.066406 159.324219 L 871.539062 159.324219 L 871.539062 140.296875 Z M 871.539062 117.863281 L 880.382812 117.863281 C 883.152344 117.863281 885.207031 118.527344 886.558594 119.84375 C 887.90625 121.167969 888.578125 123.285156 888.578125 126.195312 C 888.578125 128.769531 887.835938 130.828125 886.347656 132.382812 C 884.863281 133.933594 882.914062 134.710938 880.496094 134.710938 L 871.539062 134.710938 Z M 934.683594 165.027344 L 941.847656 165.027344 L 923.929688 112.164062 L 917.945312 112.164062 L 900.066406 165.027344 L 907.234375 165.027344 L 911.542969 151.195312 L 930.296875 151.195312 Z M 920.917969 121.457031 L 928.503906 145.492188 L 913.367188 145.492188 Z M 982.914062 112.164062 L 975.980469 112.164062 L 975.980469 153.078125 L 953.675781 112.164062 L 946.660156 112.164062 L 946.660156 165.027344 L 953.675781 165.027344 L 953.675781 124.289062 L 975.898438 165.027344 L 982.914062 165.027344 Z M 1006.066406 165.027344 C 1012.976562 165.027344 1018.25 163.121094 1021.886719 159.304688 C 1025.519531 155.492188 1027.335938 150.089844 1027.335938 143.097656 L 1027.335938 134.238281 C 1027.335938 127.246094 1025.550781 121.8125 1021.964844 117.957031 C 1018.378906 114.09375 1013.347656 112.164062 1006.867188 112.164062 L 993.636719 112.164062 L 993.636719 165.027344 Z M 1006.867188 117.863281 C 1011.414062 117.863281 1014.8125 119.167969 1017.066406 121.769531 C 1019.3125 124.371094 1020.441406 128.460938 1020.441406 134.03125 L 1020.441406 143.410156 C 1020.386719 148.664062 1019.230469 152.636719 1016.96875 155.3125 C 1014.707031 157.988281 1011.121094 159.324219 1006.21875 159.324219 L 1000.617188 159.324219 L 1000.617188 117.863281 Z M 1085.984375 148.214844 C 1085.605469 152.667969 1084.613281 155.753906 1083.015625 157.472656 C 1081.414062 159.195312 1078.796875 160.046875 1075.164062 160.046875 C 1071.523438 160.046875 1068.761719 158.621094 1066.871094 155.765625 C 1064.976562 152.914062 1064.027344 148.804688 1064.027344 143.457031 L 1064.027344 133.765625 C 1064.027344 128.320312 1065.042969 124.1875 1067.078125 121.371094 C 1069.113281 118.546875 1072.023438 117.136719 1075.808594 117.136719 C 1079.089844 117.136719 1081.527344 118.058594 1083.128906 119.894531 C 1084.730469 121.734375 1085.683594 124.8125 1085.984375 129.121094 L 1093.035156 129.121094 C 1092.78125 123.429688 1091.191406 119.058594 1088.257812 116.011719 C 1085.320312 112.964844 1081.167969 111.433594 1075.808594 111.433594 C 1069.992188 111.433594 1065.394531 113.433594 1062.03125 117.429688 C 1058.660156 121.421875 1056.976562 126.851562 1056.976562 133.730469 L 1056.976562 143.3125 C 1056.976562 150.210938 1058.617188 155.675781 1061.894531 159.707031 C 1065.167969 163.734375 1069.59375 165.753906 1075.164062 165.753906 C 1080.699219 165.753906 1084.988281 164.242188 1088.027344 161.230469 C 1091.0625 158.21875 1092.734375 153.878906 1093.035156 148.214844 Z M 1137.464844 112.164062 L 1130.445312 112.164062 L 1130.445312 134.890625 L 1108.109375 134.890625 L 1108.109375 112.164062 L 1101.132812 112.164062 L 1101.132812 165.027344 L 1108.109375 165.027344 L 1108.109375 140.589844 L 1130.445312 140.589844 L 1130.445312 165.027344 L 1137.464844 165.027344 Z M 1177.765625 165.027344 L 1185.277344 165.027344 L 1185.277344 164.589844 L 1174.527344 142.117188 C 1177.296875 140.878906 1179.433594 139.046875 1180.949219 136.617188 C 1182.464844 134.183594 1183.21875 131.332031 1183.21875 128.066406 C 1183.21875 122.863281 1181.820312 118.914062 1179.023438 116.210938 C 1176.226562 113.511719 1172.109375 112.164062 1166.675781 112.164062 L 1151.117188 112.164062 L 1151.117188 165.027344 L 1158.132812 165.027344 L 1158.132812 143.640625 L 1167.894531 143.640625 Z M 1158.132812 117.863281 L 1166.523438 117.863281 C 1172.972656 117.863281 1176.203125 121.257812 1176.203125 128.046875 C 1176.203125 131.054688 1175.332031 133.457031 1173.59375 135.25 C 1171.851562 137.042969 1169.519531 137.941406 1166.597656 137.941406 L 1158.132812 137.941406 Z M 1201.410156 112.164062 L 1194.4375 112.164062 L 1194.4375 165.027344 L 1201.410156 165.027344 Z M 1235.769531 157.800781 C 1234.222656 159.300781 1231.90625 160.046875 1228.832031 160.046875 C 1225.527344 160.046875 1222.914062 159.144531 1220.996094 157.328125 C 1219.078125 155.511719 1218.117188 152.972656 1218.117188 149.703125 L 1211.105469 149.703125 C 1211.105469 152.847656 1211.886719 155.636719 1213.449219 158.070312 C 1215.011719 160.503906 1217.160156 162.390625 1219.890625 163.734375 C 1222.621094 165.078125 1225.605469 165.753906 1228.832031 165.753906 C 1233.863281 165.753906 1237.839844 164.464844 1240.765625 161.882812 C 1243.6875 159.304688 1245.144531 155.878906 1245.144531 151.589844 C 1245.144531 147.527344 1243.972656 144.234375 1241.621094 141.714844 C 1239.269531 139.199219 1235.363281 137.082031 1229.898438 135.355469 C 1226.390625 134.167969 1223.800781 132.828125 1222.125 131.324219 C 1220.445312 129.820312 1219.609375 127.953125 1219.609375 125.71875 C 1219.609375 123.003906 1220.382812 120.894531 1221.933594 119.390625 C 1223.480469 117.886719 1225.667969 117.136719 1228.488281 117.136719 C 1231.589844 117.136719 1233.96875 118.035156 1235.617188 119.828125 C 1237.269531 121.613281 1238.09375 124.144531 1238.09375 127.410156 L 1245.113281 127.410156 C 1245.113281 124.460938 1244.421875 121.75 1243.050781 119.285156 C 1241.679688 116.816406 1239.71875 114.894531 1237.179688 113.511719 C 1234.640625 112.128906 1231.738281 111.433594 1228.488281 111.433594 C 1223.734375 111.433594 1219.890625 112.792969 1216.957031 115.503906 C 1214.023438 118.214844 1212.550781 121.664062 1212.550781 125.851562 C 1212.550781 128.269531 1213.070312 130.417969 1214.101562 132.292969 C 1215.125 134.167969 1216.679688 135.839844 1218.75 137.304688 C 1220.820312 138.769531 1223.8125 140.167969 1227.726562 141.5 C 1231.636719 142.828125 1234.347656 144.195312 1235.847656 145.601562 C 1237.347656 147.003906 1238.09375 149.027344 1238.09375 151.664062 C 1238.09375 154.257812 1237.320312 156.296875 1235.769531 157.800781 M 1284.007812 112.164062 L 1247.867188 112.164062 L 1247.867188 117.863281 L 1262.429688 117.863281 L 1262.429688 165.027344 L 1269.402344 165.027344 L 1269.402344 117.863281 L 1284.007812 117.863281 Z M 1296.484375 112.164062 L 1289.472656 112.164062 L 1289.472656 165.027344 L 1318.25 165.027344 L 1318.25 159.324219 L 1296.484375 159.324219 Z M 1331.109375 112.164062 L 1324.136719 112.164062 L 1324.136719 165.027344 L 1331.109375 165.027344 Z M 1366.804688 148.214844 C 1366.425781 152.667969 1365.433594 155.753906 1363.832031 157.472656 C 1362.230469 159.195312 1359.609375 160.046875 1355.976562 160.046875 C 1352.34375 160.046875 1349.578125 158.621094 1347.683594 155.765625 C 1345.792969 152.914062 1344.847656 148.804688 1344.847656 143.457031 L 1344.847656 133.765625 C 1344.847656 128.320312 1345.863281 124.1875 1347.894531 121.371094 C 1349.925781 118.546875 1352.835938 117.136719 1356.625 117.136719 C 1359.902344 117.136719 1362.347656 118.058594 1363.941406 119.894531 C 1365.542969 121.734375 1366.496094 124.8125 1366.804688 129.121094 L 1373.855469 129.121094 C 1373.601562 123.429688 1372.007812 119.058594 1369.070312 116.011719 C 1366.136719 112.964844 1361.988281 111.433594 1356.625 111.433594 C 1350.804688 111.433594 1346.210938 113.433594 1342.84375 117.429688 C 1339.476562 121.421875 1337.792969 126.851562 1337.792969 133.730469 L 1337.792969 143.3125 C 1337.792969 150.210938 1339.429688 155.675781 1342.714844 159.707031 C 1345.988281 163.734375 1350.410156 165.753906 1355.976562 165.753906 C 1361.515625 165.753906 1365.808594 164.242188 1368.839844 161.230469 C 1371.878906 158.21875 1373.550781 153.878906 1373.855469 148.214844 Z M 1416.90625 112.164062 L 1409.894531 112.164062 L 1409.894531 134.890625 L 1387.554688 134.890625 L 1387.554688 112.164062 L 1380.578125 112.164062 L 1380.578125 165.027344 L 1387.554688 165.027344 L 1387.554688 140.589844 L 1409.894531 140.589844 L 1409.894531 165.027344 L 1416.90625 165.027344 Z M 1452.867188 134.890625 L 1433.234375 134.890625 L 1433.234375 117.863281 L 1455.726562 117.863281 L 1455.726562 112.164062 L 1426.257812 112.164062 L 1426.257812 165.027344 L 1456.109375 165.027344 L 1456.109375 159.324219 L 1433.234375 159.324219 L 1433.234375 140.589844 L 1452.867188 140.589844 Z M 1490.316406 165.027344 L 1497.824219 165.027344 L 1497.824219 164.589844 L 1487.078125 142.117188 C 1489.847656 140.878906 1491.984375 139.046875 1493.5 136.617188 C 1495.007812 134.183594 1495.765625 131.332031 1495.765625 128.066406 C 1495.765625 122.863281 1494.367188 118.914062 1491.574219 116.210938 C 1488.777344 113.511719 1484.660156 112.164062 1479.222656 112.164062 L 1463.667969 112.164062 L 1463.667969 165.027344 L 1470.683594 165.027344 L 1470.683594 143.640625 L 1480.441406 143.640625 Z M 1470.683594 117.863281 L 1479.066406 117.863281 C 1485.523438 117.863281 1488.75 121.257812 1488.75 128.046875 C 1488.75 131.054688 1487.882812 133.457031 1486.140625 135.25 C 1484.398438 137.042969 1482.066406 137.941406 1479.144531 137.941406 L 1470.683594 137.941406 Z M 756.839844 232.261719 C 761.949219 232.164062 765.902344 230.742188 768.710938 227.992188 C 771.519531 225.25 772.925781 221.332031 772.925781 216.253906 C 772.925781 211.363281 771.449219 207.445312 768.507812 204.507812 C 765.558594 201.566406 761.503906 200.089844 756.347656 200.089844 L 738.65625 200.089844 L 738.65625 252.953125 L 745.632812 252.953125 L 745.632812 232.261719 Z M 745.632812 205.796875 L 756.378906 205.796875 C 759.355469 205.796875 761.695312 206.753906 763.398438 208.667969 C 765.097656 210.582031 765.953125 213.132812 765.953125 216.304688 C 765.953125 219.601562 765.121094 222.136719 763.472656 223.90625 C 761.820312 225.675781 759.441406 226.5625 756.347656 226.5625 L 745.632812 226.5625 Z M 806.292969 223.910156 L 787.539062 223.910156 L 787.539062 205.796875 L 809.457031 205.796875 L 809.457031 200.089844 L 780.5625 200.089844 L 780.5625 252.953125 L 787.539062 252.953125 L 787.539062 229.609375 L 806.292969 229.609375 Z M 842.0625 252.953125 L 849.230469 252.953125 L 831.3125 200.089844 L 825.328125 200.089844 L 807.449219 252.953125 L 814.613281 252.953125 L 818.921875 239.121094 L 837.679688 239.121094 Z M 828.304688 209.390625 L 835.886719 233.421875 L 820.753906 233.421875 Z M 866.472656 252.953125 C 873.386719 252.953125 878.660156 251.046875 882.292969 247.238281 C 885.925781 243.425781 887.742188 238.023438 887.742188 231.027344 L 887.742188 222.167969 C 887.742188 215.171875 885.949219 209.746094 882.371094 205.882812 C 878.785156 202.027344 873.75 200.089844 867.269531 200.089844 L 854.042969 200.089844 L 854.042969 252.953125 Z M 867.269531 205.796875 C 871.820312 205.796875 875.222656 207.09375 877.46875 209.699219 C 879.71875 212.304688 880.84375 216.394531 880.84375 221.964844 L 880.84375 231.339844 C 880.792969 236.597656 879.636719 240.5625 877.375 243.238281 C 875.113281 245.917969 871.527344 247.253906 866.625 247.253906 L 861.019531 247.253906 L 861.019531 205.796875 Z M 921.605469 223.910156 L 902.851562 223.910156 L 902.851562 205.796875 L 924.773438 205.796875 L 924.773438 200.089844 L 895.875 200.089844 L 895.875 252.953125 L 902.851562 252.953125 L 902.851562 229.609375 L 921.605469 229.609375 Z M 938.324219 200.089844 L 931.351562 200.089844 L 931.351562 252.953125 L 938.324219 252.953125 Z M 985.25 200.089844 L 978.316406 200.089844 L 978.316406 241.011719 L 956.011719 200.089844 L 949 200.089844 L 949 252.953125 L 956.011719 252.953125 L 956.011719 212.21875 L 978.238281 252.953125 L 985.25 252.953125 Z M 1008.207031 252.953125 C 1015.117188 252.953125 1020.390625 251.046875 1024.023438 247.238281 C 1027.65625 243.425781 1029.472656 238.023438 1029.472656 231.027344 L 1029.472656 222.167969 C 1029.472656 215.171875 1027.6875 209.746094 1024.101562 205.882812 C 1020.515625 202.027344 1015.488281 200.089844 1009.007812 200.089844 L 995.777344 200.089844 L 995.777344 252.953125 Z M 1009.007812 205.796875 C 1013.554688 205.796875 1016.953125 207.09375 1019.203125 209.699219 C 1021.449219 212.304688 1022.578125 216.394531 1022.578125 221.964844 L 1022.578125 231.339844 C 1022.523438 236.597656 1021.367188 240.5625 1019.105469 243.238281 C 1016.84375 245.917969 1013.261719 247.253906 1008.355469 247.253906 L 1002.753906 247.253906 L 1002.753906 205.796875 Z M 1065.390625 222.820312 L 1045.757812 222.820312 L 1045.757812 205.796875 L 1068.246094 205.796875 L 1068.246094 200.089844 L 1038.777344 200.089844 L 1038.777344 252.953125 L 1068.625 252.953125 L 1068.625 247.253906 L 1045.757812 247.253906 L 1045.757812 228.519531 L 1065.390625 228.519531 Z M 1104.003906 252.953125 L 1111.515625 252.953125 L 1111.515625 252.519531 L 1100.765625 230.046875 C 1103.535156 228.8125 1105.675781 226.976562 1107.1875 224.542969 C 1108.699219 222.113281 1109.453125 219.265625 1109.453125 216 C 1109.453125 210.792969 1108.058594 206.839844 1105.265625 204.140625 C 1102.464844 201.445312 1098.351562 200.089844 1092.914062 200.089844 L 1077.359375 200.089844 L 1077.359375 252.953125 L 1084.371094 252.953125 L 1084.371094 231.574219 L 1094.128906 231.574219 Z M 1084.371094 205.796875 L 1092.757812 205.796875 C 1099.214844 205.796875 1102.441406 209.191406 1102.441406 215.976562 C 1102.441406 218.988281 1101.574219 221.382812 1099.828125 223.183594 C 1098.089844 224.972656 1095.757812 225.875 1092.835938 225.875 L 1084.371094 225.875 Z M 1128.824219 200.089844 L 1121.851562 200.089844 L 1121.851562 252.953125 L 1128.824219 252.953125 Z M 1178.683594 200.089844 L 1171.746094 200.089844 L 1171.746094 241.011719 L 1149.449219 200.089844 L 1142.429688 200.089844 L 1142.429688 252.953125 L 1149.449219 252.953125 L 1149.449219 212.21875 L 1171.667969 252.953125 L 1178.683594 252.953125 Z M 1225.457031 200.089844 L 1218.523438 200.089844 L 1218.523438 241.011719 L 1196.21875 200.089844 L 1189.207031 200.089844 L 1189.207031 252.953125 L 1196.21875 252.953125 L 1196.21875 212.21875 L 1218.445312 252.953125 L 1225.457031 252.953125 Z M 1262.589844 222.820312 L 1242.960938 222.820312 L 1242.960938 205.796875 L 1265.453125 205.796875 L 1265.453125 200.089844 L 1235.984375 200.089844 L 1235.984375 252.953125 L 1265.832031 252.953125 L 1265.832031 247.253906 L 1242.960938 247.253906 L 1242.960938 228.519531 L 1262.589844 228.519531 Z M 1310.816406 200.089844 L 1303.875 200.089844 L 1303.875 241.011719 L 1281.578125 200.089844 L 1274.566406 200.089844 L 1274.566406 252.953125 L 1281.578125 252.953125 L 1281.578125 212.21875 L 1303.804688 252.953125 L 1310.816406 252.953125 Z M 1369.398438 200.089844 L 1369.398438 237.386719 C 1369.398438 240.945312 1368.601562 243.597656 1367.015625 245.347656 C 1365.425781 247.101562 1362.851562 247.980469 1359.296875 247.980469 C 1355.761719 247.980469 1353.203125 247.101562 1351.617188 245.347656 C 1350.027344 243.597656 1349.230469 240.945312 1349.230469 237.386719 L 1349.230469 200.089844 L 1342.292969 200.089844 L 1342.292969 237.671875 C 1342.347656 242.800781 1343.820312 246.75 1346.71875 249.527344 C 1349.613281 252.292969 1353.808594 253.679688 1359.296875 253.679688 C 1364.660156 253.679688 1368.839844 252.265625 1371.839844 249.433594 C 1374.839844 246.597656 1376.359375 242.683594 1376.410156 237.671875 L 1376.410156 200.089844 Z M 1420.679688 200.089844 L 1413.746094 200.089844 L 1413.746094 241.011719 L 1391.441406 200.089844 L 1384.429688 200.089844 L 1384.429688 252.953125 L 1391.441406 252.953125 L 1391.441406 212.21875 L 1413.667969 252.953125 L 1420.679688 252.953125 Z M 1443.835938 252.953125 C 1450.746094 252.953125 1456.019531 251.046875 1459.652344 247.238281 C 1463.285156 243.425781 1465.105469 238.023438 1465.105469 231.027344 L 1465.105469 222.167969 C 1465.105469 215.171875 1463.316406 209.746094 1459.730469 205.882812 C 1456.148438 202.027344 1451.117188 200.089844 1444.636719 200.089844 L 1431.40625 200.089844 L 1431.40625 252.953125 Z M 1444.636719 205.796875 C 1449.183594 205.796875 1452.582031 207.09375 1454.832031 209.699219 C 1457.078125 212.304688 1458.207031 216.394531 1458.207031 221.964844 L 1458.207031 231.339844 C 1458.152344 236.597656 1456.996094 240.5625 1454.734375 243.238281 C 1452.472656 245.917969 1448.890625 247.253906 1443.988281 247.253906 L 1438.386719 247.253906 L 1438.386719 205.796875 Z M 756.839844 320.191406 C 761.949219 320.09375 765.902344 318.671875 768.710938 315.921875 C 771.519531 313.179688 772.925781 309.261719 772.925781 304.183594 C 772.925781 299.292969 771.449219 295.378906 768.507812 292.4375 C 765.558594 289.496094 761.503906 288.023438 756.347656 288.023438 L 738.65625 288.023438 L 738.65625 340.882812 L 745.632812 340.882812 L 745.632812 320.191406 Z M 745.632812 293.726562 L 756.378906 293.726562 C 759.355469 293.726562 761.695312 294.683594 763.398438 296.597656 C 765.097656 298.511719 765.953125 301.0625 765.953125 304.238281 C 765.953125 307.535156 765.121094 310.066406 763.472656 311.835938 C 761.820312 313.609375 759.441406 314.492188 756.347656 314.492188 L 745.632812 314.492188 Z M 806.292969 311.839844 L 787.539062 311.839844 L 787.539062 293.726562 L 809.457031 293.726562 L 809.457031 288.023438 L 780.5625 288.023438 L 780.5625 340.882812 L 787.539062 340.882812 L 787.539062 317.539062 L 806.292969 317.539062 Z M 842.0625 340.882812 L 849.230469 340.882812 L 831.3125 288.023438 L 825.328125 288.023438 L 807.449219 340.882812 L 814.613281 340.882812 L 818.921875 327.054688 L 837.679688 327.054688 Z M 828.304688 297.320312 L 835.886719 321.355469 L 820.753906 321.355469 Z M 866.472656 340.882812 C 873.386719 340.882812 878.660156 338.980469 882.292969 335.171875 C 885.925781 331.355469 887.742188 325.953125 887.742188 318.957031 L 887.742188 310.097656 C 887.742188 303.101562 885.949219 297.675781 882.371094 293.816406 C 878.785156 289.957031 873.75 288.023438 867.269531 288.023438 L 854.042969 288.023438 L 854.042969 340.882812 Z M 867.269531 293.726562 C 871.820312 293.726562 875.222656 295.027344 877.46875 297.628906 C 879.71875 300.238281 880.84375 304.324219 880.84375 309.898438 L 880.84375 319.269531 C 880.792969 324.527344 879.636719 328.496094 877.375 331.171875 C 875.113281 333.847656 871.527344 335.183594 866.625 335.183594 L 861.019531 335.183594 L 861.019531 293.726562 Z M 921.605469 311.839844 L 902.851562 311.839844 L 902.851562 293.726562 L 924.773438 293.726562 L 924.773438 288.023438 L 895.875 288.023438 L 895.875 340.882812 L 902.851562 340.882812 L 902.851562 317.539062 L 921.605469 317.539062 Z M 938.324219 288.023438 L 931.351562 288.023438 L 931.351562 340.882812 L 938.324219 340.882812 Z M 985.25 288.023438 L 978.316406 288.023438 L 978.316406 328.945312 L 956.011719 288.023438 L 949 288.023438 L 949 340.882812 L 956.011719 340.882812 L 956.011719 300.148438 L 978.238281 340.882812 L 985.25 340.882812 Z M 1008.207031 340.882812 C 1015.117188 340.882812 1020.390625 338.980469 1024.023438 335.171875 C 1027.65625 331.355469 1029.472656 325.953125 1029.472656 318.957031 L 1029.472656 310.097656 C 1029.472656 303.101562 1027.6875 297.675781 1024.101562 293.816406 C 1020.515625 289.957031 1015.488281 288.023438 1009.007812 288.023438 L 995.777344 288.023438 L 995.777344 340.882812 Z M 1009.007812 293.726562 C 1013.554688 293.726562 1016.953125 295.027344 1019.203125 297.628906 C 1021.449219 300.238281 1022.578125 304.324219 1022.578125 309.898438 L 1022.578125 319.269531 C 1022.523438 324.527344 1021.367188 328.496094 1019.105469 331.171875 C 1016.84375 333.847656 1013.261719 335.183594 1008.355469 335.183594 L 1002.753906 335.183594 L 1002.753906 293.726562 Z M 1065.390625 310.75 L 1045.757812 310.75 L 1045.757812 293.726562 L 1068.246094 293.726562 L 1068.246094 288.023438 L 1038.777344 288.023438 L 1038.777344 340.882812 L 1068.625 340.882812 L 1068.625 335.183594 L 1045.757812 335.183594 L 1045.757812 316.449219 L 1065.390625 316.449219 Z M 1104.003906 340.882812 L 1111.515625 340.882812 L 1111.515625 340.449219 L 1100.765625 317.980469 C 1103.535156 316.742188 1105.675781 314.90625 1107.1875 312.476562 C 1108.699219 310.042969 1109.453125 307.195312 1109.453125 303.929688 C 1109.453125 298.722656 1108.058594 294.773438 1105.265625 292.070312 C 1102.464844 289.375 1098.351562 288.023438 1092.914062 288.023438 L 1077.359375 288.023438 L 1077.359375 340.882812 L 1084.371094 340.882812 L 1084.371094 319.503906 L 1094.128906 319.503906 Z M 1084.371094 293.726562 L 1092.757812 293.726562 C 1099.214844 293.726562 1102.441406 297.121094 1102.441406 303.910156 C 1102.441406 306.917969 1101.574219 309.316406 1099.828125 311.113281 C 1098.089844 312.90625 1095.757812 313.804688 1092.835938 313.804688 L 1084.371094 313.804688 Z M 1084.371094 293.726562 "/>
<path style=" stroke:none;fill-rule:nonzero;fill:rgb(0%,25.881958%,52.940369%);fill-opacity:1;" d="M 491.6875 155.347656 C 491.6875 155.347656 494.339844 158.65625 504.046875 168.046875 C 505.988281 163.066406 518.167969 130.773438 519.828125 124.707031 C 521.492188 118.621094 524.8125 99.042969 518.734375 77.792969 C 512.636719 56.53125 491.6875 28.675781 491.6875 28.675781 L 491.46875 28.675781 C 491.46875 28.675781 470.542969 56.53125 464.46875 77.792969 C 458.355469 99.042969 461.679688 118.621094 463.347656 124.707031 C 465 130.773438 477.1875 163.066406 479.136719 168.046875 C 488.832031 158.65625 491.46875 155.347656 491.46875 155.347656 Z M 491.6875 301.285156 C 493.808594 297.402344 502.1875 292.011719 506.75 282.753906 C 491.117188 255.847656 495.289062 224.253906 495.289062 224.253906 L 510.417969 223.144531 L 513.171875 219.011719 L 509.046875 214.09375 L 496.113281 213.8125 C 496.398438 200.402344 501.902344 177.636719 501.902344 177.636719 L 491.6875 167.5 L 491.46875 167.5 L 481.277344 177.636719 C 481.277344 177.636719 486.785156 200.402344 487.046875 213.8125 L 474.121094 214.09375 L 470.003906 219.011719 L 472.753906 223.144531 L 487.871094 224.253906 C 487.871094 224.253906 492.058594 255.847656 476.417969 282.753906 C 480.96875 292.011719 489.375 297.402344 491.46875 301.285156 Z M 410.3125 279.351562 C 413.335938 286.46875 428.351562 304.820312 449.371094 294.679688 C 483.480469 278.253906 479.359375 231.640625 479.359375 231.640625 C 479.359375 231.640625 477.703125 231.929688 473.03125 231.929688 C 467.796875 254.382812 455.695312 267.285156 440.566406 266.992188 C 425.445312 266.730469 416.910156 253.574219 417.183594 237.125 C 402.339844 253.84375 407.277344 272.210938 410.3125 279.351562 M 417.144531 153.863281 C 460.574219 154.851562 473.960938 206.203125 473.960938 206.203125 C 473.960938 206.203125 475.914062 206.074219 477.984375 206.074219 C 475.234375 185.929688 465.820312 146.40625 444.601562 126.5 C 423.386719 106.617188 400.953125 109.730469 381.417969 118.714844 C 360.515625 128.300781 353.757812 157.585938 365.730469 176.734375 C 377.710938 195.875 387.398438 200.054688 401.890625 203.527344 C 400.171875 201.398438 391.449219 189.910156 393.1875 176.734375 C 393.457031 165.859375 403.660156 153.554688 417.144531 153.863281 M 491.6875 16.195312 C 491.6875 16.195312 504.445312 31.128906 519.265625 57.132812 C 533.410156 81.921875 530.386719 112.523438 530.386719 116.132812 C 530.386719 119.730469 529.363281 120.761719 530.128906 121.535156 C 530.914062 122.304688 530.914062 121.285156 534.269531 118.191406 C 555.210938 97.835938 587.214844 103.210938 598.167969 107.734375 C 610.332031 112.746094 630.269531 126.082031 630.90625 151.597656 C 632.15625 201.308594 586.234375 212.941406 576.40625 212.476562 C 564.863281 211.917969 571.519531 201.867188 573.144531 199.683594 C 577.878906 193.320312 582.457031 184.839844 580.949219 175.160156 C 579.824219 167.972656 570.953125 159.941406 557.292969 163.851562 C 521.851562 174.003906 518.238281 209.65625 518.238281 209.65625 L 523.929688 219.433594 C 523.929688 219.433594 520.832031 223.039062 518.238281 227.15625 C 521.332031 246.746094 531.175781 260.132812 545.640625 257.824219 C 560.121094 255.488281 556.246094 233.332031 555.730469 229.492188 C 555.210938 225.609375 557.960938 215.558594 572.441406 222.761719 C 619.746094 247.046875 642.074219 212.589844 638.191406 188.519531 C 633.46875 159.226562 638.277344 138.007812 639.054688 128.542969 C 639.972656 117.308594 637.316406 101.191406 624.746094 92.695312 C 603.820312 78.511719 589.332031 86.25 572.789062 92.421875 C 556.246094 98.609375 556.246094 82.386719 558.316406 77.226562 C 560.382812 72.082031 564.523438 58.171875 565.023438 47.085938 C 565.542969 36.003906 559.085938 23.902344 548.492188 15.921875 C 537.890625 7.9375 520.832031 8.710938 515.140625 10.253906 C 509.449219 11.804688 491.6875 12.597656 491.6875 12.597656 L 491.46875 12.597656 C 491.46875 12.597656 473.730469 11.804688 468.03125 10.253906 C 462.347656 8.710938 445.285156 7.9375 434.691406 15.921875 C 424.089844 23.902344 417.621094 36.003906 418.140625 47.085938 C 418.65625 58.171875 422.800781 72.082031 424.855469 77.226562 C 426.941406 82.386719 426.941406 98.609375 410.382812 92.421875 C 393.832031 86.25 379.363281 78.511719 358.425781 92.695312 C 345.855469 101.191406 343.199219 117.308594 344.121094 128.542969 C 344.902344 138.007812 349.703125 159.226562 344.984375 188.519531 C 341.109375 212.589844 363.433594 247.046875 410.746094 222.761719 C 425.226562 215.558594 427.972656 225.609375 427.453125 229.492188 C 426.941406 233.332031 423.046875 255.488281 437.527344 257.824219 C 452.007812 260.132812 461.832031 246.746094 464.929688 227.15625 C 462.347656 223.039062 459.25 219.433594 459.25 219.433594 L 464.929688 209.65625 C 464.929688 209.65625 461.316406 174.003906 425.882812 163.851562 C 412.226562 159.941406 403.347656 167.972656 402.222656 175.160156 C 400.710938 184.839844 405.300781 193.320312 410.039062 199.683594 C 411.667969 201.867188 418.316406 211.917969 406.757812 212.476562 C 396.941406 212.941406 351.023438 201.308594 352.269531 151.597656 C 352.902344 126.082031 372.847656 112.746094 385.003906 107.734375 C 395.964844 103.210938 427.972656 97.835938 448.902344 118.191406 C 452.261719 121.285156 452.261719 122.304688 453.039062 121.535156 C 453.8125 120.761719 452.78125 119.730469 452.78125 116.132812 C 452.78125 112.523438 449.773438 81.921875 463.898438 57.132812 C 478.707031 31.128906 491.46875 16.195312 491.46875 16.195312 Z M 491.46875 316.4375 C 486.167969 307.320312 474.714844 297.304688 470.441406 290.132812 C 458.917969 301 446.246094 307.839844 428.574219 303.878906 C 410.910156 299.925781 384.398438 271.738281 407.816406 234.320312 C 376.902344 241.820312 363.199219 237.648438 353.484375 230.367188 C 343.75 223.109375 333.246094 209.65625 335.898438 188.171875 C 338.777344 164.746094 339.371094 159.351562 335.234375 128.015625 C 331.492188 99.640625 360.242188 60.59375 411.90625 83.601562 C 415.554688 85.359375 417.597656 84.894531 416.722656 81.378906 C 415.835938 77.859375 407.039062 57.125 409.367188 43.265625 C 411.796875 28.742188 418.203125 11.125 445.8125 2.335938 C 460.332031 -2.296875 475.078125 4.574219 491.46875 4.332031 L 491.6875 4.332031 C 508.101562 4.574219 522.851562 -2.296875 537.371094 2.335938 C 564.96875 11.125 571.382812 28.742188 573.808594 43.265625 C 576.117188 57.125 567.339844 77.859375 566.453125 81.378906 C 565.574219 84.894531 567.613281 85.359375 571.277344 83.601562 C 622.933594 60.59375 651.683594 99.640625 647.929688 128.015625 C 643.808594 159.351562 644.394531 164.746094 647.269531 188.171875 C 649.921875 209.65625 639.425781 223.109375 629.6875 230.367188 C 619.96875 237.648438 606.265625 241.820312 575.355469 234.320312 C 598.769531 271.738281 572.265625 299.925781 554.597656 303.878906 C 536.9375 307.839844 524.257812 301 512.726562 290.132812 C 508.464844 297.304688 497.011719 307.320312 491.6875 316.4375 Z M 565.980469 237.125 C 566.265625 253.574219 557.738281 266.730469 542.613281 266.992188 C 527.480469 267.285156 515.363281 254.382812 510.144531 231.929688 C 505.472656 231.929688 503.824219 231.640625 503.824219 231.640625 C 503.824219 231.640625 499.699219 278.253906 533.804688 294.679688 C 554.8125 304.820312 569.84375 286.46875 572.863281 279.351562 C 575.894531 272.210938 580.84375 253.84375 565.980469 237.125 M 589.992188 176.734375 C 591.730469 189.910156 582.996094 201.398438 581.304688 203.527344 C 595.777344 200.054688 605.457031 195.875 617.425781 176.734375 C 629.414062 157.585938 622.65625 128.300781 601.75 118.714844 C 582.230469 109.730469 559.792969 106.617188 538.578125 126.5 C 517.359375 146.40625 507.9375 185.929688 505.1875 206.074219 C 507.257812 206.074219 509.21875 206.203125 509.21875 206.203125 C 509.21875 206.203125 522.609375 154.851562 566.023438 153.863281 C 579.527344 153.554688 589.714844 165.859375 589.992188 176.734375 "/>
<path style=" stroke:none;fill-rule:nonzero;fill:rgb(0%,25.881958%,52.940369%);fill-opacity:1;" d="M 128.046875 207.511719 C 137.019531 207.511719 142.816406 205.0625 148.921875 201.921875 C 149.914062 201.414062 150.792969 200.628906 150.792969 200.628906 C 153.894531 198.378906 153.808594 193.976562 152.128906 192.085938 C 152.128906 192.085938 150.933594 190.796875 150.171875 190.066406 C 149.648438 189.558594 148.257812 188.351562 147.710938 187.828125 C 146.976562 187.128906 145.582031 186.234375 142.789062 186.6875 C 140.503906 187.058594 138.148438 188.671875 136.515625 189.308594 C 133.996094 190.289062 130.984375 191.050781 127.863281 191.050781 C 121.074219 191.050781 115.886719 188.609375 112.296875 183.714844 C 108.707031 178.828125 106.910156 171.40625 106.910156 161.457031 L 106.910156 158.144531 C 106.96875 148.308594 108.800781 140.976562 112.421875 136.140625 C 116.042969 131.304688 121.1875 128.886719 127.863281 128.886719 C 130.683594 128.886719 133.175781 129.394531 135.457031 130.375 C 136.933594 131.011719 140.417969 132.746094 142.519531 132.746094 C 144.847656 132.746094 146.542969 131.152344 146.777344 130.90625 C 147.273438 130.386719 148.121094 129.492188 148.59375 128.980469 C 149.289062 128.222656 151.003906 126.347656 151.003906 126.347656 C 152.519531 124.457031 153.253906 121.058594 149.902344 118.527344 C 149.902344 118.527344 149.058594 117.71875 147.597656 116.902344 C 142.058594 113.8125 135.738281 112.34375 128.027344 112.34375 C 115.136719 112.34375 104.964844 116.546875 97.5 124.941406 C 90.03125 133.339844 86.300781 144.523438 86.300781 158.488281 L 86.300781 160.609375 C 86.300781 175.25 90.058594 186.730469 97.582031 195.042969 C 105.105469 203.355469 115.277344 207.511719 128.117188 207.511719 Z M 239.050781 125.078125 C 245.414062 133.417969 248.59375 144.992188 248.59375 159.8125 L 248.59375 161.082031 C 248.59375 175.277344 245.371094 186.597656 238.925781 195.050781 C 232.484375 203.503906 223.828125 207.730469 212.972656 207.730469 C 202.90625 207.730469 194.847656 204.421875 188.804688 197.808594 L 188.804688 233.917969 L 187.246094 118.597656 L 188.804688 234.414062 L 188.78125 234.800781 C 188.78125 238.332031 186.25 241.296875 182.625 241.296875 L 174.371094 241.316406 C 170.734375 241.316406 168.128906 238.355469 168.128906 234.570312 L 168.1875 119.261719 C 168.1875 116.378906 170.230469 114.265625 173.183594 114.265625 C 173.183594 114.265625 183.019531 114.253906 183.074219 114.253906 C 185.609375 114.253906 187.460938 116.046875 187.648438 119.175781 L 188.035156 123.59375 C 194.085938 116.242188 202.316406 112.570312 212.71875 112.570312 C 223.914062 112.570312 232.691406 116.734375 239.050781 125.078125 M 222.515625 183.34375 C 226.21875 178.058594 228.066406 170.042969 228.066406 159.296875 C 228.066406 150.140625 226.246094 142.875 222.597656 137.5 C 218.957031 132.128906 213.734375 129.449219 206.953125 129.449219 C 198.527344 129.449219 192.476562 132.921875 188.804688 139.875 L 188.804688 180.585938 C 192.527344 187.710938 198.640625 191.277344 207.121094 191.277344 C 213.679688 191.277344 218.808594 188.632812 222.515625 183.34375 M 41.085938 176.714844 C 41.4375 175.527344 58.238281 119.769531 58.691406 118.402344 C 59.292969 116.566406 60.183594 112.839844 65.113281 112.839844 L 75.394531 112.839844 C 80.066406 112.839844 81.023438 116.46875 79.964844 119.492188 L 50.820312 202.375 C 50.105469 204.347656 47.726562 206.421875 45.191406 206.421875 L 35.285156 206.421875 C 32.746094 206.421875 30.371094 204.347656 29.652344 202.375 L 0.507812 119.492188 C -0.554688 116.46875 0.410156 112.839844 5.078125 112.839844 L 15.359375 112.839844 C 20.292969 112.839844 21.179688 116.566406 21.785156 118.402344 C 22.234375 119.769531 39.039062 175.539062 39.386719 176.714844 C 39.734375 177.890625 40.734375 177.902344 41.085938 176.714844 "/>
</g>
</svg>
