<?xml version="1.0" encoding="UTF-8"?>
<svg xmlns="http://www.w3.org/2000/svg" xmlns:xlink="http://www.w3.org/1999/xlink" width="2243" height="465" viewBox="0 0 2243 465">
<path fill-rule="nonzero" fill="rgb(0%, 25.881958%, 52.941895%)" fill-opacity="1" d="M 868.011719 259.003906 C 870.558594 278.375 857.71875 295.261719 855.230469 298.394531 C 876.511719 293.289062 890.738281 287.140625 908.339844 259.003906 C 925.960938 230.851562 916.019531 187.800781 885.289062 173.707031 C 856.589844 160.496094 823.609375 155.921875 792.421875 185.152344 C 761.21875 214.417969 747.371094 272.523438 743.328125 302.140625 C 746.371094 302.140625 749.253906 302.328125 749.253906 302.328125 C 749.253906 302.328125 768.941406 226.832031 832.769531 225.378906 C 852.621094 224.929688 867.601562 243.015625 868.011719 259.003906 M 832.699219 347.789062 C 833.121094 371.972656 820.578125 391.3125 798.351562 391.695312 C 776.101562 392.125 758.289062 373.15625 750.617188 340.152344 C 743.742188 340.152344 741.324219 339.726562 741.324219 339.726562 C 741.324219 339.726562 735.257812 408.253906 785.398438 432.40625 C 816.28125 447.3125 838.378906 420.328125 842.820312 409.867188 C 847.28125 399.371094 854.550781 372.367188 832.699219 347.789062 M 723.160156 464.390625 C 715.363281 450.988281 698.523438 436.261719 692.242188 425.71875 C 675.304688 441.695312 656.675781 451.746094 630.695312 445.925781 C 604.726562 440.117188 565.746094 398.675781 600.175781 343.660156 C 554.726562 354.691406 534.578125 348.558594 520.300781 337.851562 C 505.988281 327.183594 490.546875 307.402344 494.445312 275.820312 C 498.679688 241.378906 499.550781 233.449219 493.46875 187.378906 C 487.96875 145.660156 530.234375 88.257812 606.191406 122.082031 C 611.554688 124.667969 614.558594 123.984375 613.273438 118.816406 C 611.964844 113.640625 599.03125 83.160156 602.460938 62.785156 C 606.027344 41.433594 615.445312 15.53125 656.035156 2.609375 C 677.378906 -4.203125 699.0625 5.898438 723.160156 5.546875 L 723.484375 5.546875 C 747.613281 5.898438 769.300781 -4.203125 790.640625 2.609375 C 831.21875 15.53125 840.640625 41.433594 844.210938 62.785156 C 847.609375 83.160156 834.699219 113.640625 833.398438 118.816406 C 832.109375 123.984375 835.101562 124.667969 840.488281 122.082031 C 916.441406 88.257812 958.699219 145.660156 953.179688 187.378906 C 947.121094 233.449219 947.980469 241.378906 952.210938 275.820312 C 956.109375 307.402344 940.679688 327.183594 926.359375 337.851562 C 912.078125 348.558594 891.929688 354.691406 846.488281 343.660156 C 880.910156 398.675781 841.941406 440.117188 815.96875 445.925781 C 790 451.746094 771.371094 441.695312 754.414062 425.71875 C 748.144531 436.261719 731.308594 450.988281 723.484375 464.390625 Z M 723.484375 22.988281 C 723.484375 22.988281 742.234375 44.945312 764.03125 83.171875 C 784.820312 119.617188 780.378906 164.605469 780.378906 169.910156 C 780.378906 175.203125 778.871094 176.71875 780 177.851562 C 781.148438 178.988281 781.148438 177.484375 786.078125 172.941406 C 816.871094 143.015625 863.921875 150.914062 880.03125 157.5625 C 897.898438 164.9375 927.21875 184.535156 928.148438 222.050781 C 929.988281 295.136719 862.480469 312.238281 848.03125 311.554688 C 831.058594 310.730469 840.851562 295.953125 843.238281 292.746094 C 850.191406 283.390625 856.929688 270.925781 854.710938 256.695312 C 853.058594 246.125 840.011719 234.316406 819.929688 240.066406 C 767.828125 254.992188 762.511719 307.40625 762.511719 307.40625 L 770.878906 321.78125 C 770.878906 321.78125 766.320312 327.078125 762.511719 333.132812 C 767.058594 361.9375 781.53125 381.617188 802.800781 378.222656 C 824.089844 374.789062 818.390625 342.214844 817.628906 336.570312 C 816.871094 330.863281 820.910156 316.085938 842.199219 326.675781 C 911.75 362.375 944.570312 311.722656 938.859375 276.332031 C 931.921875 233.265625 938.988281 202.070312 940.140625 188.15625 C 941.488281 171.640625 937.578125 147.949219 919.101562 135.453125 C 888.328125 114.605469 867.03125 125.976562 842.710938 135.054688 C 818.390625 144.148438 818.390625 120.296875 821.441406 112.71875 C 824.46875 105.148438 830.558594 84.699219 831.289062 68.402344 C 832.058594 52.109375 822.570312 34.320312 806.988281 22.585938 C 791.398438 10.847656 766.320312 11.984375 757.960938 14.25 C 749.597656 16.535156 723.484375 17.695312 723.484375 17.695312 L 723.160156 17.695312 C 723.160156 17.695312 697.082031 16.535156 688.703125 14.25 C 680.347656 11.984375 655.261719 10.847656 639.6875 22.585938 C 624.097656 34.320312 614.59375 52.109375 615.351562 68.402344 C 616.113281 84.699219 622.203125 105.148438 625.226562 112.71875 C 628.289062 120.296875 628.289062 144.148438 603.949219 135.054688 C 579.617188 125.976562 558.34375 114.605469 527.5625 135.453125 C 509.085938 147.949219 505.179688 171.640625 506.535156 188.15625 C 507.683594 202.070312 514.742188 233.265625 507.804688 276.332031 C 502.105469 311.722656 534.925781 362.375 604.484375 326.675781 C 625.769531 316.085938 629.808594 330.863281 629.046875 336.570312 C 628.289062 342.214844 622.570312 374.789062 643.855469 378.222656 C 665.144531 381.617188 679.585938 361.9375 684.144531 333.132812 C 680.347656 327.078125 675.792969 321.78125 675.792969 321.78125 L 684.144531 307.40625 C 684.144531 307.40625 678.832031 254.992188 626.734375 240.066406 C 606.660156 234.316406 593.605469 246.125 591.953125 256.695312 C 589.730469 270.925781 596.476562 283.390625 603.441406 292.746094 C 605.839844 295.953125 615.613281 310.730469 598.617188 311.554688 C 584.1875 312.238281 516.679688 295.136719 518.511719 222.050781 C 519.445312 184.535156 548.765625 164.9375 566.636719 157.5625 C 582.75 150.914062 629.808594 143.015625 660.578125 172.941406 C 665.519531 177.484375 665.519531 178.988281 666.660156 177.851562 C 667.796875 176.71875 666.28125 175.203125 666.28125 169.910156 C 666.28125 164.605469 661.859375 119.617188 682.628906 83.171875 C 704.398438 44.945312 723.160156 22.988281 723.160156 22.988281 Z M 613.890625 225.386719 C 677.738281 226.839844 697.417969 302.335938 697.417969 302.335938 C 697.417969 302.335938 700.292969 302.148438 703.335938 302.148438 C 699.292969 272.53125 685.449219 214.425781 654.253906 185.160156 C 623.066406 155.929688 590.085938 160.503906 561.367188 173.714844 C 530.636719 187.808594 520.699219 230.859375 538.304688 259.011719 C 555.917969 287.148438 570.15625 293.296875 591.464844 298.398438 C 588.9375 295.269531 576.113281 278.382812 578.671875 259.011719 C 579.066406 243.023438 594.066406 224.9375 613.890625 225.386719 M 603.84375 409.878906 C 608.289062 420.339844 630.367188 447.320312 661.269531 432.414062 C 711.414062 408.261719 705.355469 339.738281 705.355469 339.738281 C 705.355469 339.738281 702.917969 340.160156 696.054688 340.160156 C 688.359375 373.167969 670.566406 392.136719 648.324219 391.703125 C 626.09375 391.324219 613.542969 371.984375 613.945312 347.800781 C 592.125 372.378906 599.386719 399.382812 603.84375 409.878906 M 723.484375 442.121094 C 726.597656 436.414062 738.917969 428.488281 745.625 414.882812 C 722.644531 375.320312 728.773438 328.875 728.773438 328.875 L 751.015625 327.246094 L 755.066406 321.171875 L 749 313.941406 L 729.988281 313.523438 C 730.402344 293.808594 738.496094 260.34375 738.496094 260.34375 L 723.484375 245.4375 L 723.160156 245.4375 L 708.175781 260.34375 C 708.175781 260.34375 716.273438 293.808594 716.65625 313.523438 L 697.65625 313.941406 L 691.605469 321.171875 L 695.644531 327.246094 L 717.867188 328.875 C 717.867188 328.875 724.027344 375.320312 701.03125 414.882812 C 707.722656 428.488281 720.078125 436.414062 723.160156 442.121094 Z M 723.484375 227.566406 C 723.484375 227.566406 727.382812 232.429688 741.648438 246.234375 C 744.507812 238.910156 762.410156 191.4375 764.851562 182.519531 C 767.300781 173.574219 772.179688 144.789062 763.238281 113.550781 C 754.277344 82.289062 723.484375 41.335938 723.484375 41.335938 L 723.160156 41.335938 C 723.160156 41.335938 692.394531 82.289062 683.460938 113.550781 C 674.480469 144.789062 679.359375 173.574219 681.816406 182.519531 C 684.242188 191.4375 702.164062 238.910156 705.03125 246.234375 C 719.28125 232.429688 723.160156 227.566406 723.160156 227.566406 Z M 723.484375 227.566406 "/>
<path fill-rule="nonzero" fill="rgb(0%, 25.881958%, 52.941895%)" fill-opacity="1" d="M 327.746094 251.949219 C 322.296875 259.726562 314.757812 263.609375 305.117188 263.609375 C 292.644531 263.609375 283.664062 258.371094 278.1875 247.894531 L 278.1875 188.042969 C 283.585938 177.816406 292.480469 172.714844 304.867188 172.714844 C 314.839844 172.714844 322.515625 176.65625 327.871094 184.554688 C 333.234375 192.449219 335.910156 203.132812 335.910156 216.597656 C 335.910156 232.390625 333.191406 244.175781 327.746094 251.949219 M 352.058594 166.285156 L 352.058594 166.289062 C 342.710938 154.023438 329.800781 147.898438 313.34375 147.898438 C 298.050781 147.898438 285.953125 153.300781 277.058594 164.105469 L 276.492188 157.613281 C 276.210938 153.011719 273.488281 150.375 269.761719 150.375 C 269.683594 150.375 255.226562 150.390625 255.226562 150.390625 C 250.882812 150.390625 247.878906 153.5 247.878906 157.734375 L 247.792969 327.261719 C 247.792969 332.824219 251.621094 337.175781 256.96875 337.175781 L 269.101562 337.148438 C 274.429688 337.148438 278.15625 332.789062 278.15625 327.597656 L 278.1875 327.03125 L 275.894531 156.757812 L 278.1875 326.296875 L 278.1875 273.207031 C 287.074219 282.9375 298.921875 287.796875 313.71875 287.796875 C 329.679688 287.796875 342.402344 281.585938 351.871094 269.15625 C 361.351562 256.730469 366.089844 240.085938 366.089844 219.214844 L 366.089844 217.347656 C 366.089844 195.5625 361.414062 178.546875 352.058594 166.285156 "/>
<path fill-rule="nonzero" fill="rgb(0%, 25.881958%, 52.941895%)" fill-opacity="1" d="M 111.453125 148.296875 L 96.34375 148.296875 C 89.089844 148.296875 87.785156 153.773438 86.898438 156.472656 C 86.234375 158.484375 61.535156 240.457031 61.015625 242.203125 C 60.5 243.945312 59.027344 243.933594 58.519531 242.203125 C 58.007812 240.472656 33.304688 158.484375 32.640625 156.472656 C 31.753906 153.773438 30.445312 148.296875 23.195312 148.296875 L 8.078125 148.296875 C 1.214844 148.296875 -0.199219 153.632812 1.359375 158.074219 L 44.207031 279.925781 C 45.265625 282.824219 48.753906 285.878906 52.488281 285.878906 L 67.054688 285.878906 C 70.78125 285.878906 74.277344 282.824219 75.324219 279.925781 L 118.175781 158.074219 C 119.734375 153.632812 118.328125 148.296875 111.453125 148.296875 "/>
<path fill-rule="nonzero" fill="rgb(0%, 25.881958%, 52.941895%)" fill-opacity="1" d="M 221.398438 261.828125 C 220.628906 261.078125 218.582031 259.308594 217.777344 258.539062 C 216.699219 257.511719 214.648438 256.191406 210.539062 256.859375 C 207.183594 257.40625 203.722656 259.78125 201.320312 260.714844 C 197.617188 262.15625 193.1875 263.277344 188.597656 263.277344 C 178.621094 263.277344 170.992188 259.6875 165.71875 252.492188 C 160.441406 245.308594 157.796875 234.394531 157.796875 219.765625 L 157.796875 214.898438 C 157.882812 200.4375 160.574219 189.65625 165.898438 182.546875 C 171.226562 175.4375 178.785156 171.886719 188.597656 171.886719 C 192.75 171.886719 196.410156 172.632812 199.765625 174.074219 C 201.933594 175.007812 207.058594 177.558594 210.148438 177.558594 C 213.570312 177.558594 216.0625 175.21875 216.40625 174.851562 C 217.140625 174.089844 218.382812 172.773438 219.078125 172.019531 C 220.097656 170.90625 222.617188 168.152344 222.617188 168.152344 C 224.851562 165.371094 225.929688 160.375 221.003906 156.65625 C 221.003906 156.65625 219.761719 155.464844 217.613281 154.265625 C 209.472656 149.722656 200.179688 147.566406 188.84375 147.566406 C 169.886719 147.566406 154.933594 153.742188 143.960938 166.085938 C 132.984375 178.433594 127.5 194.875 127.5 215.402344 L 127.5 218.519531 C 127.5 240.042969 133.019531 256.925781 144.085938 269.144531 C 155.128906 281.351562 170.0625 287.460938 188.910156 287.472656 C 202.074219 287.464844 210.59375 283.871094 219.558594 279.261719 C 221.019531 278.511719 222.308594 277.359375 222.308594 277.359375 C 226.867188 274.046875 226.746094 267.578125 224.277344 264.800781 C 224.277344 264.800781 222.515625 262.90625 221.398438 261.828125 "/>
<path fill-rule="nonzero" fill="rgb(0%, 25.881958%, 52.941895%)" fill-opacity="1" d="M 1103.738281 190.601562 L 1121.929688 127.664062 L 1132.910156 127.664062 L 1108.171875 205.652344 L 1099.429688 205.652344 L 1074.730469 127.664062 L 1085.660156 127.664062 Z M 1103.738281 190.601562 "/>
<path fill-rule="nonzero" fill="rgb(0%, 25.881958%, 52.941895%)" fill-opacity="1" d="M 1184.160156 169.601562 L 1156.03125 169.601562 L 1156.03125 197.242188 L 1188.808594 197.242188 L 1188.808594 205.648438 L 1146.03125 205.648438 L 1146.03125 127.664062 L 1188.261719 127.664062 L 1188.261719 136.125 L 1156.03125 136.125 L 1156.03125 161.195312 L 1184.160156 161.195312 Z M 1184.160156 169.601562 "/>
<path fill-rule="nonzero" fill="rgb(0%, 25.881958%, 52.941895%)" fill-opacity="1" d="M 1213.988281 165.695312 L 1226.121094 165.695312 C 1228.410156 165.695312 1230.421875 165.3125 1232.128906 164.542969 C 1233.839844 163.773438 1235.269531 162.738281 1236.421875 161.433594 C 1237.558594 160.132812 1238.429688 158.597656 1239.011719 156.828125 C 1239.601562 155.058594 1239.890625 153.160156 1239.890625 151.125 C 1239.890625 148.875 1239.628906 146.832031 1239.121094 144.992188 C 1238.609375 143.152344 1237.808594 141.574219 1236.71875 140.25 C 1235.628906 138.929688 1234.210938 137.914062 1232.480469 137.199219 C 1230.75 136.488281 1228.671875 136.125 1226.230469 136.125 L 1213.988281 136.125 Z M 1227.980469 174.101562 L 1213.988281 174.101562 L 1213.988281 205.648438 L 1203.941406 205.648438 L 1203.941406 127.664062 L 1226.230469 127.664062 C 1234.019531 127.664062 1239.921875 129.652344 1243.929688 133.640625 C 1247.929688 137.621094 1249.941406 143.449219 1249.941406 151.125 C 1249.941406 155.945312 1248.851562 160.152344 1246.691406 163.738281 C 1244.519531 167.328125 1241.449219 170.03125 1237.480469 171.851562 L 1252.890625 205.007812 L 1252.890625 205.648438 L 1242.128906 205.648438 Z M 1227.980469 174.101562 "/>
<path fill-rule="nonzero" fill="rgb(0%, 25.881958%, 52.941895%)" fill-opacity="1" d="M 1275.671875 169.175781 L 1275.671875 197.242188 L 1289.328125 197.242188 C 1291.300781 197.242188 1293.050781 196.914062 1294.570312 196.25 C 1296.109375 195.589844 1297.398438 194.664062 1298.449219 193.464844 C 1299.511719 192.269531 1300.308594 190.808594 1300.859375 189.070312 C 1301.410156 187.34375 1301.679688 185.40625 1301.679688 183.265625 C 1301.679688 181.117188 1301.449219 179.175781 1301 177.425781 C 1300.539062 175.675781 1299.828125 174.191406 1298.871094 172.976562 C 1297.898438 171.765625 1296.660156 170.828125 1295.148438 170.164062 C 1293.640625 169.507812 1291.828125 169.175781 1289.710938 169.175781 Z M 1275.671875 160.925781 L 1288.511719 160.925781 C 1290.191406 160.925781 1291.730469 160.644531 1293.148438 160.070312 C 1294.570312 159.5 1295.800781 158.675781 1296.820312 157.605469 C 1297.828125 156.535156 1298.640625 155.222656 1299.21875 153.671875 C 1299.800781 152.117188 1300.101562 150.359375 1300.101562 148.394531 C 1300.101562 144.109375 1299.128906 140.996094 1297.199219 139.046875 C 1295.269531 137.101562 1292.320312 136.128906 1288.351562 136.128906 L 1275.671875 136.128906 Z M 1265.679688 205.652344 L 1265.679688 127.664062 L 1288.351562 127.664062 C 1291.769531 127.664062 1294.839844 128.066406 1297.550781 128.871094 C 1300.269531 129.675781 1302.558594 130.925781 1304.441406 132.617188 C 1306.308594 134.316406 1307.738281 136.46875 1308.71875 139.074219 C 1309.710938 141.683594 1310.199219 144.804688 1310.199219 148.449219 C 1310.199219 152.089844 1309.269531 155.304688 1307.410156 158.085938 C 1305.558594 160.871094 1303.039062 163.035156 1299.871094 164.570312 C 1301.808594 165.140625 1303.511719 166.019531 1304.980469 167.191406 C 1306.460938 168.371094 1307.699219 169.773438 1308.699219 171.398438 C 1309.699219 173.023438 1310.449219 174.835938 1310.96875 176.835938 C 1311.480469 178.835938 1311.730469 180.941406 1311.730469 183.15625 C 1311.730469 186.800781 1311.199219 190.019531 1310.140625 192.824219 C 1309.089844 195.625 1307.589844 197.984375 1305.640625 199.894531 C 1303.691406 201.800781 1301.328125 203.242188 1298.558594 204.203125 C 1295.800781 205.171875 1292.71875 205.652344 1289.328125 205.652344 Z M 1265.679688 205.652344 "/>
<path fill-rule="nonzero" fill="rgb(0%, 25.881958%, 52.941895%)" fill-opacity="1" d="M 1341.890625 176.835938 L 1363.578125 176.835938 L 1352.699219 141.375 Z M 1366.140625 185.296875 L 1339.261719 185.296875 L 1333.089844 205.652344 L 1322.820312 205.652344 L 1348.441406 127.664062 L 1357.019531 127.664062 L 1382.699219 205.652344 L 1372.429688 205.652344 Z M 1366.140625 185.296875 "/>
<path fill-rule="nonzero" fill="rgb(0%, 25.881958%, 52.941895%)" fill-opacity="1" d="M 1447.820312 205.652344 L 1437.769531 205.652344 L 1405.921875 145.554688 L 1405.921875 205.652344 L 1395.859375 205.652344 L 1395.859375 127.664062 L 1405.921875 127.664062 L 1437.878906 188.027344 L 1437.878906 127.664062 L 1447.820312 127.664062 Z M 1447.820312 205.652344 "/>
<path fill-rule="nonzero" fill="rgb(0%, 25.881958%, 52.941895%)" fill-opacity="1" d="M 1477.480469 136.125 L 1477.480469 197.242188 L 1485.511719 197.242188 C 1492.621094 197.242188 1497.789062 195.226562 1501.03125 191.191406 C 1504.269531 187.15625 1505.898438 181.191406 1505.898438 173.300781 L 1505.898438 159.964844 C 1505.898438 151.75 1504.28125 145.726562 1501.058594 141.882812 C 1497.839844 138.046875 1492.960938 136.125 1486.449219 136.125 Z M 1467.488281 205.648438 L 1467.488281 127.664062 L 1486.449219 127.664062 C 1490.921875 127.664062 1494.96875 128.355469 1498.570312 129.726562 C 1502.179688 131.101562 1505.261719 133.152344 1507.800781 135.886719 C 1510.351562 138.617188 1512.320312 142.011719 1513.710938 146.0625 C 1515.089844 150.117188 1515.78125 154.804688 1515.78125 160.121094 L 1515.78125 173.300781 C 1515.78125 178.617188 1515.089844 183.296875 1513.710938 187.332031 C 1512.320312 191.367188 1510.339844 194.742188 1507.75 197.457031 C 1505.171875 200.167969 1502 202.214844 1498.238281 203.589844 C 1494.488281 204.964844 1490.25 205.648438 1485.511719 205.648438 Z M 1467.488281 205.648438 "/>
<path fill-rule="nonzero" fill="rgb(0%, 25.881958%, 52.941895%)" fill-opacity="1" d="M 1611.550781 180.90625 C 1611.328125 184.941406 1610.648438 188.546875 1609.5 191.726562 C 1608.359375 194.902344 1606.730469 197.609375 1604.609375 199.839844 C 1602.5 202.070312 1599.890625 203.777344 1596.769531 204.957031 C 1593.660156 206.132812 1590.039062 206.722656 1585.929688 206.722656 C 1581.921875 206.722656 1578.308594 205.953125 1575.109375 204.417969 C 1571.898438 202.886719 1569.171875 200.6875 1566.910156 197.832031 C 1564.660156 194.972656 1562.921875 191.527344 1561.699219 187.492188 C 1560.480469 183.457031 1559.871094 178.921875 1559.871094 173.890625 L 1559.871094 159.480469 C 1559.871094 154.484375 1560.480469 149.953125 1561.699219 145.902344 C 1562.921875 141.851562 1564.679688 138.398438 1567 135.539062 C 1569.308594 132.679688 1572.140625 130.476562 1575.488281 128.925781 C 1578.851562 127.371094 1582.628906 126.59375 1586.859375 126.59375 C 1590.71875 126.59375 1594.128906 127.167969 1597.101562 128.308594 C 1600.070312 129.453125 1602.589844 131.128906 1604.671875 133.34375 C 1606.738281 135.554688 1608.359375 138.289062 1609.53125 141.539062 C 1610.699219 144.785156 1611.371094 148.519531 1611.550781 152.734375 L 1601.449219 152.734375 C 1601.230469 149.664062 1600.808594 147.023438 1600.191406 144.804688 C 1599.570312 142.589844 1598.679688 140.761719 1597.511719 139.316406 C 1596.339844 137.867188 1594.890625 136.796875 1593.140625 136.105469 C 1591.390625 135.40625 1589.300781 135.054688 1586.859375 135.054688 C 1583.941406 135.054688 1581.429688 135.636719 1579.320312 136.796875 C 1577.199219 137.957031 1575.460938 139.59375 1574.070312 141.699219 C 1572.691406 143.804688 1571.660156 146.359375 1570.980469 149.355469 C 1570.308594 152.355469 1569.980469 155.695312 1569.980469 159.375 L 1569.980469 173.890625 C 1569.980469 177.316406 1570.261719 180.511719 1570.820312 183.476562 C 1571.390625 186.441406 1572.300781 189.03125 1573.550781 191.246094 C 1574.808594 193.457031 1576.460938 195.199219 1578.5 196.464844 C 1580.539062 197.730469 1583.011719 198.367188 1585.929688 198.367188 C 1588.660156 198.367188 1590.960938 198.039062 1592.839844 197.375 C 1594.710938 196.714844 1596.238281 195.679688 1597.429688 194.265625 C 1598.609375 192.859375 1599.511719 191.054688 1600.128906 188.859375 C 1600.75 186.664062 1601.191406 184.011719 1601.449219 180.90625 Z M 1611.550781 180.90625 "/>
<path fill-rule="nonzero" fill="rgb(0%, 25.881958%, 52.941895%)" fill-opacity="1" d="M 1679.511719 205.652344 L 1669.460938 205.652344 L 1669.460938 169.601562 L 1637.441406 169.601562 L 1637.441406 205.652344 L 1627.449219 205.652344 L 1627.449219 127.664062 L 1637.441406 127.664062 L 1637.441406 161.195312 L 1669.460938 161.195312 L 1669.460938 127.664062 L 1679.511719 127.664062 Z M 1679.511719 205.652344 "/>
<path fill-rule="nonzero" fill="rgb(0%, 25.881958%, 52.941895%)" fill-opacity="1" d="M 1709.238281 165.695312 L 1721.371094 165.695312 C 1723.660156 165.695312 1725.660156 165.3125 1727.371094 164.542969 C 1729.089844 163.773438 1730.511719 162.738281 1731.660156 161.433594 C 1732.808594 160.132812 1733.671875 158.597656 1734.261719 156.828125 C 1734.839844 155.058594 1735.128906 153.160156 1735.128906 151.125 C 1735.128906 148.875 1734.878906 146.832031 1734.371094 144.992188 C 1733.859375 143.152344 1733.058594 141.574219 1731.960938 140.25 C 1730.871094 138.929688 1729.460938 137.914062 1727.730469 137.199219 C 1726 136.488281 1723.910156 136.125 1721.46875 136.125 L 1709.238281 136.125 Z M 1723.21875 174.101562 L 1709.238281 174.101562 L 1709.238281 205.648438 L 1699.179688 205.648438 L 1699.179688 127.664062 L 1721.46875 127.664062 C 1729.269531 127.664062 1735.171875 129.652344 1739.171875 133.640625 C 1743.179688 137.621094 1745.191406 143.449219 1745.191406 151.125 C 1745.191406 155.945312 1744.101562 160.152344 1741.929688 163.738281 C 1739.761719 167.328125 1736.699219 170.03125 1732.730469 171.851562 L 1748.128906 205.007812 L 1748.128906 205.648438 L 1737.371094 205.648438 Z M 1723.21875 174.101562 "/>
<path fill-rule="evenodd" fill="rgb(0%, 25.881958%, 52.941895%)" fill-opacity="1" d="M 1761.351562 205.652344 L 1771.347656 205.652344 L 1771.347656 127.664062 L 1761.351562 127.664062 Z M 1761.351562 205.652344 "/>
<path fill-rule="nonzero" fill="rgb(0%, 25.881958%, 52.941895%)" fill-opacity="1" d="M 1825.980469 185.941406 C 1825.980469 184.121094 1825.78125 182.511719 1825.359375 181.117188 C 1824.941406 179.730469 1824.160156 178.453125 1823.039062 177.289062 C 1821.910156 176.128906 1820.371094 175.042969 1818.449219 174.023438 C 1816.511719 173.003906 1814.019531 171.960938 1810.960938 170.890625 C 1807.679688 169.785156 1804.710938 168.523438 1802.058594 167.117188 C 1799.398438 165.703125 1797.128906 164.078125 1795.261719 162.238281 C 1793.378906 160.398438 1791.929688 158.304688 1790.910156 155.945312 C 1789.890625 153.589844 1789.378906 150.894531 1789.378906 147.859375 C 1789.378906 144.824219 1789.921875 142.011719 1790.988281 139.421875 C 1792.070312 136.832031 1793.589844 134.585938 1795.578125 132.675781 C 1797.570312 130.765625 1799.96875 129.269531 1802.789062 128.199219 C 1805.609375 127.128906 1808.761719 126.59375 1812.21875 126.59375 C 1816.078125 126.59375 1819.488281 127.257812 1822.460938 128.574219 C 1825.429688 129.898438 1827.921875 131.648438 1829.949219 133.824219 C 1831.96875 136.003906 1833.488281 138.519531 1834.511719 141.375 C 1835.53125 144.234375 1836.039062 147.179688 1836.039062 150.214844 L 1825.980469 150.214844 C 1825.980469 148.039062 1825.71875 146.019531 1825.191406 144.160156 C 1824.671875 142.308594 1823.839844 140.699219 1822.710938 139.34375 C 1821.578125 137.984375 1820.148438 136.933594 1818.421875 136.179688 C 1816.691406 135.433594 1814.621094 135.054688 1812.21875 135.054688 C 1810 135.054688 1808.078125 135.378906 1806.480469 136.023438 C 1804.878906 136.664062 1803.558594 137.546875 1802.519531 138.671875 C 1801.480469 139.796875 1800.71875 141.128906 1800.230469 142.664062 C 1799.730469 144.195312 1799.488281 145.878906 1799.488281 147.695312 C 1799.488281 150.984375 1800.691406 153.734375 1803.089844 155.945312 C 1805.5 158.160156 1809.210938 160.144531 1814.238281 161.894531 C 1818.101562 163.144531 1821.410156 164.523438 1824.179688 166.039062 C 1826.949219 167.5625 1829.21875 169.285156 1830.980469 171.214844 C 1832.75 173.140625 1834.039062 175.296875 1834.859375 177.691406 C 1835.679688 180.085938 1836.089844 182.796875 1836.089844 185.832031 C 1836.089844 189.011719 1835.539062 191.886719 1834.449219 194.457031 C 1833.359375 197.027344 1831.800781 199.222656 1829.78125 201.046875 C 1827.761719 202.863281 1825.308594 204.265625 1822.429688 205.246094 C 1819.558594 206.230469 1816.320312 206.722656 1812.710938 206.722656 C 1809.578125 206.722656 1806.488281 206.222656 1803.449219 205.222656 C 1800.410156 204.222656 1797.691406 202.734375 1795.308594 200.75 C 1792.921875 198.769531 1790.988281 196.296875 1789.519531 193.332031 C 1788.039062 190.367188 1787.308594 186.941406 1787.308594 183.046875 L 1797.359375 183.046875 C 1797.359375 185.726562 1797.761719 188.019531 1798.558594 189.929688 C 1799.359375 191.84375 1800.460938 193.421875 1801.859375 194.671875 C 1803.269531 195.921875 1804.898438 196.839844 1806.761719 197.429688 C 1808.609375 198.019531 1810.601562 198.3125 1812.710938 198.3125 C 1817.121094 198.3125 1820.429688 197.207031 1822.648438 194.992188 C 1824.871094 192.777344 1825.980469 189.761719 1825.980469 185.941406 "/>
<path fill-rule="nonzero" fill="rgb(0%, 25.881958%, 52.941895%)" fill-opacity="1" d="M 1898.050781 136.125 L 1877.128906 136.125 L 1877.128906 205.648438 L 1867.128906 205.648438 L 1867.128906 136.125 L 1846.261719 136.125 L 1846.261719 127.664062 L 1898.050781 127.664062 Z M 1898.050781 136.125 "/>
<path fill-rule="nonzero" fill="rgb(0%, 25.881958%, 52.941895%)" fill-opacity="1" d="M 1922.199219 197.242188 L 1953.390625 197.242188 L 1953.390625 205.652344 L 1912.140625 205.652344 L 1912.140625 127.664062 L 1922.199219 127.664062 Z M 1922.199219 197.242188 "/>
<path fill-rule="evenodd" fill="rgb(0%, 25.881958%, 52.941895%)" fill-opacity="1" d="M 1968.089844 205.652344 L 1978.089844 205.652344 L 1978.089844 127.664062 L 1968.089844 127.664062 Z M 1968.089844 205.652344 "/>
<path fill-rule="nonzero" fill="rgb(0%, 25.881958%, 52.941895%)" fill-opacity="1" d="M 2047.851562 180.90625 C 2047.628906 184.941406 2046.949219 188.546875 2045.800781 191.726562 C 2044.648438 194.902344 2043.019531 197.609375 2040.910156 199.839844 C 2038.800781 202.070312 2036.179688 203.777344 2033.070312 204.957031 C 2029.960938 206.132812 2026.339844 206.722656 2022.230469 206.722656 C 2018.21875 206.722656 2014.609375 205.953125 2011.410156 204.417969 C 2008.199219 202.886719 2005.46875 200.6875 2003.210938 197.832031 C 2000.949219 194.972656 1999.21875 191.527344 1998 187.492188 C 1996.78125 183.457031 1996.171875 178.921875 1996.171875 173.890625 L 1996.171875 159.480469 C 1996.171875 154.484375 1996.78125 149.953125 1998 145.902344 C 1999.21875 141.851562 2000.980469 138.398438 2003.300781 135.539062 C 2005.609375 132.679688 2008.441406 130.476562 2011.789062 128.925781 C 2015.140625 127.371094 2018.929688 126.59375 2023.148438 126.59375 C 2027.019531 126.59375 2030.429688 127.167969 2033.398438 128.308594 C 2036.371094 129.453125 2038.890625 131.128906 2040.960938 133.34375 C 2043.039062 135.554688 2044.660156 138.289062 2045.828125 141.539062 C 2046.988281 144.785156 2047.660156 148.519531 2047.851562 152.734375 L 2037.738281 152.734375 C 2037.519531 149.664062 2037.101562 147.023438 2036.488281 144.804688 C 2035.871094 142.589844 2034.96875 140.761719 2033.808594 139.316406 C 2032.640625 137.867188 2031.191406 136.796875 2029.441406 136.105469 C 2027.691406 135.40625 2025.601562 135.054688 2023.148438 135.054688 C 2020.238281 135.054688 2017.730469 135.636719 2015.621094 136.796875 C 2013.5 137.957031 2011.761719 139.59375 2010.371094 141.699219 C 2008.988281 143.804688 2007.960938 146.359375 2007.28125 149.355469 C 2006.609375 152.355469 2006.269531 155.695312 2006.269531 159.375 L 2006.269531 173.890625 C 2006.269531 177.316406 2006.558594 180.511719 2007.121094 183.476562 C 2007.691406 186.441406 2008.589844 189.03125 2009.851562 191.246094 C 2011.109375 193.457031 2012.761719 195.199219 2014.800781 196.464844 C 2016.828125 197.730469 2019.308594 198.367188 2022.230469 198.367188 C 2024.960938 198.367188 2027.261719 198.039062 2029.140625 197.375 C 2031.011719 196.714844 2032.539062 195.679688 2033.730469 194.265625 C 2034.910156 192.859375 2035.808594 191.054688 2036.429688 188.859375 C 2037.050781 186.664062 2037.488281 184.011719 2037.738281 180.90625 Z M 2047.851562 180.90625 "/>
<path fill-rule="nonzero" fill="rgb(0%, 25.881958%, 52.941895%)" fill-opacity="1" d="M 2115.808594 205.652344 L 2105.761719 205.652344 L 2105.761719 169.601562 L 2073.738281 169.601562 L 2073.738281 205.652344 L 2063.75 205.652344 L 2063.75 127.664062 L 2073.738281 127.664062 L 2073.738281 161.195312 L 2105.761719 161.195312 L 2105.761719 127.664062 L 2115.808594 127.664062 Z M 2115.808594 205.652344 "/>
<path fill-rule="nonzero" fill="rgb(0%, 25.881958%, 52.941895%)" fill-opacity="1" d="M 2173.621094 169.601562 L 2145.480469 169.601562 L 2145.480469 197.242188 L 2178.261719 197.242188 L 2178.261719 205.648438 L 2135.488281 205.648438 L 2135.488281 127.664062 L 2177.71875 127.664062 L 2177.71875 136.125 L 2145.480469 136.125 L 2145.480469 161.195312 L 2173.621094 161.195312 Z M 2173.621094 169.601562 "/>
<path fill-rule="nonzero" fill="rgb(0%, 25.881958%, 52.941895%)" fill-opacity="1" d="M 2203.449219 165.695312 L 2215.578125 165.695312 C 2217.871094 165.695312 2219.871094 165.3125 2221.578125 164.542969 C 2223.300781 163.773438 2224.71875 162.738281 2225.871094 161.433594 C 2227.019531 160.132812 2227.878906 158.597656 2228.46875 156.828125 C 2229.050781 155.058594 2229.339844 153.160156 2229.339844 151.125 C 2229.339844 148.875 2229.078125 146.832031 2228.578125 144.992188 C 2228.058594 143.152344 2227.269531 141.574219 2226.171875 140.25 C 2225.078125 138.929688 2223.671875 137.914062 2221.941406 137.199219 C 2220.210938 136.488281 2218.121094 136.125 2215.679688 136.125 L 2203.449219 136.125 Z M 2217.429688 174.101562 L 2203.449219 174.101562 L 2203.449219 205.648438 L 2193.390625 205.648438 L 2193.390625 127.664062 L 2215.679688 127.664062 C 2223.46875 127.664062 2229.378906 129.652344 2233.378906 133.640625 C 2237.390625 137.621094 2239.390625 143.449219 2239.390625 151.125 C 2239.390625 155.945312 2238.308594 160.152344 2236.140625 163.738281 C 2233.96875 167.328125 2230.898438 170.03125 2226.941406 171.851562 L 2242.339844 205.007812 L 2242.339844 205.648438 L 2231.578125 205.648438 Z M 2217.429688 174.101562 "/>
<path fill-rule="nonzero" fill="rgb(0%, 25.881958%, 52.941895%)" fill-opacity="1" d="M 1091.011719 295.664062 L 1106.359375 295.664062 C 1108.800781 295.664062 1110.890625 295.289062 1112.621094 294.539062 C 1114.351562 293.789062 1115.769531 292.746094 1116.878906 291.40625 C 1117.988281 290.066406 1118.808594 288.480469 1119.339844 286.640625 C 1119.871094 284.800781 1120.128906 282.777344 1120.128906 280.558594 C 1120.128906 278.5625 1119.871094 276.621094 1119.339844 274.746094 C 1118.808594 272.875 1117.988281 271.222656 1116.878906 269.792969 C 1115.769531 268.367188 1114.351562 267.226562 1112.621094 266.367188 C 1110.890625 265.511719 1108.800781 265.078125 1106.359375 265.078125 L 1091.011719 265.078125 Z M 1091.011719 304.074219 L 1091.011719 334.605469 L 1081.011719 334.605469 L 1081.011719 256.617188 L 1106.359375 256.617188 C 1110.191406 256.617188 1113.578125 257.207031 1116.550781 258.386719 C 1119.519531 259.566406 1122.011719 261.214844 1124.011719 263.339844 C 1126.011719 265.464844 1127.539062 267.980469 1128.570312 270.890625 C 1129.609375 273.800781 1130.128906 276.992188 1130.128906 280.453125 C 1130.128906 284.203125 1129.609375 287.550781 1128.570312 290.496094 C 1127.539062 293.441406 1126 295.914062 1123.980469 297.914062 C 1121.960938 299.914062 1119.480469 301.441406 1116.519531 302.492188 C 1113.578125 303.550781 1110.191406 304.074219 1106.359375 304.074219 Z M 1091.011719 304.074219 "/>
<path fill-rule="nonzero" fill="rgb(0%, 25.881958%, 52.941895%)" fill-opacity="1" d="M 1182.25 300.164062 L 1155.371094 300.164062 L 1155.371094 334.605469 L 1145.378906 334.605469 L 1145.378906 256.617188 L 1186.789062 256.617188 L 1186.789062 265.078125 L 1155.371094 265.078125 L 1155.371094 291.753906 L 1182.25 291.753906 Z M 1182.25 300.164062 "/>
<path fill-rule="nonzero" fill="rgb(0%, 25.881958%, 52.941895%)" fill-opacity="1" d="M 1205.03125 305.789062 L 1226.71875 305.789062 L 1215.851562 270.328125 Z M 1229.289062 314.25 L 1202.410156 314.25 L 1196.238281 334.605469 L 1185.960938 334.605469 L 1211.589844 256.617188 L 1220.171875 256.617188 L 1245.839844 334.605469 L 1235.570312 334.605469 Z M 1229.289062 314.25 "/>
<path fill-rule="nonzero" fill="rgb(0%, 25.881958%, 52.941895%)" fill-opacity="1" d="M 1269.011719 265.078125 L 1269.011719 326.195312 L 1277.039062 326.195312 C 1284.140625 326.195312 1289.308594 324.179688 1292.550781 320.144531 C 1295.800781 316.109375 1297.421875 310.144531 1297.421875 302.253906 L 1297.421875 288.917969 C 1297.421875 280.703125 1295.808594 274.679688 1292.578125 270.839844 C 1289.359375 267 1284.488281 265.078125 1277.96875 265.078125 Z M 1259.011719 334.605469 L 1259.011719 256.617188 L 1277.96875 256.617188 C 1282.449219 256.617188 1286.488281 257.308594 1290.101562 258.683594 C 1293.699219 260.054688 1296.78125 262.109375 1299.328125 264.839844 C 1301.878906 267.570312 1303.839844 270.964844 1305.230469 275.015625 C 1306.609375 279.070312 1307.308594 283.757812 1307.308594 289.078125 L 1307.308594 302.253906 C 1307.308594 307.574219 1306.609375 312.253906 1305.230469 316.285156 C 1303.839844 320.320312 1301.859375 323.699219 1299.269531 326.410156 C 1296.691406 329.121094 1293.519531 331.167969 1289.769531 332.542969 C 1286.019531 333.917969 1281.78125 334.605469 1277.039062 334.605469 Z M 1259.011719 334.605469 "/>
<path fill-rule="nonzero" fill="rgb(0%, 25.881958%, 52.941895%)" fill-opacity="1" d="M 1362.101562 300.164062 L 1335.21875 300.164062 L 1335.21875 334.605469 L 1325.21875 334.605469 L 1325.21875 256.617188 L 1366.628906 256.617188 L 1366.628906 265.078125 L 1335.21875 265.078125 L 1335.21875 291.753906 L 1362.101562 291.753906 Z M 1362.101562 300.164062 "/>
<path fill-rule="evenodd" fill="rgb(0%, 25.881958%, 52.941895%)" fill-opacity="1" d="M 1381.769531 334.605469 L 1391.769531 334.605469 L 1391.769531 256.617188 L 1381.769531 256.617188 Z M 1381.769531 334.605469 "/>
<path fill-rule="nonzero" fill="rgb(0%, 25.881958%, 52.941895%)" fill-opacity="1" d="M 1463.609375 334.605469 L 1453.558594 334.605469 L 1421.710938 274.507812 L 1421.710938 334.605469 L 1411.660156 334.605469 L 1411.660156 256.617188 L 1421.710938 256.617188 L 1453.671875 316.980469 L 1453.671875 256.617188 L 1463.609375 256.617188 Z M 1463.609375 334.605469 "/>
<path fill-rule="nonzero" fill="rgb(0%, 25.881958%, 52.941895%)" fill-opacity="1" d="M 1493.269531 265.078125 L 1493.269531 326.195312 L 1501.300781 326.195312 C 1508.398438 326.195312 1513.578125 324.179688 1516.820312 320.144531 C 1520.058594 316.109375 1521.679688 310.144531 1521.679688 302.253906 L 1521.679688 288.917969 C 1521.679688 280.703125 1520.070312 274.679688 1516.839844 270.839844 C 1513.621094 267 1508.75 265.078125 1502.230469 265.078125 Z M 1483.269531 334.605469 L 1483.269531 256.617188 L 1502.230469 256.617188 C 1506.710938 256.617188 1510.75 257.308594 1514.359375 258.683594 C 1517.96875 260.054688 1521.039062 262.109375 1523.589844 264.839844 C 1526.140625 267.570312 1528.109375 270.964844 1529.488281 275.015625 C 1530.878906 279.070312 1531.570312 283.757812 1531.570312 289.078125 L 1531.570312 302.253906 C 1531.570312 307.574219 1530.878906 312.253906 1529.488281 316.285156 C 1528.109375 320.320312 1526.121094 323.699219 1523.539062 326.410156 C 1520.949219 329.121094 1517.78125 331.167969 1514.03125 332.542969 C 1510.28125 333.917969 1506.039062 334.605469 1501.300781 334.605469 Z M 1483.269531 334.605469 "/>
<path fill-rule="nonzero" fill="rgb(0%, 25.881958%, 52.941895%)" fill-opacity="1" d="M 1587.621094 298.554688 L 1559.480469 298.554688 L 1559.480469 326.195312 L 1592.269531 326.195312 L 1592.269531 334.605469 L 1549.488281 334.605469 L 1549.488281 256.617188 L 1591.71875 256.617188 L 1591.71875 265.078125 L 1559.480469 265.078125 L 1559.480469 290.148438 L 1587.621094 290.148438 Z M 1587.621094 298.554688 "/>
<path fill-rule="nonzero" fill="rgb(0%, 25.881958%, 52.941895%)" fill-opacity="1" d="M 1617.449219 294.648438 L 1629.578125 294.648438 C 1631.871094 294.648438 1633.871094 294.265625 1635.589844 293.496094 C 1637.300781 292.726562 1638.730469 291.691406 1639.878906 290.386719 C 1641.019531 289.085938 1641.890625 287.550781 1642.46875 285.78125 C 1643.050781 284.011719 1643.351562 282.113281 1643.351562 280.078125 C 1643.351562 277.828125 1643.089844 275.785156 1642.578125 273.945312 C 1642.070312 272.105469 1641.269531 270.527344 1640.179688 269.203125 C 1639.089844 267.882812 1637.671875 266.867188 1635.941406 266.152344 C 1634.210938 265.441406 1632.121094 265.078125 1629.691406 265.078125 L 1617.449219 265.078125 Z M 1631.429688 303.054688 L 1617.449219 303.054688 L 1617.449219 334.601562 L 1607.398438 334.601562 L 1607.398438 256.617188 L 1629.691406 256.617188 C 1637.480469 256.617188 1643.378906 258.605469 1647.390625 262.59375 C 1651.390625 266.574219 1653.398438 272.402344 1653.398438 280.078125 C 1653.398438 284.898438 1652.308594 289.105469 1650.148438 292.691406 C 1647.980469 296.28125 1644.910156 298.984375 1640.941406 300.804688 L 1656.351562 333.960938 L 1656.351562 334.601562 L 1645.578125 334.601562 Z M 1631.429688 303.054688 "/>
<path fill-rule="nonzero" fill="rgb(0%, 25.881958%, 52.941895%)" fill-opacity="1" d="M 1678.589844 281.953125 L 1662.089844 277.132812 L 1664.601562 269.042969 L 1681.101562 275.042969 L 1680.609375 256.617188 L 1688.96875 256.617188 L 1688.421875 275.3125 L 1704.640625 269.421875 L 1707.160156 277.5625 L 1690.390625 282.433594 L 1701.199219 296.949219 L 1694.429688 301.984375 L 1684.269531 286.558594 L 1674.441406 301.609375 L 1667.601562 296.734375 Z M 1678.589844 281.953125 "/>
<path fill-rule="evenodd" fill="rgb(0%, 25.881958%, 52.941895%)" fill-opacity="1" d="M 1720.101562 334.605469 L 1730.097656 334.605469 L 1730.097656 256.617188 L 1720.101562 256.617188 Z M 1720.101562 334.605469 "/>
<path fill-rule="nonzero" fill="rgb(0%, 25.881958%, 52.941895%)" fill-opacity="1" d="M 1801.941406 334.605469 L 1791.890625 334.605469 L 1760.039062 274.507812 L 1760.039062 334.605469 L 1749.988281 334.605469 L 1749.988281 256.617188 L 1760.039062 256.617188 L 1792 316.980469 L 1792 256.617188 L 1801.941406 256.617188 Z M 1801.941406 334.605469 "/>
<path fill-rule="nonzero" fill="rgb(0%, 25.881958%, 52.941895%)" fill-opacity="1" d="M 1873.570312 334.605469 L 1863.519531 334.605469 L 1831.671875 274.507812 L 1831.671875 334.605469 L 1821.609375 334.605469 L 1821.609375 256.617188 L 1831.671875 256.617188 L 1863.621094 316.980469 L 1863.621094 256.617188 L 1873.570312 256.617188 Z M 1873.570312 334.605469 "/>
<path fill-rule="nonzero" fill="rgb(0%, 25.881958%, 52.941895%)" fill-opacity="1" d="M 1931.359375 298.554688 L 1903.230469 298.554688 L 1903.230469 326.195312 L 1936.011719 326.195312 L 1936.011719 334.605469 L 1893.230469 334.605469 L 1893.230469 256.617188 L 1935.460938 256.617188 L 1935.460938 265.078125 L 1903.230469 265.078125 L 1903.230469 290.148438 L 1931.359375 290.148438 Z M 1931.359375 298.554688 "/>
<path fill-rule="nonzero" fill="rgb(0%, 25.881958%, 52.941895%)" fill-opacity="1" d="M 2003.101562 334.605469 L 1993.050781 334.605469 L 1961.199219 274.507812 L 1961.199219 334.605469 L 1951.140625 334.605469 L 1951.140625 256.617188 L 1961.199219 256.617188 L 1993.160156 316.980469 L 1993.160156 256.617188 L 2003.101562 256.617188 Z M 2003.101562 334.605469 "/>
</svg>
