<?xml version="1.0" encoding="UTF-8"?>
<svg xmlns="http://www.w3.org/2000/svg" xmlns:xlink="http://www.w3.org/1999/xlink" width="892" height="185" viewBox="0 0 892 185">
<path fill-rule="nonzero" fill="rgb(7.998657%, 7.899475%, 7.099915%)" fill-opacity="1" d="M 345.179688 103.109375 C 346.195312 110.8125 341.089844 117.527344 340.101562 118.773438 C 348.558594 116.742188 354.21875 114.300781 361.214844 103.109375 C 368.222656 91.917969 364.273438 74.800781 352.050781 69.195312 C 340.640625 63.941406 327.527344 62.125 315.125 73.746094 C 302.71875 85.382812 297.210938 108.488281 295.605469 120.261719 C 296.816406 120.261719 297.960938 120.335938 297.960938 120.335938 C 297.960938 120.335938 305.789062 90.316406 331.167969 89.742188 C 339.0625 89.5625 345.015625 96.753906 345.179688 103.109375 M 331.144531 138.414062 C 331.308594 148.03125 326.324219 155.71875 317.484375 155.871094 C 308.636719 156.042969 301.554688 148.5 298.503906 135.378906 C 295.773438 135.378906 294.808594 135.207031 294.808594 135.207031 C 294.808594 135.207031 292.398438 162.457031 312.335938 172.058594 C 324.613281 177.984375 333.402344 167.257812 335.164062 163.097656 C 336.9375 158.925781 339.832031 148.1875 331.144531 138.414062 M 287.585938 184.777344 C 284.488281 179.445312 277.792969 173.59375 275.292969 169.402344 C 268.558594 175.753906 261.152344 179.75 250.820312 177.433594 C 240.496094 175.125 224.996094 158.648438 238.683594 136.773438 C 220.613281 141.15625 212.601562 138.71875 206.925781 134.464844 C 201.234375 130.222656 195.09375 122.355469 196.644531 109.796875 C 198.328125 96.101562 198.675781 92.953125 196.253906 74.632812 C 194.070312 58.042969 210.875 35.21875 241.078125 48.667969 C 243.210938 49.695312 244.402344 49.425781 243.890625 47.371094 C 243.371094 45.3125 238.230469 33.191406 239.59375 25.089844 C 241.011719 16.601562 244.757812 6.300781 260.894531 1.164062 C 269.382812 -1.546875 278.003906 2.472656 287.585938 2.332031 L 287.714844 2.332031 C 297.308594 2.472656 305.929688 -1.546875 314.417969 1.164062 C 330.550781 6.300781 334.300781 16.601562 335.71875 25.089844 C 337.070312 33.191406 331.9375 45.3125 331.417969 47.371094 C 330.90625 49.425781 332.097656 49.695312 334.242188 48.667969 C 364.4375 35.21875 381.242188 58.042969 379.046875 74.632812 C 376.636719 92.953125 376.980469 96.101562 378.664062 109.796875 C 380.210938 122.355469 374.078125 130.222656 368.382812 134.464844 C 362.703125 138.71875 354.691406 141.15625 336.625 136.773438 C 350.308594 158.648438 334.816406 175.125 324.488281 177.433594 C 314.164062 179.75 306.753906 175.753906 300.011719 169.402344 C 297.523438 173.59375 290.828125 179.445312 287.714844 184.777344 Z M 287.714844 9.265625 C 287.714844 9.265625 295.171875 17.996094 303.835938 33.195312 C 312.101562 47.6875 310.335938 65.578125 310.335938 67.6875 C 310.335938 69.789062 309.738281 70.390625 310.183594 70.84375 C 310.644531 71.296875 310.644531 70.699219 312.605469 68.890625 C 324.847656 56.992188 343.554688 60.132812 349.960938 62.777344 C 357.070312 65.707031 368.722656 73.503906 369.09375 88.417969 C 369.828125 117.476562 342.980469 124.277344 337.238281 124.007812 C 330.488281 123.679688 334.378906 117.804688 335.332031 116.527344 C 338.097656 112.808594 340.777344 107.851562 339.894531 102.191406 C 339.238281 97.988281 334.050781 93.292969 326.066406 95.582031 C 305.347656 101.515625 303.234375 122.355469 303.234375 122.355469 L 306.5625 128.070312 C 306.5625 128.070312 304.75 130.179688 303.234375 132.585938 C 305.042969 144.039062 310.796875 151.863281 319.253906 150.515625 C 327.71875 149.148438 325.453125 136.195312 325.152344 133.953125 C 324.847656 131.683594 326.457031 125.808594 334.921875 130.019531 C 362.574219 144.214844 375.625 124.070312 373.355469 110 C 370.59375 92.878906 373.40625 80.472656 373.859375 74.941406 C 374.398438 68.375 372.84375 58.953125 365.496094 53.984375 C 353.261719 45.695312 344.792969 50.21875 335.121094 53.828125 C 325.453125 57.441406 325.453125 47.960938 326.664062 44.945312 C 327.871094 41.933594 330.292969 33.804688 330.582031 27.324219 C 330.886719 20.847656 327.113281 13.773438 320.917969 9.105469 C 314.722656 4.4375 304.75 4.890625 301.421875 5.792969 C 298.097656 6.699219 287.714844 7.164062 287.714844 7.164062 L 287.585938 7.164062 C 287.585938 7.164062 277.21875 6.699219 273.886719 5.792969 C 270.5625 4.890625 260.585938 4.4375 254.394531 9.105469 C 248.199219 13.773438 244.417969 20.847656 244.71875 27.324219 C 245.023438 33.804688 247.445312 41.933594 248.644531 44.945312 C 249.863281 47.960938 249.863281 57.441406 240.1875 53.828125 C 230.511719 50.21875 222.050781 45.695312 209.8125 53.984375 C 202.464844 58.953125 200.914062 68.375 201.453125 74.941406 C 201.910156 80.472656 204.714844 92.878906 201.957031 110 C 199.691406 124.070312 212.738281 144.214844 240.398438 130.019531 C 248.863281 125.808594 250.46875 131.683594 250.164062 133.953125 C 249.863281 136.195312 247.589844 149.148438 256.054688 150.515625 C 264.519531 151.863281 270.261719 144.039062 272.074219 132.585938 C 270.5625 130.179688 268.753906 128.070312 268.753906 128.070312 L 272.074219 122.355469 C 272.074219 122.355469 269.960938 101.515625 249.246094 95.582031 C 241.261719 93.292969 236.074219 97.988281 235.417969 102.191406 C 234.53125 107.851562 237.214844 112.808594 239.984375 116.527344 C 240.9375 117.804688 244.824219 123.679688 238.066406 124.007812 C 232.328125 124.277344 205.488281 117.476562 206.214844 88.417969 C 206.585938 73.503906 218.246094 65.707031 225.351562 62.777344 C 231.757812 60.132812 250.46875 56.992188 262.703125 68.890625 C 264.667969 70.699219 264.667969 71.296875 265.121094 70.84375 C 265.574219 70.390625 264.96875 69.789062 264.96875 67.6875 C 264.96875 65.578125 263.210938 47.6875 271.46875 33.195312 C 280.125 17.996094 287.585938 9.265625 287.585938 9.265625 Z M 244.136719 89.746094 C 269.527344 90.320312 277.351562 120.339844 277.351562 120.339844 C 277.351562 120.339844 278.492188 120.265625 279.703125 120.265625 C 278.097656 108.488281 272.59375 85.386719 260.1875 73.75 C 247.785156 62.125 234.671875 63.945312 223.253906 69.199219 C 211.035156 74.800781 207.085938 91.921875 214.085938 103.113281 C 221.085938 114.300781 226.75 116.746094 235.222656 118.777344 C 234.21875 117.53125 229.117188 110.816406 230.132812 103.113281 C 230.292969 96.757812 236.253906 89.566406 244.136719 89.746094 M 240.144531 163.101562 C 241.910156 167.261719 250.691406 177.988281 262.976562 172.0625 C 282.914062 162.460938 280.507812 135.210938 280.507812 135.210938 C 280.507812 135.210938 279.539062 135.382812 276.808594 135.382812 C 273.75 148.503906 266.675781 156.046875 257.828125 155.875 C 248.992188 155.722656 244 148.035156 244.160156 138.417969 C 235.484375 148.191406 238.371094 158.929688 240.144531 163.101562 M 287.714844 175.921875 C 288.953125 173.652344 293.851562 170.503906 296.519531 165.089844 C 287.378906 149.359375 289.820312 130.894531 289.820312 130.894531 L 298.664062 130.246094 L 300.273438 127.828125 L 297.859375 124.957031 L 290.300781 124.789062 C 290.464844 116.949219 293.683594 103.644531 293.683594 103.644531 L 287.714844 97.71875 L 287.585938 97.71875 L 281.628906 103.644531 C 281.628906 103.644531 284.847656 116.949219 285 124.789062 L 277.445312 124.957031 L 275.039062 127.828125 L 276.648438 130.246094 L 285.484375 130.894531 C 285.484375 130.894531 287.929688 149.359375 278.789062 165.089844 C 281.449219 170.503906 286.363281 173.652344 287.585938 175.921875 Z M 287.714844 90.609375 C 287.714844 90.609375 289.265625 92.542969 294.9375 98.035156 C 296.074219 95.121094 303.195312 76.246094 304.164062 72.699219 C 305.136719 69.140625 307.078125 57.695312 303.523438 45.277344 C 299.960938 32.84375 287.714844 16.5625 287.714844 16.5625 L 287.585938 16.5625 C 287.585938 16.5625 275.351562 32.84375 271.800781 45.277344 C 268.230469 57.695312 270.171875 69.140625 271.148438 72.699219 C 272.113281 76.246094 279.238281 95.121094 280.378906 98.035156 C 286.042969 92.542969 287.585938 90.609375 287.585938 90.609375 Z M 287.714844 90.609375 "/>
<path fill-rule="nonzero" fill="rgb(7.998657%, 7.899475%, 7.099915%)" fill-opacity="1" d="M 130.363281 100.308594 C 128.195312 103.398438 125.199219 104.941406 121.363281 104.941406 C 116.40625 104.941406 112.832031 102.859375 110.65625 98.695312 L 110.65625 74.894531 C 112.800781 70.828125 116.339844 68.800781 121.265625 68.800781 C 125.230469 68.800781 128.28125 70.367188 130.410156 73.507812 C 132.542969 76.648438 133.609375 80.894531 133.609375 86.25 C 133.609375 92.53125 132.527344 97.214844 130.363281 100.308594 M 140.03125 66.242188 L 140.03125 66.246094 C 136.3125 61.367188 131.179688 58.933594 124.636719 58.933594 C 118.554688 58.933594 113.746094 61.082031 110.207031 65.375 L 109.980469 62.796875 C 109.871094 60.96875 108.789062 59.917969 107.308594 59.917969 C 107.277344 59.917969 101.527344 59.925781 101.527344 59.925781 C 99.796875 59.925781 98.605469 61.160156 98.605469 62.84375 L 98.570312 130.25 C 98.570312 132.464844 100.09375 134.195312 102.21875 134.195312 L 107.042969 134.183594 C 109.164062 134.183594 110.644531 132.449219 110.644531 130.386719 L 110.65625 130.160156 L 109.746094 62.457031 L 110.65625 129.867188 L 110.65625 108.757812 C 114.191406 112.625 118.902344 114.558594 124.785156 114.558594 C 131.128906 114.558594 136.191406 112.089844 139.957031 107.148438 C 143.722656 102.207031 145.609375 95.589844 145.609375 87.289062 L 145.609375 86.546875 C 145.609375 77.886719 143.75 71.121094 140.03125 66.242188 "/>
<path fill-rule="nonzero" fill="rgb(7.998657%, 7.899475%, 7.099915%)" fill-opacity="1" d="M 44.359375 59.089844 L 38.351562 59.089844 C 35.46875 59.089844 34.949219 61.269531 34.597656 62.34375 C 34.332031 63.140625 24.511719 95.738281 24.304688 96.429688 C 24.097656 97.125 23.515625 97.117188 23.3125 96.429688 C 23.109375 95.742188 13.285156 63.140625 13.023438 62.34375 C 12.667969 61.269531 12.148438 59.089844 9.265625 59.089844 L 3.257812 59.089844 C 0.527344 59.089844 -0.0351562 61.210938 0.585938 62.980469 L 17.621094 111.429688 C 18.042969 112.582031 19.429688 113.796875 20.914062 113.796875 L 26.707031 113.796875 C 28.1875 113.796875 29.578125 112.582031 29.992188 111.429688 L 47.03125 62.980469 C 47.652344 61.210938 47.09375 59.089844 44.359375 59.089844 "/>
<path fill-rule="nonzero" fill="rgb(7.998657%, 7.899475%, 7.099915%)" fill-opacity="1" d="M 88.074219 104.234375 C 87.769531 103.9375 86.957031 103.230469 86.636719 102.925781 C 86.207031 102.519531 85.390625 101.992188 83.757812 102.257812 C 82.421875 102.476562 81.046875 103.421875 80.09375 103.789062 C 78.621094 104.367188 76.859375 104.8125 75.035156 104.8125 C 71.066406 104.8125 68.035156 103.382812 65.9375 100.523438 C 63.835938 97.664062 62.789062 93.324219 62.789062 87.511719 L 62.789062 85.574219 C 62.820312 79.824219 63.890625 75.535156 66.007812 72.710938 C 68.125 69.882812 71.132812 68.472656 75.035156 68.472656 C 76.683594 68.472656 78.140625 68.769531 79.472656 69.34375 C 80.335938 69.714844 82.375 70.726562 83.601562 70.726562 C 84.964844 70.726562 85.953125 69.796875 86.089844 69.652344 C 86.382812 69.347656 86.875 68.824219 87.152344 68.523438 C 87.558594 68.082031 88.5625 66.988281 88.5625 66.988281 C 89.449219 65.882812 89.878906 63.894531 87.917969 62.414062 C 87.917969 62.414062 87.425781 61.941406 86.570312 61.464844 C 83.332031 59.65625 79.640625 58.800781 75.132812 58.800781 C 67.59375 58.800781 61.648438 61.257812 57.285156 66.164062 C 52.921875 71.074219 50.738281 77.613281 50.738281 85.773438 L 50.738281 87.015625 C 50.738281 95.570312 52.933594 102.285156 57.335938 107.144531 C 61.726562 111.996094 67.664062 114.425781 75.15625 114.429688 C 80.394531 114.429688 83.777344 113 87.34375 111.164062 C 87.925781 110.867188 88.4375 110.410156 88.4375 110.410156 C 90.25 109.09375 90.203125 106.519531 89.21875 105.414062 C 89.21875 105.414062 88.519531 104.660156 88.074219 104.234375 "/>
<path fill-rule="nonzero" fill="rgb(7.998657%, 7.899475%, 7.099915%)" fill-opacity="1" d="M 438.914062 75.914062 L 446.148438 50.886719 L 450.511719 50.886719 L 440.671875 81.898438 L 437.195312 81.898438 L 427.378906 50.886719 L 431.722656 50.886719 Z M 438.914062 75.914062 "/>
<path fill-rule="nonzero" fill="rgb(7.998657%, 7.899475%, 7.099915%)" fill-opacity="1" d="M 470.890625 67.5625 L 459.703125 67.5625 L 459.703125 78.554688 L 472.738281 78.554688 L 472.738281 81.898438 L 455.730469 81.898438 L 455.730469 50.886719 L 472.519531 50.886719 L 472.519531 54.253906 L 459.703125 54.253906 L 459.703125 64.21875 L 470.890625 64.21875 Z M 470.890625 67.5625 "/>
<path fill-rule="nonzero" fill="rgb(7.998657%, 7.899475%, 7.099915%)" fill-opacity="1" d="M 482.75 66.011719 L 487.574219 66.011719 C 488.484375 66.011719 489.28125 65.855469 489.960938 65.550781 C 490.644531 65.246094 491.210938 64.832031 491.667969 64.316406 C 492.125 63.796875 492.46875 63.1875 492.699219 62.484375 C 492.933594 61.78125 493.046875 61.023438 493.046875 60.21875 C 493.046875 59.320312 492.945312 58.507812 492.742188 57.777344 C 492.539062 57.046875 492.222656 56.417969 491.789062 55.894531 C 491.351562 55.367188 490.792969 54.964844 490.105469 54.679688 C 489.417969 54.394531 488.585938 54.253906 487.617188 54.253906 L 482.75 54.253906 Z M 488.3125 69.351562 L 482.75 69.351562 L 482.75 81.898438 L 478.753906 81.898438 L 478.753906 50.886719 L 487.617188 50.886719 C 490.714844 50.886719 493.0625 51.679688 494.65625 53.265625 C 496.246094 54.847656 497.042969 57.164062 497.042969 60.21875 C 497.042969 62.132812 496.613281 63.804688 495.753906 65.230469 C 494.890625 66.660156 493.667969 67.734375 492.089844 68.457031 L 498.21875 81.640625 L 498.21875 81.898438 L 493.9375 81.898438 Z M 488.3125 69.351562 "/>
<path fill-rule="nonzero" fill="rgb(7.998657%, 7.899475%, 7.099915%)" fill-opacity="1" d="M 507.277344 67.394531 L 507.277344 78.554688 L 512.707031 78.554688 C 513.492188 78.554688 514.183594 78.421875 514.792969 78.160156 C 515.402344 77.898438 515.914062 77.527344 516.335938 77.050781 C 516.753906 76.574219 517.074219 75.996094 517.292969 75.304688 C 517.507812 74.617188 517.617188 73.847656 517.617188 72.996094 C 517.617188 72.144531 517.527344 71.371094 517.34375 70.671875 C 517.164062 69.976562 516.882812 69.390625 516.5 68.90625 C 516.113281 68.421875 515.621094 68.050781 515.019531 67.785156 C 514.421875 67.523438 513.699219 67.394531 512.859375 67.394531 Z M 507.277344 64.113281 L 512.382812 64.113281 C 513.046875 64.113281 513.664062 64 514.226562 63.773438 C 514.792969 63.546875 515.277344 63.21875 515.683594 62.792969 C 516.089844 62.367188 516.40625 61.847656 516.640625 61.230469 C 516.871094 60.609375 516.988281 59.910156 516.988281 59.128906 C 516.988281 57.425781 516.601562 56.1875 515.835938 55.414062 C 515.070312 54.640625 513.894531 54.253906 512.316406 54.253906 L 507.277344 54.253906 Z M 503.300781 81.898438 L 503.300781 50.886719 L 512.316406 50.886719 C 513.675781 50.886719 514.898438 51.046875 515.976562 51.367188 C 517.054688 51.6875 517.96875 52.183594 518.714844 52.859375 C 519.460938 53.53125 520.027344 54.390625 520.417969 55.425781 C 520.808594 56.460938 521.007812 57.703125 521.007812 59.152344 C 521.007812 60.601562 520.636719 61.878906 519.898438 62.984375 C 519.160156 64.09375 518.160156 64.953125 516.902344 65.5625 C 517.667969 65.789062 518.34375 66.136719 518.929688 66.605469 C 519.519531 67.074219 520.011719 67.632812 520.410156 68.277344 C 520.804688 68.921875 521.105469 69.644531 521.308594 70.4375 C 521.511719 71.234375 521.613281 72.070312 521.613281 72.953125 C 521.613281 74.402344 521.40625 75.683594 520.984375 76.796875 C 520.5625 77.910156 519.96875 78.847656 519.191406 79.609375 C 518.417969 80.367188 517.480469 80.9375 516.378906 81.320312 C 515.277344 81.707031 514.054688 81.898438 512.707031 81.898438 Z M 503.300781 81.898438 "/>
<path fill-rule="nonzero" fill="rgb(7.998657%, 7.899475%, 7.099915%)" fill-opacity="1" d="M 533.605469 70.4375 L 542.230469 70.4375 L 537.90625 56.339844 Z M 543.25 73.804688 L 532.5625 73.804688 L 530.109375 81.898438 L 526.023438 81.898438 L 536.210938 50.886719 L 539.621094 50.886719 L 549.832031 81.898438 L 545.746094 81.898438 Z M 543.25 73.804688 "/>
<path fill-rule="nonzero" fill="rgb(7.998657%, 7.899475%, 7.099915%)" fill-opacity="1" d="M 575.726562 81.898438 L 571.730469 81.898438 L 559.0625 58.003906 L 559.0625 81.898438 L 555.066406 81.898438 L 555.066406 50.886719 L 559.0625 50.886719 L 571.773438 74.890625 L 571.773438 50.886719 L 575.726562 50.886719 Z M 575.726562 81.898438 "/>
<path fill-rule="nonzero" fill="rgb(7.998657%, 7.899475%, 7.099915%)" fill-opacity="1" d="M 587.519531 54.253906 L 587.519531 78.554688 L 590.714844 78.554688 C 593.539062 78.554688 595.59375 77.75 596.882812 76.148438 C 598.171875 74.542969 598.816406 72.171875 598.816406 69.035156 L 598.816406 63.730469 C 598.816406 60.464844 598.175781 58.070312 596.894531 56.542969 C 595.613281 55.015625 593.675781 54.253906 591.085938 54.253906 Z M 583.546875 81.898438 L 583.546875 50.886719 L 591.085938 50.886719 C 592.863281 50.886719 594.472656 51.164062 595.90625 51.707031 C 597.339844 52.253906 598.5625 53.070312 599.578125 54.15625 C 600.589844 55.242188 601.371094 56.59375 601.921875 58.203125 C 602.472656 59.816406 602.75 61.679688 602.75 63.792969 L 602.75 69.035156 C 602.75 71.148438 602.472656 73.007812 601.921875 74.613281 C 601.371094 76.21875 600.585938 77.5625 599.554688 78.640625 C 598.527344 79.714844 597.265625 80.53125 595.773438 81.078125 C 594.285156 81.625 592.597656 81.898438 590.714844 81.898438 Z M 583.546875 81.898438 "/>
<path fill-rule="nonzero" fill="rgb(7.998657%, 7.899475%, 7.099915%)" fill-opacity="1" d="M 640.828125 72.058594 C 640.742188 73.660156 640.46875 75.097656 640.011719 76.359375 C 639.558594 77.625 638.910156 78.699219 638.070312 79.585938 C 637.230469 80.472656 636.191406 81.152344 634.953125 81.621094 C 633.714844 82.089844 632.277344 82.324219 630.640625 82.324219 C 629.046875 82.324219 627.613281 82.015625 626.339844 81.40625 C 625.0625 80.796875 623.976562 79.921875 623.082031 78.789062 C 622.183594 77.652344 621.492188 76.28125 621.007812 74.675781 C 620.519531 73.074219 620.277344 71.269531 620.277344 69.269531 L 620.277344 63.539062 C 620.277344 61.550781 620.519531 59.75 621.007812 58.140625 C 621.492188 56.527344 622.191406 55.15625 623.113281 54.019531 C 624.035156 52.882812 625.15625 52.007812 626.492188 51.390625 C 627.824219 50.769531 629.332031 50.460938 631.011719 50.460938 C 632.546875 50.460938 633.902344 50.691406 635.082031 51.144531 C 636.261719 51.597656 637.265625 52.265625 638.089844 53.148438 C 638.917969 54.027344 639.5625 55.113281 640.023438 56.40625 C 640.488281 57.695312 640.753906 59.179688 640.828125 60.855469 L 636.8125 60.855469 C 636.722656 59.636719 636.554688 58.585938 636.3125 57.703125 C 636.0625 56.824219 635.710938 56.097656 635.246094 55.519531 C 634.78125 54.945312 634.203125 54.519531 633.507812 54.242188 C 632.8125 53.964844 631.980469 53.828125 631.011719 53.828125 C 629.851562 53.828125 628.851562 54.058594 628.011719 54.519531 C 627.171875 54.980469 626.476562 55.628906 625.925781 56.46875 C 625.375 57.304688 624.96875 58.320312 624.699219 59.511719 C 624.433594 60.707031 624.296875 62.035156 624.296875 63.496094 L 624.296875 69.269531 C 624.296875 70.628906 624.410156 71.902344 624.632812 73.082031 C 624.859375 74.257812 625.21875 75.289062 625.71875 76.167969 C 626.21875 77.046875 626.875 77.742188 627.6875 78.242188 C 628.496094 78.75 629.480469 79 630.640625 79 C 631.726562 79 632.640625 78.871094 633.390625 78.605469 C 634.132812 78.34375 634.742188 77.933594 635.214844 77.371094 C 635.683594 76.808594 636.042969 76.09375 636.289062 75.21875 C 636.535156 74.347656 636.710938 73.292969 636.8125 72.058594 Z M 640.828125 72.058594 "/>
<path fill-rule="nonzero" fill="rgb(7.998657%, 7.899475%, 7.099915%)" fill-opacity="1" d="M 667.851562 81.898438 L 663.855469 81.898438 L 663.855469 67.5625 L 651.125 67.5625 L 651.125 81.898438 L 647.148438 81.898438 L 647.148438 50.886719 L 651.125 50.886719 L 651.125 64.21875 L 663.855469 64.21875 L 663.855469 50.886719 L 667.851562 50.886719 Z M 667.851562 81.898438 "/>
<path fill-rule="nonzero" fill="rgb(7.998657%, 7.899475%, 7.099915%)" fill-opacity="1" d="M 679.671875 66.011719 L 684.492188 66.011719 C 685.40625 66.011719 686.199219 65.855469 686.882812 65.550781 C 687.5625 65.246094 688.132812 64.832031 688.589844 64.316406 C 689.042969 63.796875 689.386719 63.1875 689.621094 62.484375 C 689.851562 61.78125 689.96875 61.023438 689.96875 60.21875 C 689.96875 59.320312 689.863281 58.507812 689.664062 57.777344 C 689.460938 57.046875 689.140625 56.417969 688.707031 55.894531 C 688.273438 55.367188 687.710938 54.964844 687.023438 54.679688 C 686.335938 54.394531 685.507812 54.253906 684.535156 54.253906 L 679.671875 54.253906 Z M 685.230469 69.351562 L 679.671875 69.351562 L 679.671875 81.898438 L 675.675781 81.898438 L 675.675781 50.886719 L 684.535156 50.886719 C 687.636719 50.886719 689.980469 51.679688 691.574219 53.265625 C 693.167969 54.847656 693.964844 57.164062 693.964844 60.21875 C 693.964844 62.132812 693.53125 63.804688 692.671875 65.230469 C 691.808594 66.660156 690.589844 67.734375 689.011719 68.457031 L 695.136719 81.640625 L 695.136719 81.898438 L 690.855469 81.898438 Z M 685.230469 69.351562 "/>
<path fill-rule="nonzero" fill="rgb(7.998657%, 7.899475%, 7.099915%)" fill-opacity="1" d="M 704.367188 81.898438 L 700.394531 81.898438 L 700.394531 50.886719 L 704.367188 50.886719 Z M 704.367188 81.898438 "/>
<path fill-rule="nonzero" fill="rgb(7.998657%, 7.899475%, 7.099915%)" fill-opacity="1" d="M 726.09375 74.058594 C 726.09375 73.335938 726.007812 72.695312 725.84375 72.140625 C 725.675781 71.589844 725.367188 71.082031 724.921875 70.621094 C 724.472656 70.15625 723.859375 69.726562 723.09375 69.320312 C 722.324219 68.917969 721.335938 68.5 720.117188 68.074219 C 718.816406 67.636719 717.636719 67.136719 716.578125 66.574219 C 715.519531 66.011719 714.617188 65.367188 713.871094 64.636719 C 713.128906 63.902344 712.550781 63.070312 712.144531 62.132812 C 711.738281 61.195312 711.539062 60.125 711.539062 58.917969 C 711.539062 57.710938 711.75 56.59375 712.179688 55.5625 C 712.605469 54.535156 713.214844 53.640625 714.003906 52.878906 C 714.792969 52.121094 715.746094 51.527344 716.871094 51.101562 C 717.992188 50.675781 719.242188 50.460938 720.617188 50.460938 C 722.152344 50.460938 723.511719 50.726562 724.691406 51.25 C 725.871094 51.777344 726.863281 52.472656 727.667969 53.339844 C 728.472656 54.203125 729.074219 55.203125 729.480469 56.339844 C 729.886719 57.476562 730.089844 58.648438 730.089844 59.855469 L 726.09375 59.855469 C 726.09375 58.988281 725.988281 58.1875 725.777344 57.449219 C 725.566406 56.710938 725.238281 56.070312 724.789062 55.53125 C 724.339844 54.992188 723.773438 54.574219 723.085938 54.273438 C 722.394531 53.976562 721.574219 53.828125 720.617188 53.828125 C 719.734375 53.828125 718.972656 53.953125 718.335938 54.210938 C 717.699219 54.46875 717.175781 54.816406 716.761719 55.265625 C 716.351562 55.710938 716.046875 56.242188 715.851562 56.851562 C 715.652344 57.460938 715.558594 58.128906 715.558594 58.851562 C 715.558594 60.160156 716.035156 61.253906 716.988281 62.132812 C 717.945312 63.015625 719.421875 63.800781 721.421875 64.496094 C 722.957031 64.996094 724.273438 65.542969 725.375 66.148438 C 726.476562 66.75 727.378906 67.4375 728.078125 68.203125 C 728.78125 68.972656 729.296875 69.828125 729.621094 70.78125 C 729.945312 71.730469 730.109375 72.808594 730.109375 74.015625 C 730.109375 75.28125 729.894531 76.421875 729.460938 77.445312 C 729.023438 78.46875 728.40625 79.339844 727.601562 80.066406 C 726.800781 80.789062 725.824219 81.347656 724.679688 81.738281 C 723.535156 82.125 722.246094 82.324219 720.8125 82.324219 C 719.566406 82.324219 718.339844 82.125 717.132812 81.726562 C 715.921875 81.328125 714.84375 80.738281 713.894531 79.949219 C 712.945312 79.160156 712.179688 78.179688 711.59375 77 C 711.007812 75.820312 710.710938 74.457031 710.710938 72.910156 L 714.710938 72.910156 C 714.710938 73.976562 714.867188 74.886719 715.1875 75.644531 C 715.507812 76.40625 715.945312 77.035156 716.5 77.53125 C 717.058594 78.027344 717.707031 78.394531 718.445312 78.628906 C 719.183594 78.863281 719.972656 78.980469 720.8125 78.980469 C 722.566406 78.980469 723.882812 78.539062 724.765625 77.660156 C 725.652344 76.777344 726.09375 75.578125 726.09375 74.058594 "/>
<path fill-rule="nonzero" fill="rgb(7.998657%, 7.899475%, 7.099915%)" fill-opacity="1" d="M 754.746094 54.253906 L 746.425781 54.253906 L 746.425781 81.898438 L 742.453125 81.898438 L 742.453125 54.253906 L 734.152344 54.253906 L 734.152344 50.886719 L 754.746094 50.886719 Z M 754.746094 54.253906 "/>
<path fill-rule="nonzero" fill="rgb(7.998657%, 7.899475%, 7.099915%)" fill-opacity="1" d="M 764.347656 78.554688 L 776.75 78.554688 L 776.75 81.898438 L 760.351562 81.898438 L 760.351562 50.886719 L 764.347656 50.886719 Z M 764.347656 78.554688 "/>
<path fill-rule="nonzero" fill="rgb(7.998657%, 7.899475%, 7.099915%)" fill-opacity="1" d="M 786.570312 81.898438 L 782.59375 81.898438 L 782.59375 50.886719 L 786.570312 50.886719 Z M 786.570312 81.898438 "/>
<path fill-rule="nonzero" fill="rgb(7.998657%, 7.899475%, 7.099915%)" fill-opacity="1" d="M 814.308594 72.058594 C 814.222656 73.660156 813.949219 75.097656 813.492188 76.359375 C 813.039062 77.625 812.390625 78.699219 811.550781 79.585938 C 810.710938 80.472656 809.671875 81.152344 808.433594 81.621094 C 807.195312 82.089844 805.757812 82.324219 804.121094 82.324219 C 802.527344 82.324219 801.09375 82.015625 799.820312 81.40625 C 798.542969 80.796875 797.457031 79.921875 796.5625 78.789062 C 795.664062 77.652344 794.972656 76.28125 794.488281 74.675781 C 794 73.074219 793.761719 71.269531 793.761719 69.269531 L 793.761719 63.539062 C 793.761719 61.550781 794 59.75 794.488281 58.140625 C 794.972656 56.527344 795.671875 55.15625 796.59375 54.019531 C 797.515625 52.882812 798.640625 52.007812 799.972656 51.390625 C 801.304688 50.769531 802.8125 50.460938 804.492188 50.460938 C 806.027344 50.460938 807.382812 50.691406 808.5625 51.144531 C 809.742188 51.597656 810.746094 52.265625 811.570312 53.148438 C 812.398438 54.027344 813.042969 55.113281 813.503906 56.40625 C 813.96875 57.695312 814.234375 59.179688 814.308594 60.855469 L 810.292969 60.855469 C 810.203125 59.636719 810.035156 58.585938 809.792969 57.703125 C 809.542969 56.824219 809.191406 56.097656 808.726562 55.519531 C 808.261719 54.945312 807.683594 54.519531 806.988281 54.242188 C 806.292969 53.964844 805.460938 53.828125 804.492188 53.828125 C 803.332031 53.828125 802.332031 54.058594 801.492188 54.519531 C 800.652344 54.980469 799.957031 55.628906 799.40625 56.46875 C 798.855469 57.304688 798.449219 58.320312 798.179688 59.511719 C 797.914062 60.707031 797.777344 62.035156 797.777344 63.496094 L 797.777344 69.269531 C 797.777344 70.628906 797.890625 71.902344 798.113281 73.082031 C 798.339844 74.257812 798.699219 75.289062 799.199219 76.167969 C 799.699219 77.046875 800.355469 77.742188 801.167969 78.242188 C 801.976562 78.75 802.960938 79 804.121094 79 C 805.207031 79 806.121094 78.871094 806.871094 78.605469 C 807.613281 78.34375 808.222656 77.933594 808.695312 77.371094 C 809.164062 76.808594 809.523438 76.09375 809.769531 75.21875 C 810.015625 74.347656 810.191406 73.292969 810.292969 72.058594 Z M 814.308594 72.058594 "/>
<path fill-rule="nonzero" fill="rgb(7.998657%, 7.899475%, 7.099915%)" fill-opacity="1" d="M 841.335938 81.898438 L 837.335938 81.898438 L 837.335938 67.5625 L 824.605469 67.5625 L 824.605469 81.898438 L 820.632812 81.898438 L 820.632812 50.886719 L 824.605469 50.886719 L 824.605469 64.21875 L 837.335938 64.21875 L 837.335938 50.886719 L 841.335938 50.886719 Z M 841.335938 81.898438 "/>
<path fill-rule="nonzero" fill="rgb(7.998657%, 7.899475%, 7.099915%)" fill-opacity="1" d="M 864.316406 67.5625 L 853.128906 67.5625 L 853.128906 78.554688 L 866.164062 78.554688 L 866.164062 81.898438 L 849.15625 81.898438 L 849.15625 50.886719 L 865.945312 50.886719 L 865.945312 54.253906 L 853.128906 54.253906 L 853.128906 64.21875 L 864.316406 64.21875 Z M 864.316406 67.5625 "/>
<path fill-rule="nonzero" fill="rgb(7.998657%, 7.899475%, 7.099915%)" fill-opacity="1" d="M 876.179688 66.011719 L 881 66.011719 C 881.914062 66.011719 882.707031 65.855469 883.390625 65.550781 C 884.070312 65.246094 884.640625 64.832031 885.09375 64.316406 C 885.550781 63.796875 885.894531 63.1875 886.128906 62.484375 C 886.359375 61.78125 886.476562 61.023438 886.476562 60.21875 C 886.476562 59.320312 886.371094 58.507812 886.171875 57.777344 C 885.96875 57.046875 885.648438 56.417969 885.214844 55.894531 C 884.78125 55.367188 884.21875 54.964844 883.53125 54.679688 C 882.84375 54.394531 882.015625 54.253906 881.042969 54.253906 L 876.179688 54.253906 Z M 881.738281 69.351562 L 876.179688 69.351562 L 876.179688 81.898438 L 872.183594 81.898438 L 872.183594 50.886719 L 881.042969 50.886719 C 884.144531 50.886719 886.488281 51.679688 888.082031 53.265625 C 889.675781 54.847656 890.472656 57.164062 890.472656 60.21875 C 890.472656 62.132812 890.039062 63.804688 889.179688 65.230469 C 888.316406 66.660156 887.097656 67.734375 885.519531 68.457031 L 891.644531 81.640625 L 891.644531 81.898438 L 887.363281 81.898438 Z M 881.738281 69.351562 "/>
<path fill-rule="nonzero" fill="rgb(7.998657%, 7.899475%, 7.099915%)" fill-opacity="1" d="M 433.851562 117.6875 L 439.957031 117.6875 C 440.925781 117.6875 441.753906 117.539062 442.441406 117.242188 C 443.132812 116.945312 443.695312 116.527344 444.136719 115.996094 C 444.578125 115.460938 444.90625 114.832031 445.117188 114.101562 C 445.324219 113.367188 445.429688 112.5625 445.429688 111.683594 C 445.429688 110.886719 445.324219 110.117188 445.117188 109.371094 C 444.90625 108.625 444.578125 107.96875 444.136719 107.402344 C 443.695312 106.832031 443.132812 106.378906 442.441406 106.039062 C 441.753906 105.699219 440.925781 105.527344 439.957031 105.527344 L 433.851562 105.527344 Z M 433.851562 121.03125 L 433.851562 133.171875 L 429.875 133.171875 L 429.875 102.164062 L 439.957031 102.164062 C 441.476562 102.164062 442.828125 102.398438 444.007812 102.867188 C 445.1875 103.335938 446.175781 103.992188 446.972656 104.835938 C 447.769531 105.679688 448.375 106.679688 448.785156 107.839844 C 449.199219 108.996094 449.40625 110.261719 449.40625 111.640625 C 449.40625 113.132812 449.199219 114.460938 448.785156 115.632812 C 448.375 116.804688 447.765625 117.789062 446.960938 118.582031 C 446.15625 119.378906 445.171875 119.984375 443.996094 120.402344 C 442.824219 120.824219 441.476562 121.03125 439.957031 121.03125 Z M 433.851562 121.03125 "/>
<path fill-rule="nonzero" fill="rgb(7.998657%, 7.899475%, 7.099915%)" fill-opacity="1" d="M 470.128906 119.476562 L 459.441406 119.476562 L 459.441406 133.171875 L 455.46875 133.171875 L 455.46875 102.160156 L 471.933594 102.160156 L 471.933594 105.527344 L 459.441406 105.527344 L 459.441406 116.132812 L 470.128906 116.132812 Z M 470.128906 119.476562 "/>
<path fill-rule="nonzero" fill="rgb(7.998657%, 7.899475%, 7.099915%)" fill-opacity="1" d="M 479.1875 121.714844 L 487.8125 121.714844 L 483.492188 107.613281 Z M 488.835938 125.078125 L 478.144531 125.078125 L 475.691406 133.171875 L 471.605469 133.171875 L 481.796875 102.164062 L 485.207031 102.164062 L 495.417969 133.171875 L 491.332031 133.171875 Z M 488.835938 125.078125 "/>
<path fill-rule="nonzero" fill="rgb(7.998657%, 7.899475%, 7.099915%)" fill-opacity="1" d="M 504.625 105.527344 L 504.625 129.828125 L 507.820312 129.828125 C 510.644531 129.828125 512.699219 129.027344 513.988281 127.421875 C 515.277344 125.816406 515.921875 123.445312 515.921875 120.308594 L 515.921875 115.007812 C 515.921875 111.738281 515.28125 109.34375 514 107.816406 C 512.71875 106.292969 510.78125 105.527344 508.191406 105.527344 Z M 500.652344 133.171875 L 500.652344 102.160156 L 508.191406 102.160156 C 509.96875 102.160156 511.578125 102.4375 513.011719 102.984375 C 514.445312 103.527344 515.667969 104.34375 516.683594 105.429688 C 517.695312 106.515625 518.476562 107.867188 519.027344 109.476562 C 519.578125 111.089844 519.855469 112.953125 519.855469 115.070312 L 519.855469 120.308594 C 519.855469 122.421875 519.578125 124.285156 519.027344 125.886719 C 518.476562 127.492188 517.691406 128.835938 516.660156 129.914062 C 515.632812 130.992188 514.371094 131.804688 512.882812 132.351562 C 511.390625 132.898438 509.703125 133.171875 507.820312 133.171875 Z M 500.652344 133.171875 "/>
<path fill-rule="nonzero" fill="rgb(7.998657%, 7.899475%, 7.099915%)" fill-opacity="1" d="M 541.640625 119.476562 L 530.953125 119.476562 L 530.953125 133.171875 L 526.980469 133.171875 L 526.980469 102.160156 L 543.445312 102.160156 L 543.445312 105.527344 L 530.953125 105.527344 L 530.953125 116.132812 L 541.640625 116.132812 Z M 541.640625 119.476562 "/>
<path fill-rule="nonzero" fill="rgb(7.998657%, 7.899475%, 7.099915%)" fill-opacity="1" d="M 553.4375 133.171875 L 549.460938 133.171875 L 549.460938 102.160156 L 553.4375 102.160156 Z M 553.4375 133.171875 "/>
<path fill-rule="nonzero" fill="rgb(7.998657%, 7.899475%, 7.099915%)" fill-opacity="1" d="M 582.003906 133.171875 L 578.007812 133.171875 L 565.34375 109.277344 L 565.34375 133.171875 L 561.347656 133.171875 L 561.347656 102.164062 L 565.34375 102.164062 L 578.050781 126.164062 L 578.050781 102.164062 L 582.003906 102.164062 Z M 582.003906 133.171875 "/>
<path fill-rule="nonzero" fill="rgb(7.998657%, 7.899475%, 7.099915%)" fill-opacity="1" d="M 593.796875 105.527344 L 593.796875 129.828125 L 596.992188 129.828125 C 599.816406 129.828125 601.871094 129.027344 603.160156 127.421875 C 604.449219 125.816406 605.09375 123.445312 605.09375 120.308594 L 605.09375 115.007812 C 605.09375 111.738281 604.453125 109.34375 603.171875 107.816406 C 601.890625 106.292969 599.953125 105.527344 597.363281 105.527344 Z M 589.824219 133.171875 L 589.824219 102.160156 L 597.363281 102.160156 C 599.140625 102.160156 600.75 102.4375 602.183594 102.984375 C 603.617188 103.527344 604.839844 104.34375 605.855469 105.429688 C 606.867188 106.515625 607.648438 107.867188 608.199219 109.476562 C 608.75 111.089844 609.027344 112.953125 609.027344 115.070312 L 609.027344 120.308594 C 609.027344 122.421875 608.75 124.285156 608.199219 125.886719 C 607.648438 127.492188 606.863281 128.835938 605.832031 129.914062 C 604.804688 130.992188 603.542969 131.804688 602.050781 132.351562 C 600.5625 132.898438 598.875 133.171875 596.992188 133.171875 Z M 589.824219 133.171875 "/>
<path fill-rule="nonzero" fill="rgb(7.998657%, 7.899475%, 7.099915%)" fill-opacity="1" d="M 631.3125 118.839844 L 620.125 118.839844 L 620.125 129.828125 L 633.160156 129.828125 L 633.160156 133.171875 L 616.152344 133.171875 L 616.152344 102.164062 L 632.941406 102.164062 L 632.941406 105.527344 L 620.125 105.527344 L 620.125 115.496094 L 631.3125 115.496094 Z M 631.3125 118.839844 "/>
<path fill-rule="nonzero" fill="rgb(7.998657%, 7.899475%, 7.099915%)" fill-opacity="1" d="M 643.175781 117.285156 L 647.996094 117.285156 C 648.910156 117.285156 649.703125 117.132812 650.386719 116.828125 C 651.066406 116.519531 651.632812 116.109375 652.089844 115.589844 C 652.546875 115.074219 652.890625 114.460938 653.125 113.757812 C 653.355469 113.054688 653.46875 112.300781 653.46875 111.492188 C 653.46875 110.597656 653.367188 109.785156 653.167969 109.050781 C 652.964844 108.320312 652.644531 107.691406 652.210938 107.167969 C 651.777344 106.640625 651.214844 106.238281 650.527344 105.953125 C 649.839844 105.671875 649.007812 105.527344 648.039062 105.527344 L 643.175781 105.527344 Z M 648.734375 120.628906 L 643.175781 120.628906 L 643.175781 133.171875 L 639.175781 133.171875 L 639.175781 102.164062 L 648.039062 102.164062 C 651.136719 102.164062 653.484375 102.953125 655.078125 104.539062 C 656.671875 106.121094 657.46875 108.4375 657.46875 111.492188 C 657.46875 113.40625 657.035156 115.078125 656.175781 116.507812 C 655.3125 117.933594 654.09375 119.007812 652.515625 119.730469 L 658.640625 132.914062 L 658.640625 133.171875 L 654.359375 133.171875 Z M 648.734375 120.628906 "/>
<path fill-rule="nonzero" fill="rgb(7.998657%, 7.899475%, 7.099915%)" fill-opacity="1" d="M 667.484375 112.238281 L 660.921875 110.320312 L 661.921875 107.101562 L 668.480469 109.488281 L 668.289062 102.164062 L 671.609375 102.164062 L 671.390625 109.59375 L 677.84375 107.253906 L 678.84375 110.492188 L 672.175781 112.425781 L 676.476562 118.199219 L 673.78125 120.203125 L 669.742188 114.066406 L 665.832031 120.050781 L 663.117188 118.113281 Z M 667.484375 112.238281 "/>
<path fill-rule="nonzero" fill="rgb(7.998657%, 7.899475%, 7.099915%)" fill-opacity="1" d="M 687.964844 133.171875 L 683.988281 133.171875 L 683.988281 102.160156 L 687.964844 102.160156 Z M 687.964844 133.171875 "/>
<path fill-rule="nonzero" fill="rgb(7.998657%, 7.899475%, 7.099915%)" fill-opacity="1" d="M 716.53125 133.171875 L 712.535156 133.171875 L 699.871094 109.277344 L 699.871094 133.171875 L 695.875 133.171875 L 695.875 102.164062 L 699.871094 102.164062 L 712.578125 126.164062 L 712.578125 102.164062 L 716.53125 102.164062 Z M 716.53125 133.171875 "/>
<path fill-rule="nonzero" fill="rgb(7.998657%, 7.899475%, 7.099915%)" fill-opacity="1" d="M 745.011719 133.171875 L 741.015625 133.171875 L 728.351562 109.277344 L 728.351562 133.171875 L 724.351562 133.171875 L 724.351562 102.164062 L 728.351562 102.164062 L 741.058594 126.164062 L 741.058594 102.164062 L 745.011719 102.164062 Z M 745.011719 133.171875 "/>
<path fill-rule="nonzero" fill="rgb(7.998657%, 7.899475%, 7.099915%)" fill-opacity="1" d="M 767.992188 118.839844 L 756.804688 118.839844 L 756.804688 129.828125 L 769.839844 129.828125 L 769.839844 133.171875 L 752.832031 133.171875 L 752.832031 102.164062 L 769.621094 102.164062 L 769.621094 105.527344 L 756.804688 105.527344 L 756.804688 115.496094 L 767.992188 115.496094 Z M 767.992188 118.839844 "/>
<path fill-rule="nonzero" fill="rgb(7.998657%, 7.899475%, 7.099915%)" fill-opacity="1" d="M 796.515625 133.171875 L 792.519531 133.171875 L 779.855469 109.277344 L 779.855469 133.171875 L 775.855469 133.171875 L 775.855469 102.164062 L 779.855469 102.164062 L 792.5625 126.164062 L 792.5625 102.164062 L 796.515625 102.164062 Z M 796.515625 133.171875 "/>
</svg>
